<svg width="31" height="31" viewBox="0 0 31 31" fill="none" xmlns="http://www.w3.org/2000/svg">
<path d="M12.7179 6.35889H7.94869C7.52707 6.35889 7.12271 6.52638 6.82457 6.82451C6.52644 7.12265 6.35895 7.527 6.35895 7.94863V12.7179C6.35895 13.1395 6.52644 13.5438 6.82457 13.842C7.12271 14.1401 7.52707 14.3076 7.94869 14.3076H12.7179C13.1395 14.3076 13.5439 14.1401 13.842 13.842C14.1402 13.5438 14.3077 13.1395 14.3077 12.7179V7.94863C14.3077 7.527 14.1402 7.12265 13.842 6.82451C13.5439 6.52638 13.1395 6.35889 12.7179 6.35889ZM12.7179 12.7179H7.94869V7.94863H12.7179V12.7179ZM22.2564 6.35889H17.4872C17.0655 6.35889 16.6612 6.52638 16.363 6.82451C16.0649 7.12265 15.8974 7.527 15.8974 7.94863V12.7179C15.8974 13.1395 16.0649 13.5438 16.363 13.842C16.6612 14.1401 17.0655 14.3076 17.4872 14.3076H22.2564C22.678 14.3076 23.0824 14.1401 23.3805 13.842C23.6786 13.5438 23.8461 13.1395 23.8461 12.7179V7.94863C23.8461 7.527 23.6786 7.12265 23.3805 6.82451C23.0824 6.52638 22.678 6.35889 22.2564 6.35889ZM22.2564 12.7179H17.4872V7.94863H22.2564V12.7179ZM12.7179 15.8973H7.94869C7.52707 15.8973 7.12271 16.0648 6.82457 16.363C6.52644 16.6611 6.35895 17.0655 6.35895 17.4871V22.2563C6.35895 22.6779 6.52644 23.0823 6.82457 23.3804C7.12271 23.6786 7.52707 23.8461 7.94869 23.8461H12.7179C13.1395 23.8461 13.5439 23.6786 13.842 23.3804C14.1402 23.0823 14.3077 22.6779 14.3077 22.2563V17.4871C14.3077 17.0655 14.1402 16.6611 13.842 16.363C13.5439 16.0648 13.1395 15.8973 12.7179 15.8973ZM12.7179 22.2563H7.94869V17.4871H12.7179V22.2563ZM22.2564 15.8973H17.4872C17.0655 15.8973 16.6612 16.0648 16.363 16.363C16.0649 16.6611 15.8974 17.0655 15.8974 17.4871V22.2563C15.8974 22.6779 16.0649 23.0823 16.363 23.3804C16.6612 23.6786 17.0655 23.8461 17.4872 23.8461H22.2564C22.678 23.8461 23.0824 23.6786 23.3805 23.3804C23.6786 23.0823 23.8461 22.6779 23.8461 22.2563V17.4871C23.8461 17.0655 23.6786 16.6611 23.3805 16.363C23.0824 16.0648 22.678 15.8973 22.2564 15.8973ZM22.2564 22.2563H17.4872V17.4871H22.2564V22.2563Z" fill="black" fill-opacity="0.9"/>
</svg>
