<svg width="16" height="16" viewBox="0 0 16 16" fill="none" xmlns="http://www.w3.org/2000/svg">
<path d="M7.99991 15.999C12.4182 15.999 15.9998 12.4174 15.9998 7.99991C15.9998 3.58164 12.4182 0 7.99991 0C3.58164 0 0 3.58164 0 7.99991C0 12.4174 3.58164 15.999 7.99991 15.999ZM7.99991 14.7993C7.09823 14.8131 6.2028 14.6475 5.36575 14.312C4.52869 13.9765 3.76672 13.4778 3.12419 12.8451C2.48166 12.2123 1.9714 11.4581 1.62311 10.6263C1.27482 9.79448 1.09545 8.9017 1.09545 7.99991C1.09545 7.09813 1.27482 6.20534 1.62311 5.37353C1.9714 4.54172 2.48166 3.78749 3.12419 3.15474C3.76672 2.52198 4.52869 2.02335 5.36575 1.68786C6.2028 1.35237 7.09823 1.18672 7.99991 1.20055C9.79055 1.21997 11.5012 1.94492 12.7606 3.21801C14.02 4.49111 14.7263 6.20957 14.7263 8.00031C14.7263 9.79105 14.02 11.5095 12.7606 12.7826C11.5012 14.0557 9.79055 14.7799 7.99991 14.7993Z" fill="#5A78F6"/>
</svg>
