<svg width="17" height="18" viewBox="0 0 17 18" fill="none" xmlns="http://www.w3.org/2000/svg">
<path d="M15.3756 9.2054V8.24861L16.5763 7.19802C16.7976 7.00294 16.9429 6.7359 16.9863 6.4441C17.0298 6.15229 16.9688 5.85451 16.8139 5.60338L15.3381 3.10197C15.2284 2.91203 15.0707 2.75426 14.8809 2.6445C14.691 2.53474 14.4756 2.47685 14.2562 2.47662C14.1203 2.47558 13.9851 2.4967 13.856 2.53916L12.3364 3.05194C12.0744 2.87703 11.8007 2.72032 11.5172 2.58293L11.1983 1.00705C11.1411 0.719136 10.9845 0.460514 10.7558 0.276449C10.5272 0.0923841 10.241 -0.0053944 9.94756 0.000229773H7.02092C6.72744 -0.0053944 6.44133 0.0923841 6.21268 0.276449C5.98403 0.460514 5.8274 0.719136 5.77022 1.00705L5.45129 2.58293C5.1661 2.72091 4.89035 2.87759 4.62583 3.05194L3.13749 2.51414C3.00698 2.48014 2.87182 2.46747 2.73727 2.47662C2.51794 2.47685 2.30253 2.53474 2.11264 2.6445C1.92276 2.75426 1.76507 2.91203 1.65541 3.10197L0.17958 5.60338C0.0336149 5.85413 -0.0206252 6.14784 0.0261496 6.43419C0.0729243 6.72055 0.217803 6.98173 0.435974 7.17301L1.61789 8.25486V9.21165L0.435974 10.2622C0.211641 10.4548 0.062799 10.7207 0.0158622 11.0126C-0.0310747 11.3046 0.0269291 11.6037 0.17958 11.8569L1.65541 14.3583C1.76507 14.5482 1.92276 14.706 2.11264 14.8158C2.30253 14.9255 2.51794 14.9834 2.73727 14.9836C2.87319 14.9847 3.00837 14.9636 3.13749 14.9211L4.65709 14.4083C4.9191 14.5832 5.19282 14.7399 5.4763 14.8773L5.79523 16.4532C5.85242 16.7411 6.00905 16.9997 6.2377 17.1838C6.46635 17.3679 6.75246 17.4657 7.04594 17.46H9.99759C10.2911 17.4657 10.5772 17.3679 10.8058 17.1838C11.0345 16.9997 11.1911 16.7411 11.2483 16.4532L11.5672 14.8773C11.8524 14.7393 12.1282 14.5827 12.3927 14.4083L13.906 14.9211C14.0352 14.9636 14.1703 14.9847 14.3063 14.9836C14.5256 14.9834 14.741 14.9255 14.9309 14.8158C15.1208 14.706 15.2785 14.5482 15.3881 14.3583L16.8139 11.8569C16.9599 11.6061 17.0141 11.3124 16.9673 11.0261C16.9206 10.7397 16.7757 10.4785 16.5575 10.2873L15.3756 9.2054ZM14.2562 13.7329L12.1113 13.0075C11.6089 13.4324 11.0351 13.7648 10.4166 13.9893L9.97258 16.2343H7.02092L6.57692 14.0143C5.96329 13.7835 5.3926 13.4517 4.88847 13.0325L2.73727 13.7329L1.26144 11.2315L2.96239 9.73069C2.84676 9.08337 2.84676 8.42067 2.96239 7.77334L1.26144 6.22873L2.73727 3.72732L4.88222 4.45273C5.38464 4.02786 5.95843 3.69545 6.57692 3.47093L7.02092 1.22592H9.97258L10.4166 3.44591C11.0302 3.67674 11.6009 4.00858 12.105 4.42772L14.2562 3.72732L15.7321 6.22873L14.0311 7.72957C14.1467 8.37689 14.1467 9.03959 14.0311 9.68692L15.7321 11.2315L14.2562 13.7329Z" fill="white"/>
<path d="M8.49674 12.4822C7.75464 12.4822 7.02921 12.2622 6.41218 11.8499C5.79515 11.4376 5.31423 10.8516 5.03024 10.166C4.74625 9.4804 4.67195 8.72597 4.81673 7.99814C4.9615 7.2703 5.31886 6.60174 5.8436 6.077C6.36834 5.55225 7.0369 5.1949 7.76474 5.05012C8.49257 4.90535 9.247 4.97965 9.93261 5.26364C10.6182 5.54763 11.2042 6.02855 11.6165 6.64558C12.0288 7.26261 12.2488 7.98804 12.2488 8.73014C12.2539 9.22426 12.1602 9.71443 11.9735 10.1719C11.7867 10.6294 11.5105 11.045 11.1611 11.3945C10.8116 11.7439 10.396 12.0201 9.93852 12.2068C9.48103 12.3936 8.99086 12.4873 8.49674 12.4822ZM8.49674 6.22873C8.16614 6.22103 7.83742 6.28047 7.53045 6.40345C7.22349 6.52643 6.94466 6.7104 6.71083 6.94423C6.477 7.17806 6.29303 7.45689 6.17005 7.76385C6.04707 8.07082 5.98763 8.39954 5.99533 8.73014C5.98763 9.06073 6.04707 9.38945 6.17005 9.69642C6.29303 10.0034 6.477 10.2822 6.71083 10.516C6.94466 10.7499 7.22349 10.9338 7.53045 11.0568C7.83742 11.1798 8.16614 11.2392 8.49674 11.2315C8.82733 11.2392 9.15605 11.1798 9.46302 11.0568C9.76998 10.9338 10.0488 10.7499 10.2826 10.516C10.5165 10.2822 10.7004 10.0034 10.8234 9.69642C10.9464 9.38945 11.0058 9.06073 10.9981 8.73014C11.0058 8.39954 10.9464 8.07082 10.8234 7.76385C10.7004 7.45689 10.5165 7.17806 10.2826 6.94423C10.0488 6.7104 9.76998 6.52643 9.46302 6.40345C9.15605 6.28047 8.82733 6.22103 8.49674 6.22873Z" fill="white"/>
</svg>
