<svg width="23" height="20" viewBox="0 0 23 20" fill="none" xmlns="http://www.w3.org/2000/svg">
<path d="M2.00129 8.99956H21.9988C22.264 8.99956 22.5183 9.1049 22.7058 9.29242C22.8933 9.47993 22.9986 9.73425 22.9986 9.99943C22.9986 10.2646 22.8933 10.5189 22.7058 10.7065C22.5183 10.894 22.264 10.9993 21.9988 10.9993H2.00129C1.73611 10.9993 1.48179 10.894 1.29427 10.7065C1.10676 10.5189 1.00142 10.2646 1.00142 9.99943C1.00142 9.73425 1.10676 9.47993 1.29427 9.29242C1.48179 9.1049 1.73611 8.99956 2.00129 8.99956Z" fill="#111111" fill-opacity="0.8"/>
<path d="M2.41548 10L10.7084 18.291C10.8962 18.4787 11.0017 18.7334 11.0017 18.9989C11.0017 19.2644 10.8962 19.519 10.7084 19.7068C10.5207 19.8945 10.266 20 10.0005 20C9.73501 20 9.48037 19.8945 9.29262 19.7068L0.29375 10.7079C0.200636 10.615 0.12676 10.5047 0.076353 10.3832C0.0259464 10.2617 0 10.1315 0 10C0 9.86849 0.0259464 9.73826 0.076353 9.61678C0.12676 9.49531 0.200636 9.38497 0.29375 9.29209L9.29262 0.293226C9.48037 0.105476 9.73501 0 10.0005 0C10.266 0 10.5207 0.105476 10.7084 0.293226C10.8962 0.480976 11.0017 0.735619 11.0017 1.00114C11.0017 1.26666 10.8962 1.5213 10.7084 1.70905L2.41548 10Z" fill="#111111" fill-opacity="0.8"/>
</svg>
