<svg width="23" height="23" viewBox="0 0 23 23" fill="none" xmlns="http://www.w3.org/2000/svg">
<path fill-rule="evenodd" clip-rule="evenodd" d="M5.30769 0C5.54231 0 5.76731 0.0932002 5.93321 0.259098C6.09911 0.424995 6.19231 0.650001 6.19231 0.884615V2.65385H16.8077V0.884615C16.8077 0.650001 16.9009 0.424995 17.0668 0.259098C17.2327 0.0932002 17.4577 0 17.6923 0C17.9269 0 18.1519 0.0932002 18.3178 0.259098C18.4837 0.424995 18.5769 0.650001 18.5769 0.884615V2.65385H19.4615C20.4 2.65385 21.3 3.02665 21.9636 3.69024C22.6272 4.35383 23 5.25385 23 6.19231V19.4615C23 20.4 22.6272 21.3 21.9636 21.9636C21.3 22.6272 20.4 23 19.4615 23H3.53846C2.6 23 1.69998 22.6272 1.03639 21.9636C0.372801 21.3 0 20.4 0 19.4615V6.19231C0 5.25385 0.372801 4.35383 1.03639 3.69024C1.69998 3.02665 2.6 2.65385 3.53846 2.65385H4.42308V0.884615C4.42308 0.650001 4.51628 0.424995 4.68217 0.259098C4.84807 0.0932002 5.07308 0 5.30769 0ZM21.2308 10.6154C21.2308 10.1462 21.0444 9.69615 20.7126 9.36435C20.3808 9.03255 19.9308 8.84615 19.4615 8.84615H3.53846C3.06923 8.84615 2.61922 9.03255 2.28743 9.36435C1.95563 9.69615 1.76923 10.1462 1.76923 10.6154V19.4615C1.76923 19.9308 1.95563 20.3808 2.28743 20.7126C2.61922 21.0444 3.06923 21.2308 3.53846 21.2308H19.4615C19.9308 21.2308 20.3808 21.0444 20.7126 20.7126C21.0444 20.3808 21.2308 19.9308 21.2308 19.4615V10.6154Z" fill="#5A78F6"/>
</svg>
