<svg width="31" height="31" viewBox="0 0 31 31" fill="none" xmlns="http://www.w3.org/2000/svg">
<path fill-rule="evenodd" clip-rule="evenodd" d="M15.5 5.16675C11.6033 5.16675 9.65445 5.16675 8.44442 6.37781C7.34495 7.47625 7.24369 9.18228 7.23335 12.4001H6.20002C5.92596 12.4001 5.66313 12.509 5.46934 12.7027C5.27556 12.8965 5.16669 13.1594 5.16669 13.4334V14.4667C5.16669 14.6272 5.20404 14.7854 5.27578 14.9289C5.34752 15.0724 5.45168 15.1972 5.58002 15.2934L7.23335 16.5334C7.24369 19.7512 7.34495 21.4572 8.44442 22.5557C8.69449 22.8068 8.97555 23.0052 9.30002 23.1623V24.8001C9.30002 25.0741 9.40889 25.337 9.60268 25.5308C9.79646 25.7245 10.0593 25.8334 10.3334 25.8334H11.8834C12.1574 25.8334 12.4202 25.7245 12.614 25.5308C12.8078 25.337 12.9167 25.0741 12.9167 24.8001V23.7481C13.6679 23.7668 14.5225 23.7668 15.5 23.7668C16.4776 23.7668 17.3321 23.7668 18.0834 23.7481V24.8001C18.0834 25.0741 18.1922 25.337 18.386 25.5308C18.5798 25.7245 18.8426 25.8334 19.1167 25.8334H20.6667C20.9407 25.8334 21.2036 25.7245 21.3974 25.5308C21.5912 25.337 21.7 25.0741 21.7 24.8001V23.1623C22.0174 23.0098 22.3067 22.8047 22.5556 22.5557C23.6551 21.4572 23.7574 19.7512 23.7667 16.5334L25.42 15.2934C25.5484 15.1972 25.6525 15.0724 25.7243 14.9289C25.796 14.7854 25.8334 14.6272 25.8334 14.4667V13.4334C25.8334 13.1594 25.7245 12.8965 25.5307 12.7027C25.3369 12.509 25.0741 12.4001 24.8 12.4001H23.7667C23.7564 9.18228 23.6551 7.47625 22.5556 6.37781C21.3456 5.16675 19.3967 5.16675 15.5 5.16675ZM8.78335 12.9167C8.78335 14.3779 8.78335 15.1084 9.23802 15.5621C9.69165 16.0167 10.4222 16.0167 11.8834 16.0167H19.1167C20.5778 16.0167 21.3084 16.0167 21.762 15.5621C22.2167 15.1084 22.2167 14.3779 22.2167 12.9167V10.3334C22.2167 8.87228 22.2167 8.14172 21.762 7.68808C21.3094 7.23341 20.5789 7.23341 19.1167 7.23341H11.8834C10.4222 7.23341 9.69165 7.23341 9.23802 7.68808C8.78335 8.14068 8.78335 8.87125 8.78335 10.3334V12.9167ZM9.55835 19.6334C9.55835 19.4279 9.64001 19.2307 9.78535 19.0854C9.93069 18.9401 10.1278 18.8584 10.3334 18.8584H11.8834C12.0889 18.8584 12.286 18.9401 12.4314 19.0854C12.5767 19.2307 12.6584 19.4279 12.6584 19.6334C12.6584 19.839 12.5767 20.0361 12.4314 20.1814C12.286 20.3268 12.0889 20.4084 11.8834 20.4084H10.3334C10.1278 20.4084 9.93069 20.3268 9.78535 20.1814C9.64001 20.0361 9.55835 19.839 9.55835 19.6334ZM21.4417 19.6334C21.4417 19.4279 21.36 19.2307 21.2147 19.0854C21.0694 18.9401 20.8722 18.8584 20.6667 18.8584H19.1167C18.9111 18.8584 18.714 18.9401 18.5687 19.0854C18.4233 19.2307 18.3417 19.4279 18.3417 19.6334C18.3417 19.839 18.4233 20.0361 18.5687 20.1814C18.714 20.3268 18.9111 20.4084 19.1167 20.4084H20.6667C20.8722 20.4084 21.0694 20.3268 21.2147 20.1814C21.36 20.0361 21.4417 19.839 21.4417 19.6334Z" fill="black"/>
</svg>
