<svg width="96" height="32" viewBox="0 0 96 32" fill="none" xmlns="http://www.w3.org/2000/svg">
<path d="M45.9996 26.9998C45.9996 27.265 45.8943 27.5194 45.7068 27.7069C45.5192 27.8944 45.2649 27.9998 44.9997 27.9998H37.9997C37.4693 27.9998 36.9606 27.7891 36.5855 27.414C36.2104 27.0389 35.9997 26.5302 35.9997 25.9998V5.99995C35.9997 5.46953 36.2104 4.96082 36.5855 4.58575C36.9606 4.21068 37.4693 3.99997 37.9997 3.99997H44.9997C45.2649 3.99997 45.5192 4.10533 45.7068 4.29286C45.8943 4.4804 45.9996 4.73475 45.9996 4.99996C45.9996 5.26518 45.8943 5.51953 45.7068 5.70706C45.5192 5.8946 45.2649 5.99995 44.9997 5.99995H37.9997V25.9998H44.9997C45.2649 25.9998 45.5192 26.1052 45.7068 26.2927C45.8943 26.4802 45.9996 26.7346 45.9996 26.9998ZM59.707 15.2924L54.7071 10.2924C54.5194 10.1048 54.2649 9.99937 53.9996 9.99937C53.7342 9.99937 53.4797 10.1048 53.2921 10.2924C53.1045 10.4801 52.999 10.7346 52.999 10.9999C52.999 11.2653 53.1045 11.5198 53.2921 11.7074L56.5858 14.9999H44.9997C44.7344 14.9999 44.4801 15.1052 44.2926 15.2928C44.105 15.4803 43.9997 15.7347 43.9997 15.9999C43.9997 16.2651 44.105 16.5194 44.2926 16.707C44.4801 16.8945 44.7344 16.9999 44.9997 16.9999H56.5858L53.2921 20.2923C53.1045 20.48 52.999 20.7345 52.999 20.9998C52.999 21.2652 53.1045 21.5197 53.2921 21.7073C53.4797 21.895 53.7342 22.0004 53.9996 22.0004C54.2649 22.0004 54.5194 21.895 54.7071 21.7073L59.707 16.7074C59.8 16.6145 59.8738 16.5042 59.9241 16.3828C59.9744 16.2614 60.0003 16.1313 60.0003 15.9999C60.0003 15.8685 59.9744 15.7383 59.9241 15.6169C59.8738 15.4955 59.8 15.3853 59.707 15.2924Z" fill="black"/>
</svg>
