<svg width="19" height="19" viewBox="0 0 19 19" fill="none" xmlns="http://www.w3.org/2000/svg">
<path d="M18.9985 11.2293C18.9984 13.587 18.9991 15.9447 18.9978 18.3024C18.9975 18.7595 18.6893 19.0443 18.2585 18.9943C18.1157 18.9777 17.9995 18.905 17.8866 18.8227C16.87 18.0822 15.8515 17.3443 14.8376 16.6C14.7079 16.5047 14.5785 16.4666 14.419 16.4667C11.113 16.4701 7.80683 16.4486 4.50108 16.4767C2.41152 16.4945 0.467288 15.0127 0.0648156 12.8296C0.0169565 12.5699 -0.000154505 12.3083 1.04982e-06 12.044C0.00181586 9.50854 -0.00098428 6.97305 0.001712 4.43756C0.00399347 2.32061 1.45631 0.531212 3.52793 0.0873625C3.79206 0.0307924 4.05931 0.00030367 4.33091 0.000407373C7.7752 0.00206662 11.2195 -0.00301486 14.6638 0.00315548C16.7906 0.00694065 18.6844 1.69253 18.9606 3.8031C18.9915 4.03954 18.9983 4.27505 18.9984 4.51191C18.9987 6.75107 18.9985 8.99023 18.9985 11.2293ZM17.6721 17.0454C17.7252 16.9666 17.705 16.8993 17.705 16.8364C17.7062 12.7405 17.707 8.64448 17.7036 4.54847C17.7035 4.3324 17.6869 4.11286 17.6464 3.90094C17.3493 2.34649 16.0894 1.29748 14.5034 1.29504C11.1647 1.2899 7.82602 1.29255 4.48734 1.29592C4.29103 1.29613 4.09177 1.31562 3.89903 1.35265C2.35375 1.6497 1.30059 2.9056 1.29567 4.47816C1.28779 6.98052 1.2909 9.48287 1.29593 11.9852C1.29686 12.4563 1.37988 12.9181 1.59169 13.3442C2.19623 14.5602 3.19655 15.1676 4.54023 15.1726C7.95129 15.1852 11.3625 15.1779 14.7736 15.1742C14.9954 15.174 15.1824 15.2321 15.3594 15.3644C15.8078 15.6992 16.2627 16.0255 16.7156 16.3542C17.033 16.5848 17.3515 16.8138 17.6721 17.0454Z" fill="#2F67F9"/>
<path d="M6.34865 8.24052C6.3473 8.95701 5.78777 9.51177 5.06792 9.51042C4.35143 9.50907 3.79688 8.94964 3.79817 8.22953C3.79947 7.51309 4.35895 6.95844 5.07891 6.95984C5.7955 6.96119 6.35 7.52051 6.34865 8.24052Z" fill="#2F67F9"/>
<path d="M9.49567 9.51042C8.77893 9.50943 8.22349 8.95042 8.22448 8.23103C8.22546 7.51439 8.78453 6.9588 9.50371 6.95984C10.2208 6.96087 10.7759 7.51947 10.775 8.23902C10.774 8.95612 10.2153 9.51135 9.49567 9.51042Z" fill="#2F67F9"/>
<path d="M15.2013 8.23658C15.2008 8.95436 14.6431 9.51078 13.9244 9.51042C13.2071 9.51 12.6504 8.95187 12.6508 8.23347C12.6511 7.5162 13.2093 6.95942 13.9276 6.95984C14.6457 6.96025 15.2017 7.5176 15.2013 8.23658Z" fill="#2F67F9"/>
</svg>
