<svg width="18" height="18" viewBox="0 0 18 18" fill="none" xmlns="http://www.w3.org/2000/svg">
<path d="M17.9999 8.32245C17.9999 8.68817 17.9999 9.0492 17.9999 9.41023C17.9671 9.67749 17.939 9.94475 17.8968 10.2073C17.4701 12.8002 16.1901 14.8773 13.9817 16.2979C11.1919 18.0937 8.24743 18.2344 5.22791 16.87C5.12476 16.8231 5.03567 16.809 4.92783 16.8371C3.96665 17.0997 3.00546 17.3482 2.04896 17.6155C1.59885 17.7374 1.14404 17.8358 0.703306 17.9953C0.609532 17.9953 0.515758 17.9953 0.421984 17.9953C0.225058 17.9109 0.0843967 17.7702 0 17.5733C0 17.4795 0 17.3857 0 17.2919C0.0421984 17.2638 0.0328209 17.2216 0.0468871 17.1841C0.412606 15.8244 0.778325 14.46 1.14404 13.1002C1.17687 12.9736 1.17218 12.8705 1.11591 12.7533C0.628286 11.7546 0.337587 10.6949 0.257879 9.58841C0.0890854 7.17841 0.75957 5.02161 2.31622 3.16957C3.70408 1.51445 5.4811 0.50638 7.60977 0.131284C7.93329 0.0750193 8.25681 0.0421984 8.58033 0C8.94605 0 9.30708 0 9.66811 0C9.715 0.00937741 9.7572 0.0234435 9.80408 0.0281322C11.3373 0.14535 12.7486 0.618909 14.0192 1.48163C16.1151 2.89762 17.4045 4.8575 17.864 7.3472C17.9202 7.66135 17.9531 7.99424 17.9999 8.32245ZM1.36441 16.6027C1.42068 16.6355 1.44881 16.6121 1.48163 16.6027C2.62099 16.2979 3.76503 15.9932 4.90439 15.6837C5.11069 15.6275 5.28886 15.6462 5.4811 15.7447C7.4316 16.7481 9.45712 16.9028 11.5436 16.2417C15.3743 15.0273 17.6483 10.9012 16.6402 7.00493C15.8197 3.83067 13.2784 1.58478 10.0291 1.18155C8.28963 0.965874 6.65796 1.30815 5.15289 2.20369C1.60354 4.3183 0.332898 8.79601 2.22245 12.4673C2.33498 12.683 2.35842 12.8846 2.29747 13.1237C1.97863 14.2771 1.67387 15.4399 1.36441 16.6027Z" fill="#2F67F9"/>
<path d="M11.759 6.73745C12.0638 6.56397 12.3498 6.39517 12.6405 6.23107C13.2359 5.89817 13.8502 6.25451 13.8502 6.93906C13.8502 8.30817 13.8502 9.68196 13.8502 11.0511C13.8502 11.7356 13.2359 12.092 12.6405 11.7544C12.3498 11.5903 12.0638 11.4215 11.7684 11.2527C11.7543 11.2714 11.7449 11.2808 11.7402 11.2949C11.4636 12.031 10.9619 12.3827 10.1789 12.3873C9.16615 12.392 8.15339 12.3873 7.13594 12.3873C6.6108 12.3873 6.08098 12.4014 5.55584 12.3733C4.75407 12.3311 4.14923 11.684 4.14454 10.8823C4.13985 9.621 4.13985 8.36443 4.14454 7.10317C4.14923 6.3014 4.75407 5.65905 5.55584 5.61216C5.9872 5.58872 6.42325 5.59809 6.85461 5.59809C7.92833 5.59809 8.99735 5.59809 10.0711 5.59809C10.9713 5.59809 11.4214 5.89817 11.759 6.73745ZM7.97521 6.72338C7.24378 6.72338 6.51234 6.72338 5.7809 6.72338C5.40112 6.72338 5.26983 6.85467 5.26983 7.22508C5.26983 8.40194 5.26983 9.57881 5.26983 10.7557C5.26983 11.1308 5.40112 11.2574 5.7809 11.2621C7.23909 11.2621 8.69728 11.2621 10.1555 11.2621C10.5493 11.2621 10.6806 11.1308 10.6806 10.7322C10.6806 9.57412 10.6806 8.41132 10.6806 7.25321C10.6806 6.85467 10.5493 6.72338 10.1555 6.72338C9.42403 6.72338 8.69728 6.72338 7.97521 6.72338ZM12.7155 10.4978C12.7155 9.48034 12.7155 8.49571 12.7155 7.48764C12.4154 7.66112 12.1341 7.82054 11.8528 7.98465C11.7965 8.01747 11.8012 8.06904 11.8012 8.12531C11.8012 8.70202 11.8012 9.28342 11.8012 9.86013C11.8012 9.92108 11.8012 9.97266 11.8622 10.0102C12.1435 10.1649 12.4201 10.3243 12.7155 10.4978Z" fill="#2F67F9"/>
</svg>
