<svg width="20" height="20" viewBox="0 0 20 20" fill="none" xmlns="http://www.w3.org/2000/svg">
<path d="M8.15837 8.1588C9.10379 7.21344 10.3764 6.66763 11.713 6.63427C13.0495 6.6009 14.3478 7.08253 15.3392 7.97954L15.5279 8.1588L18.4752 11.1072C19.4351 12.0688 19.9815 13.3673 19.9979 14.726C20.0142 16.0846 19.4993 17.3959 18.5628 18.3804C17.6263 19.3648 16.3424 19.9446 14.9846 19.996C13.6269 20.0475 12.3027 19.5667 11.2944 18.656L11.1068 18.4767L8.89521 16.2651C8.7083 16.0776 8.59977 15.8259 8.59169 15.5612C8.58361 15.2966 8.67657 15.0387 8.8517 14.8401C9.02683 14.6415 9.27099 14.517 9.53459 14.4919C9.79819 14.4668 10.0615 14.543 10.2709 14.7049L10.3689 14.7914L12.5805 17.003C13.1538 17.5796 13.9292 17.9103 14.7422 17.9247C15.5552 17.9392 16.3418 17.6364 16.9352 17.0805C17.5287 16.5246 17.8822 15.7594 17.9209 14.9472C17.9595 14.135 17.6802 13.3397 17.1422 12.7299L17.0015 12.5809L14.0542 9.63353C13.7638 9.34314 13.4191 9.11278 13.0397 8.95562C12.6604 8.79846 12.2538 8.71757 11.8431 8.71757C11.4325 8.71757 11.0259 8.79846 10.6465 8.95562C10.2671 9.11278 9.9224 9.34314 9.63206 9.63353C9.4365 9.82895 9.17131 9.93869 8.89485 9.93859C8.61838 9.93849 8.35327 9.82857 8.15785 9.63301C7.96243 9.43745 7.85269 9.17226 7.85279 8.8958C7.85289 8.61933 7.96281 8.35422 8.15837 8.1588ZM1.52573 1.52616C2.47115 0.580801 3.74376 0.0349904 5.08033 0.00162467C6.4169 -0.031741 7.71516 0.449891 8.70657 1.3469L8.89521 1.52616L11.1057 3.73877C11.2927 3.92633 11.4012 4.178 11.4093 4.44267C11.4174 4.70734 11.3244 4.96516 11.1493 5.16377C10.9741 5.36238 10.73 5.48688 10.4664 5.51199C10.2028 5.53711 9.9395 5.46094 9.73003 5.29897L9.63206 5.21246L7.42153 3.00193C6.84723 2.43138 6.07404 2.10581 5.2646 2.09372C4.45516 2.08163 3.67258 2.38395 3.0815 2.93709C2.49043 3.49023 2.13693 4.25107 2.09538 5.05953C2.05383 5.86799 2.32746 6.66105 2.85872 7.27188L2.99942 7.42196L5.94784 10.3704C6.53417 10.9565 7.3293 11.2858 8.15837 11.2858C8.98744 11.2858 9.78257 10.9565 10.3689 10.3704C10.4657 10.2735 10.5806 10.1967 10.707 10.1443C10.8335 10.0919 10.969 10.0648 11.1059 10.0648C11.2428 10.0647 11.3784 10.0917 11.5048 10.144C11.6313 10.1963 11.7463 10.2731 11.8431 10.3699C11.9399 10.4666 12.0168 10.5815 12.0692 10.708C12.1216 10.8344 12.1486 10.97 12.1487 11.1069C12.1487 11.2437 12.1218 11.3793 12.0695 11.5058C12.0171 11.6323 11.9404 11.7472 11.8436 11.8441C10.8982 12.7894 9.6256 13.3352 8.28903 13.3686C6.95246 13.402 5.6542 12.9203 4.66279 12.0233L4.47311 11.8441L1.52573 8.89564C0.548805 7.91842 0 6.59321 0 5.21142C0 3.82963 0.548805 2.50338 1.52573 1.52616Z" fill="#111111" fill-opacity="0.7"/>
</svg>
