<svg width="31" height="31" viewBox="0 0 31 31" fill="none" xmlns="http://www.w3.org/2000/svg">
<path fill-rule="evenodd" clip-rule="evenodd" d="M14.5523 7.21761C14.7758 7.21761 14.957 7.39879 14.957 7.6223V15.3114C14.957 15.5349 14.7758 15.7161 14.5523 15.7161H6.86319C6.63967 15.7161 6.4585 15.5349 6.4585 15.3114V7.6223C6.4585 7.39879 6.63967 7.21761 6.86319 7.21761H14.5523ZM13.237 8.93754H8.17843V13.9962H13.237V8.93754ZM25.715 11.1554C25.873 11.3134 25.873 11.5697 25.715 11.7277L21.1364 16.3062C20.9784 16.4643 20.7222 16.4643 20.5641 16.3062L15.9856 11.7277C15.8275 11.5697 15.8275 11.3134 15.9856 11.1554L20.5641 6.57684C20.7222 6.41881 20.9784 6.41881 21.1364 6.57684L25.715 11.1554ZM23.5688 11.4415L20.8503 8.72305L18.1318 11.4416L20.8503 14.1601L23.5688 11.4415ZM14.5523 17.3348C14.7758 17.3348 14.957 17.516 14.957 17.7395V25.4286C14.957 25.6521 14.7758 25.8333 14.5523 25.8333H6.86319C6.63967 25.8333 6.4585 25.6521 6.4585 25.4286V17.7395C6.4585 17.516 6.63967 17.3348 6.86319 17.3348H14.5523ZM13.237 19.0548H8.17843V24.1134H13.237V19.0548ZM24.6695 17.3348C24.893 17.3348 25.0742 17.516 25.0742 17.7395V25.4286C25.0742 25.6521 24.893 25.8333 24.6695 25.8333H16.9804C16.7569 25.8333 16.5757 25.6521 16.5757 25.4286V17.7395C16.5757 17.516 16.7569 17.3348 16.9804 17.3348H24.6695ZM23.3543 19.0548H18.2957V24.1134H23.3543V19.0548Z" fill="#5A78F6"/>
</svg>
