<svg width="16" height="16" viewBox="0 0 16 16" fill="none" xmlns="http://www.w3.org/2000/svg">
<path d="M7.99979 0C6.41758 0 4.8709 0.469179 3.55535 1.34821C2.23979 2.22723 1.21444 3.47663 0.608951 4.9384C0.00346618 6.40017 -0.154956 8.00866 0.153717 9.56047C0.462391 11.1123 1.2243 12.5377 2.34309 13.6565C3.46188 14.7753 4.8873 15.5372 6.43911 15.8459C7.99091 16.1545 9.5994 15.9961 11.0612 15.3906C12.5229 14.7851 13.7723 13.7598 14.6514 12.4442C15.5304 11.1287 15.9996 9.58199 15.9996 7.99978C15.9973 5.8788 15.1538 3.84532 13.654 2.34556C12.1542 0.845791 10.1208 0.0022398 7.99979 0ZM7.99979 14.7688C6.661 14.7688 5.35227 14.3718 4.23911 13.628C3.12594 12.8842 2.25834 11.8271 1.746 10.5902C1.23367 9.35331 1.09962 7.99228 1.3608 6.67921C1.62199 5.36614 2.26668 4.16001 3.21335 3.21334C4.16002 2.26668 5.36615 1.62199 6.67921 1.3608C7.99228 1.09962 9.35331 1.23367 10.5902 1.746C11.8271 2.25833 12.8843 3.12594 13.628 4.2391C14.3718 5.35227 14.7688 6.66099 14.7688 7.99978C14.7668 9.79442 14.053 11.515 12.784 12.784C11.515 14.053 9.79443 14.7668 7.99979 14.7688ZM12.3074 7.99978C12.3074 8.85174 12.0547 9.68457 11.5814 10.3929C11.1081 11.1013 10.4353 11.6534 9.64823 11.9795C8.86112 12.3055 7.99501 12.3908 7.15942 12.2246C6.32383 12.0584 5.5563 11.6481 4.95387 11.0457C4.35145 10.4433 3.94119 9.67574 3.77498 8.84015C3.60877 8.00456 3.69408 7.13845 4.02011 6.35135C4.34614 5.56424 4.89825 4.89149 5.60663 4.41817C6.315 3.94484 7.14783 3.69221 7.99979 3.69221C9.14185 3.69343 10.2368 4.14765 11.0444 4.95522C11.8519 5.76278 12.3061 6.85772 12.3074 7.99978Z" fill="#5A78F6"/>
</svg>
