<svg width="31" height="31" viewBox="0 0 31 31" fill="none" xmlns="http://www.w3.org/2000/svg">
<path fill-rule="evenodd" clip-rule="evenodd" d="M14.5521 7.21755C14.7756 7.21755 14.9568 7.39872 14.9568 7.62224V15.3113C14.9568 15.5348 14.7756 15.716 14.5521 15.716H6.863C6.63949 15.716 6.45831 15.5348 6.45831 15.3113V7.62224C6.45831 7.39872 6.63949 7.21755 6.863 7.21755H14.5521ZM13.2369 8.93748H8.17824V13.9961H13.2369V8.93748ZM25.7148 11.1553C25.8728 11.3134 25.8728 11.5696 25.7148 11.7276L21.1362 16.3062C20.9782 16.4642 20.722 16.4642 20.5639 16.3062L15.9854 11.7276C15.8274 11.5696 15.8274 11.3134 15.9854 11.1553L20.5639 6.57678C20.722 6.41874 20.9782 6.41874 21.1363 6.57678L25.7148 11.1553ZM23.5686 11.4415L20.8501 8.72299L18.1316 11.4415L20.8501 14.16L23.5686 11.4415ZM14.5521 17.3348C14.7756 17.3348 14.9568 17.516 14.9568 17.7395V25.4286C14.9568 25.6521 14.7756 25.8333 14.5521 25.8333H6.863C6.63949 25.8333 6.45831 25.6521 6.45831 25.4286V17.7395C6.45831 17.516 6.63949 17.3348 6.863 17.3348H14.5521ZM13.2369 19.0547H8.17824V24.1133H13.2369V19.0547ZM24.6693 17.3348C24.8929 17.3348 25.074 17.516 25.074 17.7395V25.4286C25.074 25.6521 24.8929 25.8333 24.6693 25.8333H16.9802C16.7567 25.8333 16.5756 25.6521 16.5756 25.4286V17.7395C16.5756 17.516 16.7567 17.3348 16.9802 17.3348H24.6693ZM23.3541 19.0547H18.2955V24.1133H23.3541V19.0547Z" fill="black"/>
</svg>
