<svg width="31" height="31" viewBox="0 0 31 31" fill="none" xmlns="http://www.w3.org/2000/svg">
<path d="M22.9919 6.45837H8.00779C6.44114 6.45837 5.1665 7.73276 5.1665 9.29966V18.4696C5.1665 20.033 6.43559 21.3054 7.9977 21.3109V25.4721L13.9778 21.3109H22.9919C24.5585 21.3109 25.8332 20.0363 25.8332 18.4696V9.29966C25.8332 7.73276 24.5585 6.45837 22.9919 6.45837ZM24.6222 18.4696C24.6222 19.3685 23.8909 20.1 22.9919 20.1H13.5979L9.20864 23.1543V20.1H8.00779C7.1088 20.1 6.37744 19.3685 6.37744 18.4696V9.29966C6.37744 8.40054 7.1088 7.66931 8.00779 7.66931H22.9919C23.8909 7.66931 24.6222 8.40054 24.6222 9.29966V18.4696Z" fill="#5A78F6"/>
<path d="M10.6978 10.7396H20.3018V11.9506H10.6978V10.7396Z" fill="#5A78F6"/>
<path d="M10.6978 13.3237H20.3018V14.5347H10.6978V13.3237Z" fill="#5A78F6"/>
<path d="M10.6978 15.9045H20.3018V17.1155H10.6978V15.9045Z" fill="#5A78F6"/>
</svg>
