<svg width="18" height="17" viewBox="0 0 18 17" fill="none" xmlns="http://www.w3.org/2000/svg">
<path d="M17.0598 8.49953H6.1711M2.32768 8.49953H0.755413M2.32768 8.49953C2.32768 7.98998 2.5301 7.5013 2.89041 7.14099C3.25071 6.78069 3.7394 6.57827 4.24895 6.57827C4.7585 6.57827 5.24718 6.78069 5.60749 7.14099C5.9678 7.5013 6.17022 7.98998 6.17022 8.49953C6.17022 9.00909 5.9678 9.49777 5.60749 9.85808C5.24718 10.2184 4.7585 10.4208 4.24895 10.4208C3.7394 10.4208 3.25071 10.2184 2.89041 9.85808C2.5301 9.49777 2.32768 9.00909 2.32768 8.49953ZM17.0598 14.3224H11.994M11.994 14.3224C11.994 14.8321 11.791 15.3213 11.4307 15.6817C11.0703 16.0421 10.5815 16.2445 10.0718 16.2445C9.56225 16.2445 9.07357 16.0412 8.71326 15.6809C8.35295 15.3206 8.15053 14.8319 8.15053 14.3224M11.994 14.3224C11.994 13.8127 11.791 13.3244 11.4307 12.964C11.0703 12.6036 10.5815 12.4011 10.0718 12.4011C9.56225 12.4011 9.07357 12.6035 8.71326 12.9638C8.35295 13.3242 8.15053 13.8128 8.15053 14.3224M8.15053 14.3224H0.755413M17.0598 2.67668H14.3233M10.4799 2.67668H0.755413M10.4799 2.67668C10.4799 2.16713 10.6823 1.67845 11.0426 1.31814C11.4029 0.957832 11.8916 0.755413 12.4011 0.755413C12.6534 0.755413 12.9033 0.805109 13.1364 0.901661C13.3695 0.998214 13.5813 1.13973 13.7597 1.31814C13.9381 1.49655 14.0796 1.70835 14.1761 1.94144C14.2727 2.17454 14.3224 2.42438 14.3224 2.67668C14.3224 2.92899 14.2727 3.17882 14.1761 3.41192C14.0796 3.64502 13.9381 3.85682 13.7597 4.03522C13.5813 4.21363 13.3695 4.35515 13.1364 4.4517C12.9033 4.54826 12.6534 4.59795 12.4011 4.59795C11.8916 4.59795 11.4029 4.39553 11.0426 4.03522C10.6823 3.67492 10.4799 3.18623 10.4799 2.67668Z" stroke="#5A78F6" stroke-width="1.5" stroke-miterlimit="10" stroke-linecap="round"/>
</svg>
