<svg width="31" height="31" viewBox="0 0 31 31" fill="none" xmlns="http://www.w3.org/2000/svg">
<path d="M25.2999 15.1203L17.1624 6.98276C16.8369 6.65726 16.3848 6.45834 15.8875 6.45834H9.55833C8.56375 6.45834 7.75 7.27209 7.75 8.26668V14.5958C7.75 15.0931 7.94892 15.5452 8.28346 15.8798L16.421 24.0173C16.7465 24.3428 17.1985 24.5417 17.6958 24.5417C18.1931 24.5417 18.6452 24.3428 18.9707 24.0082L25.2999 17.6791C25.6344 17.3536 25.8333 16.9015 25.8333 16.4042C25.8333 15.9069 25.6254 15.4458 25.2999 15.1203ZM17.6958 22.7424L9.55833 14.5958V8.26668H15.8875V8.25763L24.025 16.3951L17.6958 22.7424Z" fill="#5A78F6"/>
<path d="M11.8187 11.8833C12.5677 11.8833 13.175 11.2761 13.175 10.5271C13.175 9.77805 12.5677 9.17084 11.8187 9.17084C11.0697 9.17084 10.4625 9.77805 10.4625 10.5271C10.4625 11.2761 11.0697 11.8833 11.8187 11.8833Z" fill="#5A78F6"/>
</svg>
