<svg width="31" height="31" viewBox="0 0 31 31" fill="none" xmlns="http://www.w3.org/2000/svg">
<path d="M5.16669 24.0389C5.16669 19.5334 5.16669 15.028 5.16669 10.5225C5.31981 10.1683 5.59599 10.0048 6.00328 10.0168C6.36717 10.0277 6.73162 10.0192 7.09579 10.0189C7.4211 10.0187 7.42137 10.0185 7.42165 9.72065C7.42202 9.34977 7.42045 8.97888 7.42221 8.60799C7.42452 8.12553 7.70227 7.84219 8.21179 7.80086C9.44225 7.70108 10.6642 7.73883 11.8721 8.00373C13.4471 8.3492 14.8364 9.005 15.9262 10.1629C16.1372 10.387 16.139 10.387 16.3588 10.1525C17.0724 9.39109 17.9396 8.83559 18.9301 8.44714C20.5918 7.79553 22.326 7.65408 24.0992 7.80532C24.5852 7.84673 24.8504 8.13706 24.8527 8.60196C24.8548 8.99985 24.8591 9.39782 24.8507 9.79553C24.8472 9.96197 24.9107 10.024 25.0874 10.0213C25.5229 10.0146 25.9587 10.0151 26.3942 10.0227C26.7498 10.0289 27.0312 10.2447 27.105 10.5609C27.1262 10.6517 27.1243 10.7484 27.1243 10.8424C27.1251 15.1313 27.125 19.4204 27.1249 23.7093C27.1249 23.7632 27.1257 23.8173 27.1227 23.8711C27.1012 24.251 26.7827 24.5356 26.3789 24.5392C26.2407 24.5405 26.1115 24.5046 25.9811 24.4684C23.8466 23.8754 21.6753 23.5824 19.4479 23.7705C18.4975 23.8508 17.5688 24.0375 16.6916 24.397C16.3079 24.5543 15.9679 24.5548 15.5843 24.3972C14.5925 23.9898 13.5397 23.7949 12.4665 23.7359C10.3425 23.6192 8.26666 23.8993 6.23468 24.4863C5.73219 24.6315 5.41021 24.4941 5.16669 24.0389ZM8.94707 14.5442C8.94707 16.2433 8.94929 17.9424 8.94393 19.6416C8.94337 19.83 8.99972 19.9061 9.21169 19.9021C9.84732 19.8904 10.4812 19.9295 11.1101 20.0204C12.6034 20.2363 13.9826 20.7111 15.1678 21.6238C15.2145 21.6597 15.2589 21.7331 15.328 21.6973C15.3911 21.6646 15.3655 21.5871 15.3655 21.529C15.3664 18.3668 15.3659 15.2046 15.3671 12.0424C15.3672 11.9163 15.3324 11.8071 15.2595 11.7007C14.7674 10.9826 14.1152 10.4302 13.319 10.029C12.0444 9.38672 10.6685 9.17974 9.24222 9.19608C8.95364 9.1994 8.94726 9.20525 8.94717 9.48755C8.94679 11.173 8.94698 12.8586 8.94707 14.5442ZM23.3281 14.5577C23.3281 12.8655 23.3283 11.1733 23.3278 9.48108C23.3277 9.20377 23.3222 9.20089 23.0256 9.19704C22.0998 9.18498 21.1872 9.27751 20.2966 9.5218C18.9755 9.88421 17.8589 10.5293 17.0689 11.6235C16.9547 11.7816 16.9055 11.9416 16.9059 12.1322C16.9099 14.7817 16.9086 17.4312 16.9086 20.0808C16.9086 20.5595 16.9074 21.0381 16.9102 21.5168C16.9106 21.5801 16.8765 21.6671 16.9548 21.7001C17.0196 21.7274 17.0661 21.6553 17.1138 21.6183C17.641 21.2077 18.224 20.8843 18.8505 20.6305C20.1847 20.0903 21.5872 19.8943 23.0287 19.8984C23.3222 19.8992 23.3279 19.8945 23.328 19.6141C23.3283 17.9285 23.3282 16.243 23.3281 14.5577ZM18.5804 22.3976C18.665 22.4012 18.6865 22.4053 18.7069 22.4025C20.23 22.1938 21.7506 22.2405 23.2707 22.4355C23.9784 22.5264 24.6787 22.6527 25.3712 22.8157C25.5459 22.8568 25.6149 22.8112 25.6015 22.6442C25.5973 22.5905 25.6013 22.5363 25.6013 22.4823C25.6013 18.9354 25.6013 15.3884 25.6013 11.8413C25.6013 11.7671 25.6002 11.693 25.5985 11.6189C25.5974 11.5706 25.5867 11.5249 25.5444 11.492C25.495 11.4536 24.999 11.4384 24.9327 11.4772C24.8073 11.5505 24.8555 11.6715 24.8554 11.7726C24.8529 14.7127 24.8539 17.6529 24.8528 20.593C24.8527 21.1417 24.522 21.4341 23.9482 21.3864C22.7289 21.2849 21.5249 21.3582 20.3414 21.6626C19.7337 21.8189 19.1597 22.0506 18.5804 22.3976ZM13.65 22.3683C13.5218 22.2992 13.3953 22.2271 13.2651 22.1614C12.8479 21.9511 12.4116 21.7827 11.9552 21.6679C10.8641 21.3934 9.75572 21.2814 8.6275 21.3744C8.49251 21.3855 8.35696 21.3921 8.22151 21.3978C7.75436 21.4177 7.42285 21.0955 7.42258 20.6135C7.42128 17.6871 7.42184 14.7607 7.42174 11.8343C7.42174 11.7669 7.41943 11.6994 7.42128 11.6321C7.42452 11.5131 7.35948 11.4428 7.23975 11.4633C7.05258 11.4955 6.82035 11.3449 6.68221 11.5785C6.66963 11.5998 6.67564 11.6315 6.67508 11.6584C6.67388 11.7124 6.67388 11.7663 6.67388 11.8203C6.67388 15.3804 6.67388 18.9407 6.67388 22.5009C6.67388 22.5548 6.67647 22.6089 6.67416 22.6627C6.66815 22.8042 6.72153 22.8571 6.88095 22.8197C7.71245 22.6246 8.55487 22.485 9.40506 22.3841C10.1785 22.2923 10.9561 22.2571 11.7329 22.2656C12.3657 22.2725 13.0013 22.299 13.65 22.3683Z" fill="black"/>
</svg>
