<svg width="34" height="34" viewBox="0 0 34 34" fill="none" xmlns="http://www.w3.org/2000/svg">
<path d="M28 7.25H4C3.73478 7.25 3.48043 7.35536 3.29289 7.54289C3.10536 7.73043 3 7.98478 3 8.25V25.25C3 25.7804 3.21071 26.2891 3.58579 26.6642C3.96086 27.0393 4.46957 27.25 5 27.25H27C27.5304 27.25 28.0391 27.0393 28.4142 26.6642C28.7893 26.2891 29 25.7804 29 25.25V8.25C29 7.98478 28.8946 7.73043 28.7071 7.54289C28.5196 7.35536 28.2652 7.25 28 7.25ZM25.4287 9.25L16 17.8937L6.57125 9.25H25.4287ZM27 25.25H5V10.5238L15.3237 19.9875C15.5082 20.1569 15.7496 20.2508 16 20.2508C16.2504 20.2508 16.4918 20.1569 16.6763 19.9875L27 10.5238V25.25Z" fill="black"/>
<circle cx="27" cy="10" r="4" fill="#FF862F"/>
</svg>
