<svg width="24" height="24" viewBox="0 0 24 24" fill="none" xmlns="http://www.w3.org/2000/svg">
<path d="M2 9C2 7.114 2 6.172 2.586 5.586C3.172 5 4.114 5 6 5H18C19.886 5 20.828 5 21.414 5.586C22 6.172 22 7.114 22 9C22 9.471 22 9.707 21.854 9.854C21.707 10 21.47 10 21 10H3C2.529 10 2.293 10 2.146 9.854C2 9.707 2 9.47 2 9Z" fill="black"/>
<path fill-rule="evenodd" clip-rule="evenodd" d="M2 18C2 19.886 2 20.828 2.586 21.414C3.172 22 4.114 22 6 22H18C19.886 22 20.828 22 21.414 21.414C22 20.828 22 19.886 22 18V13C22 12.529 22 12.293 21.854 12.146C21.707 12 21.47 12 21 12H3C2.529 12 2.293 12 2.146 12.146C2 12.293 2 12.53 2 13V18ZM7 15C7 14.529 7 14.293 7.146 14.146C7.293 14 7.53 14 8 14H10C10.471 14 10.707 14 10.854 14.146C11 14.293 11 14.529 11 15C11 15.471 11 15.707 10.854 15.854C10.707 16 10.47 16 10 16H8C7.529 16 7.293 16 7.146 15.854C7 15.707 7 15.47 7 15ZM7.146 18.146C7 18.293 7 18.53 7 19C7 19.47 7 19.707 7.146 19.854C7.293 20 7.53 20 8 20H10C10.471 20 10.707 20 10.854 19.854C11 19.707 11 19.47 11 19C11 18.53 11 18.293 10.854 18.146C10.707 18 10.47 18 10 18H8C7.529 18 7.293 18 7.146 18.146ZM13 15C13 14.529 13 14.293 13.146 14.146C13.293 14 13.53 14 14 14H16C16.471 14 16.707 14 16.854 14.146C17 14.293 17 14.529 17 15C17 15.471 17 15.707 16.854 15.854C16.707 16 16.47 16 16 16H14C13.529 16 13.293 16 13.146 15.854C13 15.707 13 15.47 13 15ZM13.146 18.146C13 18.293 13 18.53 13 19C13 19.47 13 19.707 13.146 19.854C13.293 20 13.529 20 14 20H16C16.471 20 16.707 20 16.854 19.854C17 19.707 17 19.47 17 19C17 18.53 17 18.293 16.854 18.146C16.707 18 16.47 18 16 18H14C13.529 18 13.293 18 13.146 18.146Z" fill="black"/>
<path d="M7 3V6M17 3V6" stroke="black" stroke-width="2" stroke-linecap="round"/>
</svg>
