<svg width="27" height="16" viewBox="0 0 27 16" fill="none" xmlns="http://www.w3.org/2000/svg">
<path d="M19.4062 0H7.59375C3.40664 0 0 3.40664 0 7.59375C0 11.7809 3.40664 15.1875 7.59375 15.1875H19.4062C23.5934 15.1875 27 11.7809 27 7.59375C27 3.40664 23.5934 0 19.4062 0ZM19.4062 13.5C18.2381 13.5 17.0962 13.1536 16.1249 12.5046C15.1536 11.8556 14.3966 10.9332 13.9496 9.85397C13.5026 8.77475 13.3856 7.5872 13.6135 6.4415C13.8414 5.2958 14.4039 4.2434 15.2299 3.4174C16.0559 2.5914 17.1083 2.02888 18.254 1.80099C19.3997 1.57309 20.5872 1.69006 21.6665 2.13709C22.7457 2.58412 23.6681 3.34114 24.3171 4.31241C24.9661 5.28369 25.3125 6.4256 25.3125 7.59375C25.3108 9.15967 24.688 10.661 23.5807 11.7682C22.4735 12.8755 20.9722 13.4983 19.4062 13.5Z" fill="#5A78F6"/>
</svg>
