<svg width="31" height="31" viewBox="0 0 31 31" fill="none" xmlns="http://www.w3.org/2000/svg">
<path d="M25.8238 15.5447C25.6819 15.8476 25.4736 16.0701 25.114 16.0843C24.6502 16.1032 24.3 15.7766 24.3 15.3081C24.2952 13.931 24.3 12.5491 24.3 11.1719C24.3 10.6513 24.1533 10.1923 23.7321 9.85152C23.4387 9.61489 23.0979 9.52971 22.7335 9.51551C22.4874 9.50605 22.2413 9.51551 21.9952 9.51078C21.8722 9.50605 21.8296 9.5581 21.8296 9.67642C21.8343 9.86572 21.8343 10.055 21.8296 10.2443C21.8249 10.6939 21.4983 11.0252 21.0582 11.0205C20.6275 11.0205 20.301 10.6939 20.2963 10.2491C20.2915 10.055 20.2915 9.85625 20.2963 9.66222C20.301 9.54864 20.2584 9.50605 20.1401 9.50605C19.1084 9.51078 18.0767 9.51078 17.0403 9.50605C16.9125 9.50605 16.8747 9.5581 16.8794 9.67642C16.8841 9.87991 16.8841 10.0787 16.8794 10.2822C16.8699 10.7034 16.5292 11.0252 16.1032 11.0205C15.6915 11.0205 15.3555 10.6986 15.3413 10.2869C15.3366 10.0787 15.3366 9.87045 15.3413 9.66222C15.346 9.54864 15.2987 9.50605 15.1851 9.50605C14.1629 9.51078 13.1454 9.51078 12.1232 9.50605C11.9954 9.50605 11.9576 9.5581 11.9623 9.67642C11.967 9.87991 11.967 10.0787 11.9623 10.2822C11.9528 10.7034 11.6121 11.0205 11.1862 11.0205C10.7744 11.0157 10.4384 10.6986 10.429 10.2869C10.4242 10.0834 10.4242 9.88465 10.429 9.68115C10.4337 9.56757 10.4006 9.50605 10.2728 9.51078C9.92731 9.52024 9.58184 9.50131 9.23636 9.54864C8.6448 9.62909 8.09582 10.2017 8.02957 10.7933C8.00591 11.0205 7.99644 11.2429 7.99644 11.47C7.99644 15.1851 7.99644 18.9001 7.99644 22.6151C7.99644 23.1404 8.13842 23.609 8.56434 23.9544C8.88616 24.2147 9.26002 24.2952 9.65756 24.2952C11.5222 24.2999 13.3868 24.2952 15.2514 24.2952C15.753 24.2952 16.0985 24.6738 16.0417 25.166C16.0039 25.4925 15.7862 25.6865 15.507 25.819C13.3679 25.819 11.224 25.819 9.08492 25.819C9.06599 25.8143 9.05179 25.8001 9.03286 25.8001C7.57998 25.5872 6.44891 24.2715 6.45837 22.724C6.48203 18.8433 6.46784 14.9674 6.46784 11.0867C6.46784 10.8927 6.4773 10.6986 6.5057 10.5046C6.68553 9.27415 7.76928 8.19041 8.995 8.01057C9.39253 7.95378 9.78533 7.98217 10.1829 7.97271C10.4384 7.96798 10.4384 7.97271 10.4384 7.70769C10.4384 7.54205 10.4384 7.38114 10.4384 7.21551C10.4479 6.78011 10.7792 6.4583 11.2146 6.4583C11.6357 6.4583 11.967 6.78485 11.9765 7.21077C11.9812 7.41427 11.9812 7.61304 11.9765 7.81654C11.9718 7.93012 12.0191 7.97271 12.1327 7.97271C13.1549 7.96798 14.1724 7.96798 15.1946 7.97271C15.3224 7.97271 15.3602 7.92065 15.3555 7.80234C15.3508 7.60831 15.3508 7.41427 15.3555 7.21551C15.365 6.78958 15.6915 6.46304 16.1127 6.4583C16.5481 6.45357 16.8841 6.78011 16.8888 7.21077C16.8936 7.40481 16.8936 7.60357 16.8888 7.79761C16.8841 7.91119 16.9172 7.97271 17.045 7.97271C18.0767 7.96798 19.1084 7.96798 20.1448 7.97271C20.2726 7.97271 20.3057 7.91592 20.3057 7.80234C20.301 7.59884 20.301 7.40007 20.3057 7.19658C20.3152 6.78485 20.6512 6.46304 21.0629 6.46304C21.4889 6.4583 21.8296 6.78011 21.8391 7.20131C21.8438 7.39534 21.8485 7.59411 21.8391 7.78814C21.8296 7.94431 21.8911 7.98217 22.0378 7.97744C22.3123 7.96798 22.5915 7.97271 22.8708 7.97744C23.628 7.98691 24.2858 8.25666 24.8442 8.75358C25.3979 9.24576 25.7055 9.87045 25.8333 10.5945C25.8238 12.2462 25.8238 13.8931 25.8238 15.5447Z" fill="black"/>
<path d="M20.7227 25.824C20.1737 25.7293 19.6389 25.5968 19.1467 25.3271C17.7648 24.5746 16.9177 23.4293 16.7142 21.8723C16.3924 19.4493 17.9163 17.3007 20.2967 16.7612C22.6299 16.2312 25.1002 17.7408 25.6823 20.0598C25.7391 20.2775 25.777 20.4999 25.8243 20.7223C25.8243 21.0773 25.8243 21.4275 25.8243 21.7824C25.8148 21.8297 25.8006 21.8818 25.7912 21.9291C25.5167 23.5003 24.6743 24.6503 23.2546 25.3791C22.7908 25.6157 22.2891 25.7341 21.778 25.824C21.4278 25.824 21.0776 25.824 20.7227 25.824ZM24.2957 21.2571C24.2626 19.5581 22.9611 18.2188 21.2527 18.2188C19.5774 18.2188 18.2286 19.5203 18.2192 21.2429C18.205 22.904 19.5017 24.2812 21.248 24.2906C22.9233 24.2954 24.2578 22.9845 24.2957 21.2571Z" fill="black"/>
<path d="M11.9716 14.4185C11.9716 14.8444 11.6308 15.1804 11.2002 15.1804C10.7648 15.1804 10.4288 14.8397 10.4335 14.3948C10.4383 13.9689 10.779 13.6423 11.2144 13.6423C11.6403 13.6471 11.9716 13.9878 11.9716 14.4185Z" fill="black"/>
<path d="M15.2557 14.4183C15.251 14.8442 14.915 15.1803 14.4843 15.1755C14.0489 15.1755 13.7129 14.83 13.7224 14.3899C13.7271 13.964 14.0678 13.6375 14.5032 13.6375C14.9292 13.6469 15.2604 13.9877 15.2557 14.4183Z" fill="black"/>
<path d="M18.546 14.4233C18.5413 14.8492 18.2053 15.1805 17.7699 15.1805C17.3345 15.1805 17.0032 14.835 17.0079 14.3901C17.0127 13.9642 17.3581 13.6377 17.7935 13.6424C18.2194 13.6471 18.5507 13.9879 18.546 14.4233Z" fill="black"/>
<path d="M21.8338 14.4233C21.8291 14.8492 21.4884 15.1805 21.0577 15.1805C20.6223 15.1757 20.291 14.835 20.2958 14.3901C20.3005 13.9642 20.646 13.6377 21.0814 13.6424C21.5073 13.6471 21.8338 13.9926 21.8338 14.4233Z" fill="black"/>
<path d="M11.1954 18.4695C10.7647 18.4695 10.4335 18.1288 10.4335 17.6981C10.4335 17.2627 10.7742 16.9267 11.2191 16.9314C11.645 16.9362 11.9715 17.2769 11.9715 17.7123C11.9668 18.1382 11.6261 18.4695 11.1954 18.4695Z" fill="black"/>
<path d="M15.2558 17.7076C15.2558 18.1382 14.9151 18.4695 14.4844 18.4695C14.049 18.4695 13.713 18.1288 13.7178 17.6839C13.7225 17.258 14.0632 16.9267 14.4986 16.9314C14.9293 16.9362 15.2606 17.2722 15.2558 17.7076Z" fill="black"/>
<path d="M10.4335 20.973C10.4383 20.5471 10.779 20.2158 11.2097 20.2205C11.645 20.2252 11.9763 20.5707 11.9669 21.0108C11.9574 21.4368 11.6167 21.7586 11.1813 21.7538C10.7553 21.7491 10.4288 21.4036 10.4335 20.973Z" fill="black"/>
<path d="M13.7222 20.973C13.727 20.5471 14.0677 20.2158 14.4984 20.2205C14.9337 20.2252 15.265 20.5707 15.2556 21.0108C15.2461 21.4368 14.9053 21.7586 14.47 21.7538C14.044 21.7491 13.7175 21.4084 13.7222 20.973Z" fill="black"/>
<path d="M20.485 20.4717C20.485 20.2066 20.4802 19.9416 20.485 19.6813C20.4944 19.2601 20.8257 18.9336 21.2516 18.9336C21.6728 18.9336 22.0088 19.2554 22.023 19.6766C22.0278 19.8754 22.0325 20.0789 22.023 20.2824C22.0136 20.4338 22.0656 20.5001 22.2265 20.4906C22.3969 20.4764 22.5625 20.4906 22.7187 20.5758C23.0263 20.7461 23.1872 21.1058 23.102 21.4418C23.0168 21.7778 22.7234 22.0192 22.378 22.0239C21.9946 22.0287 21.6113 22.0287 21.228 22.0239C20.821 22.0192 20.4991 21.6927 20.4897 21.2904C20.4802 21.0159 20.485 20.7414 20.485 20.4717Z" fill="black"/>
</svg>
