<svg width="20" height="20" viewBox="0 0 20 20" fill="none" xmlns="http://www.w3.org/2000/svg">
<path d="M19.9998 9.99988V17.7776C19.9998 18.3669 19.7656 18.9321 19.3489 19.3489C18.9321 19.7656 18.3669 19.9998 17.7776 19.9998H2.2222C1.63283 19.9998 1.06761 19.7656 0.650866 19.3489C0.234123 18.9321 0 18.3669 0 17.7776V9.99988H19.9998ZM14.4443 0C14.739 0 15.0216 0.117062 15.2299 0.325433C15.4383 0.533804 15.5554 0.816416 15.5554 1.1111V2.2222H17.7776C18.3669 2.2222 18.9321 2.45632 19.3489 2.87306C19.7656 3.2898 19.9998 3.85503 19.9998 4.44439V7.77768H0V4.44439C0 3.85503 0.234123 3.2898 0.650866 2.87306C1.06761 2.45632 1.63283 2.2222 2.2222 2.2222H4.44439V1.1111C4.44439 0.816416 4.56145 0.533804 4.76982 0.325433C4.9782 0.117062 5.26081 0 5.55549 0C5.85017 0 6.13278 0.117062 6.34115 0.325433C6.54952 0.533804 6.66659 0.816416 6.66659 1.1111V2.2222H13.3332V1.1111C13.3332 0.816416 13.4502 0.533804 13.6586 0.325433C13.867 0.117062 14.1496 0 14.4443 0Z" fill="#111111" fill-opacity="0.6"/>
</svg>
