<svg width="20" height="20" viewBox="0 0 20 20" fill="none" xmlns="http://www.w3.org/2000/svg">
<path d="M15.5875 0.000261018C15.3527 -0.00379341 15.1195 0.0394223 14.9017 0.127337C14.6839 0.215252 14.486 0.346071 14.3198 0.51201L13.5397 1.3163L18.683 6.4845L19.4631 5.68099C19.6313 5.51297 19.7648 5.31342 19.8559 5.09376C19.947 4.8741 19.9939 4.63863 19.9939 4.40084C19.9939 4.16304 19.947 3.92758 19.8559 3.70792C19.7648 3.48825 19.6313 3.28871 19.4631 3.12068L16.8794 0.536193C16.536 0.19457 16.0719 0.00201554 15.5875 0.000261018ZM12.6621 2.02385L11.4428 3.19401L16.806 8.55724L18.0495 7.41126L12.6621 2.02385ZM10.6619 4.04745L2.22898 12.4078C2.13317 12.4569 2.04886 12.5257 1.98162 12.6098C1.91438 12.6938 1.86575 12.7912 1.83893 12.8954L0.0337672 19.0153C-0.00699077 19.1475 -0.0109297 19.2883 0.0223743 19.4226C0.0556783 19.5568 0.124964 19.6795 0.222775 19.7773C0.320587 19.8751 0.44322 19.9444 0.577477 19.9777C0.711734 20.011 0.852531 20.007 0.984716 19.9663L7.10386 18.1619C7.24276 18.1412 7.37321 18.0824 7.48075 17.992C7.58829 17.9017 7.66872 17.7834 7.71313 17.6501L16.0259 9.40989L14.8807 8.2647L6.34794 16.8217L2.9108 17.8202L2.17906 17.0893L3.22752 13.5062L11.687 5.07095L10.6619 4.04745ZM12.5147 5.92438L3.95848 14.5055L5.20119 14.7731L5.37203 15.9199L13.9532 7.36212L12.5147 5.92438Z" fill="black" fill-opacity="0.6"/>
</svg>
