<svg width="26" height="26" viewBox="0 0 26 26" fill="none" xmlns="http://www.w3.org/2000/svg">
<path d="M13.5417 6.29696C13.1915 6.29696 12.8557 6.43606 12.6081 6.68367C12.3605 6.93127 12.2214 7.2671 12.2214 7.61727C12.2214 7.96744 12.3605 8.30326 12.6081 8.55087C12.8557 8.79848 13.1915 8.93758 13.5417 8.93758C13.8918 8.93758 14.2277 8.79848 14.4753 8.55087C14.7229 8.30326 14.862 7.96744 14.862 7.61727C14.862 7.2671 14.7229 6.93127 14.4753 6.68367C14.2277 6.43606 13.8918 6.29696 13.5417 6.29696ZM11.3411 7.61727C11.3411 7.03365 11.573 6.47394 11.9857 6.06127C12.3983 5.64859 12.9581 5.41675 13.5417 5.41675C14.1253 5.41675 14.685 5.64859 15.0977 6.06127C15.5103 6.47394 15.7422 7.03365 15.7422 7.61727C15.7422 8.20088 15.5103 8.76059 15.0977 9.17327C14.685 9.58595 14.1253 9.81779 13.5417 9.81779C12.9581 9.81779 12.3983 9.58595 11.9857 9.17327C11.573 8.76059 11.3411 8.20088 11.3411 7.61727ZM18.3828 7.17716C18.1494 7.17716 17.9255 7.2699 17.7604 7.43497C17.5953 7.60004 17.5026 7.82393 17.5026 8.05737C17.5026 8.29082 17.5953 8.5147 17.7604 8.67977C17.9255 8.84485 18.1494 8.93758 18.3828 8.93758C18.6163 8.93758 18.8401 8.84485 19.0052 8.67977C19.1703 8.5147 19.263 8.29082 19.263 8.05737C19.263 7.82393 19.1703 7.60004 19.0052 7.43497C18.8401 7.2699 18.6163 7.17716 18.3828 7.17716ZM16.6224 8.05737C16.6224 7.59048 16.8079 7.14271 17.138 6.81257C17.4682 6.48243 17.9159 6.29696 18.3828 6.29696C18.8497 6.29696 19.2975 6.48243 19.6276 6.81257C19.9578 7.14271 20.1432 7.59048 20.1432 8.05737C20.1432 8.52426 19.9578 8.97203 19.6276 9.30218C19.2975 9.63232 18.8497 9.81779 18.3828 9.81779C17.9159 9.81779 17.4682 9.63232 17.138 9.30218C16.8079 8.97203 16.6224 8.52426 16.6224 8.05737ZM7.82031 8.05737C7.82031 7.82393 7.91305 7.60004 8.07812 7.43497C8.24319 7.2699 8.46707 7.17716 8.70052 7.17716C8.93397 7.17716 9.15785 7.2699 9.32292 7.43497C9.48799 7.60004 9.58073 7.82393 9.58073 8.05737C9.58073 8.29082 9.48799 8.5147 9.32292 8.67977C9.15785 8.84485 8.93397 8.93758 8.70052 8.93758C8.46707 8.93758 8.24319 8.84485 8.07812 8.67977C7.91305 8.5147 7.82031 8.29082 7.82031 8.05737ZM8.70052 6.29696C8.23363 6.29696 7.78586 6.48243 7.45572 6.81257C7.12558 7.14271 6.9401 7.59048 6.9401 8.05737C6.9401 8.52426 7.12558 8.97203 7.45572 9.30218C7.78586 9.63232 8.23363 9.81779 8.70052 9.81779C9.16741 9.81779 9.61518 9.63232 9.94532 9.30218C10.2755 8.97203 10.4609 8.52426 10.4609 8.05737C10.4609 7.59048 10.2755 7.14271 9.94532 6.81257C9.61518 6.48243 9.16741 6.29696 8.70052 6.29696ZM9.22865 16.8577C8.99031 16.8696 8.75204 16.833 8.52831 16.75C8.30458 16.667 8.10006 16.5394 7.92718 16.3749C7.7543 16.2104 7.61666 16.0125 7.52263 15.7931C7.4286 15.5738 7.38015 15.3377 7.38021 15.099V11.7983C7.38021 11.7399 7.40339 11.6839 7.44466 11.6427C7.48593 11.6014 7.5419 11.5782 7.60026 11.5782H9.15295C9.18816 11.2552 9.30258 10.955 9.47422 10.698H7.60026C6.99292 10.698 6.5 11.1909 6.5 11.7983V15.099C6.49996 15.4759 6.58057 15.8484 6.73643 16.1914C6.89228 16.5345 7.11976 16.8403 7.40358 17.0882C7.68741 17.3361 8.021 17.5203 8.38194 17.6286C8.74289 17.7369 9.12283 17.7666 9.49623 17.7159C9.37776 17.4398 9.28809 17.1522 9.22865 16.8577ZM17.5871 17.7159C17.9605 17.7666 18.3404 17.7369 18.7014 17.6286C19.0623 17.5203 19.3959 17.3361 19.6798 17.0882C19.9636 16.8403 20.1911 16.5345 20.3469 16.1914C20.5028 15.8484 20.5834 15.4759 20.5833 15.099V11.7983C20.5833 11.1909 20.0904 10.698 19.4831 10.698H17.6091C17.7816 10.955 17.8952 11.2552 17.9304 11.5782H19.4831C19.5414 11.5782 19.5974 11.6014 19.6387 11.6427C19.6799 11.6839 19.7031 11.7399 19.7031 11.7983V15.099C19.7032 15.3377 19.6547 15.5738 19.5607 15.7931C19.4667 16.0125 19.329 16.2104 19.1562 16.3749C18.9833 16.5394 18.7787 16.667 18.555 16.75C18.3313 16.833 18.093 16.8696 17.8547 16.8577C17.7952 17.1522 17.7056 17.4398 17.5871 17.7159ZM11.1211 10.698C10.5138 10.698 10.0208 11.1909 10.0208 11.7983V15.9792C10.0208 16.913 10.3918 17.8086 11.0521 18.4689C11.7123 19.1291 12.6079 19.5001 13.5417 19.5001C14.4754 19.5001 15.371 19.1291 16.0313 18.4689C16.6916 17.8086 17.0625 16.913 17.0625 15.9792V11.7983C17.0625 11.1909 16.5696 10.698 15.9622 10.698H11.1211ZM10.901 11.7983C10.901 11.7399 10.9242 11.6839 10.9655 11.6427C11.0068 11.6014 11.0627 11.5782 11.1211 11.5782H15.9622C16.0206 11.5782 16.0766 11.6014 16.1178 11.6427C16.1591 11.6839 16.1823 11.7399 16.1823 11.7983V15.9792C16.1823 16.6796 15.9041 17.3512 15.4089 17.8465C14.9137 18.3417 14.242 18.6199 13.5417 18.6199C12.8413 18.6199 12.1697 18.3417 11.6745 17.8465C11.1792 17.3512 10.901 16.6796 10.901 15.9792V11.7983Z" fill="black" stroke="black" stroke-width="0.4"/>
<circle cx="13" cy="13" r="12.3" stroke="black" stroke-width="1.4"/>
</svg>
