<svg width="46" height="76" viewBox="0 0 46 76" fill="none" xmlns="http://www.w3.org/2000/svg">
<path d="M1.08572 2.36721e-08C1.40742 3.0686e-08 1.66478 0.104551 1.8578 0.313653C2.0669 0.506671 2.17145 0.764028 2.17145 1.08572C2.17145 1.40742 2.0669 1.67282 1.8578 1.88192C1.66478 2.07494 1.40742 2.17145 1.08572 2.17145C0.764028 2.17145 0.498629 2.07494 0.289526 1.88192C0.0965087 1.67282 -3.0686e-08 1.40742 -2.36721e-08 1.08572C-1.66581e-08 0.764028 0.0965087 0.506671 0.289527 0.313653C0.498629 0.104551 0.764029 1.66581e-08 1.08572 2.36721e-08ZM1.08572 10.2058C1.40742 10.2058 1.66478 10.3104 1.8578 10.5195C2.0669 10.7125 2.17145 10.9698 2.17145 11.2915C2.17145 11.6132 2.0669 11.8786 1.8578 12.0877C1.66478 12.2808 1.40742 12.3773 1.08572 12.3773C0.764028 12.3773 0.498629 12.2808 0.289526 12.0877C0.0965085 11.8786 -2.53203e-07 11.6132 -2.46189e-07 11.2915C-2.39175e-07 10.9698 0.0965085 10.7125 0.289526 10.5195C0.498629 10.3104 0.764028 10.2058 1.08572 10.2058Z" fill="#ABBBC7"/>
<path d="M6.5643 1.43121e-07C6.886 1.50135e-07 7.14335 0.104551 7.33637 0.313653C7.54547 0.506671 7.65003 0.764029 7.65003 1.08573C7.65003 1.40742 7.54547 1.67282 7.33637 1.88192C7.14335 2.07494 6.886 2.17145 6.5643 2.17145C6.2426 2.17145 5.9772 2.07494 5.7681 1.88192C5.57508 1.67282 5.47857 1.40742 5.47857 1.08572C5.47858 0.764029 5.57508 0.506671 5.7681 0.313653C5.9772 0.104551 6.2426 1.36107e-07 6.5643 1.43121e-07ZM6.5643 10.2058C6.886 10.2058 7.14335 10.3104 7.33637 10.5195C7.54547 10.7125 7.65003 10.9698 7.65003 11.2915C7.65003 11.6132 7.54547 11.8786 7.33637 12.0877C7.14335 12.2808 6.886 12.3773 6.5643 12.3773C6.2426 12.3773 5.9772 12.2808 5.7681 12.0877C5.57508 11.8786 5.47857 11.6132 5.47857 11.2915C5.47857 10.9698 5.57508 10.7125 5.7681 10.5195C5.9772 10.3104 6.2426 10.2058 6.5643 10.2058Z" fill="#ABBBC7"/>
<path d="M12.0429 2.62571e-07C12.3646 2.69585e-07 12.6219 0.104551 12.8149 0.313653C13.0241 0.506671 13.1286 0.764029 13.1286 1.08573C13.1286 1.40742 13.0241 1.67282 12.8149 1.88192C12.6219 2.07494 12.3646 2.17145 12.0429 2.17145C11.7212 2.17145 11.4558 2.07494 11.2467 1.88192C11.0537 1.67282 10.9572 1.40742 10.9572 1.08573C10.9572 0.764029 11.0537 0.506671 11.2467 0.313653C11.4558 0.104551 11.7212 2.55557e-07 12.0429 2.62571e-07ZM12.0429 10.2058C12.3646 10.2058 12.6219 10.3104 12.8149 10.5195C13.0241 10.7125 13.1286 10.9698 13.1286 11.2915C13.1286 11.6132 13.0241 11.8786 12.8149 12.0877C12.6219 12.2808 12.3646 12.3773 12.0429 12.3773C11.7212 12.3773 11.4558 12.2808 11.2467 12.0877C11.0537 11.8786 10.9572 11.6132 10.9572 11.2915C10.9572 10.9698 11.0537 10.7125 11.2467 10.5195C11.4558 10.3104 11.7212 10.2058 12.0429 10.2058Z" fill="#ABBBC7"/>
<path d="M17.5215 3.8202e-07C17.8431 3.89034e-07 18.1005 0.104551 18.2935 0.313654C18.5026 0.506671 18.6072 0.764029 18.6072 1.08573C18.6072 1.40742 18.5026 1.67282 18.2935 1.88192C18.1005 2.07494 17.8431 2.17145 17.5215 2.17145C17.1998 2.17145 16.9344 2.07494 16.7253 1.88192C16.5322 1.67282 16.4357 1.40742 16.4357 1.08573C16.4357 0.764029 16.5322 0.506671 16.7253 0.313654C16.9344 0.104551 17.1998 3.75006e-07 17.5215 3.8202e-07ZM17.5215 10.2058C17.8431 10.2058 18.1005 10.3104 18.2935 10.5195C18.5026 10.7125 18.6072 10.9698 18.6072 11.2915C18.6072 11.6132 18.5026 11.8786 18.2935 12.0877C18.1005 12.2808 17.8431 12.3773 17.5215 12.3773C17.1998 12.3773 16.9344 12.2808 16.7253 12.0877C16.5322 11.8786 16.4357 11.6132 16.4357 11.2915C16.4357 10.9698 16.5322 10.7125 16.7253 10.5195C16.9344 10.3104 17.1998 10.2058 17.5215 10.2058Z" fill="#ABBBC7"/>
<path d="M23 5.0147e-07C23.3217 5.08483e-07 23.5791 0.104551 23.7721 0.313654C23.9812 0.506671 24.0858 0.764029 24.0858 1.08573C24.0858 1.40742 23.9812 1.67282 23.7721 1.88192C23.5791 2.07494 23.3217 2.17145 23 2.17145C22.6783 2.17145 22.4129 2.07494 22.2038 1.88192C22.0108 1.67282 21.9143 1.40742 21.9143 1.08573C21.9143 0.764029 22.0108 0.506671 22.2038 0.313654C22.4129 0.104551 22.6783 4.94456e-07 23 5.0147e-07ZM23 10.2058C23.3217 10.2058 23.5791 10.3104 23.7721 10.5195C23.9812 10.7125 24.0858 10.9698 24.0858 11.2915C24.0858 11.6132 23.9812 11.8786 23.7721 12.0877C23.5791 12.2808 23.3217 12.3773 23 12.3773C22.6783 12.3773 22.4129 12.2808 22.2038 12.0877C22.0108 11.8786 21.9143 11.6132 21.9143 11.2915C21.9143 10.9698 22.0108 10.7125 22.2038 10.5195C22.4129 10.3104 22.6783 10.2058 23 10.2058Z" fill="#ABBBC7"/>
<path d="M28.4786 6.20919e-07C28.8003 6.27933e-07 29.0577 0.104552 29.2507 0.313654C29.4598 0.506672 29.5643 0.764029 29.5643 1.08573C29.5643 1.40742 29.4598 1.67282 29.2507 1.88192C29.0577 2.07494 28.8003 2.17145 28.4786 2.17145C28.1569 2.17145 27.8915 2.07494 27.6824 1.88192C27.4894 1.67282 27.3929 1.40742 27.3929 1.08573C27.3929 0.764029 27.4894 0.506671 27.6824 0.313654C27.8915 0.104552 28.1569 6.13905e-07 28.4786 6.20919e-07ZM28.4786 10.2058C28.8003 10.2058 29.0577 10.3104 29.2507 10.5195C29.4598 10.7125 29.5643 10.9698 29.5643 11.2915C29.5643 11.6132 29.4598 11.8786 29.2507 12.0877C29.0577 12.2808 28.8003 12.3773 28.4786 12.3773C28.1569 12.3773 27.8915 12.2808 27.6824 12.0877C27.4894 11.8786 27.3929 11.6132 27.3929 11.2915C27.3929 10.9698 27.4894 10.7125 27.6824 10.5195C27.8915 10.3104 28.1569 10.2058 28.4786 10.2058Z" fill="#ABBBC7"/>
<path d="M33.9572 7.40368e-07C34.2789 7.47382e-07 34.5362 0.104552 34.7292 0.313654C34.9384 0.506672 35.0429 0.764029 35.0429 1.08573C35.0429 1.40742 34.9384 1.67282 34.7292 1.88192C34.5362 2.07494 34.2789 2.17145 33.9572 2.17145C33.6355 2.17145 33.3701 2.07494 33.161 1.88192C32.968 1.67282 32.8715 1.40742 32.8715 1.08573C32.8715 0.764029 32.968 0.506672 33.161 0.313654C33.3701 0.104552 33.6355 7.33354e-07 33.9572 7.40368e-07ZM33.9572 10.2058C34.2789 10.2058 34.5362 10.3104 34.7292 10.5195C34.9384 10.7125 35.0429 10.9698 35.0429 11.2915C35.0429 11.6132 34.9384 11.8786 34.7292 12.0877C34.5362 12.2808 34.2789 12.3773 33.9572 12.3773C33.6355 12.3773 33.3701 12.2808 33.161 12.0877C32.968 11.8786 32.8715 11.6132 32.8715 11.2915C32.8715 10.9698 32.968 10.7125 33.161 10.5195C33.3701 10.3104 33.6355 10.2058 33.9572 10.2058Z" fill="#ABBBC7"/>
<path d="M39.4358 8.59818e-07C39.7575 8.66832e-07 40.0148 0.104552 40.2078 0.313654C40.4169 0.506672 40.5215 0.764029 40.5215 1.08573C40.5215 1.40742 40.4169 1.67282 40.2078 1.88192C40.0148 2.07494 39.7575 2.17145 39.4358 2.17145C39.1141 2.17145 38.8487 2.07494 38.6396 1.88192C38.4465 1.67282 38.35 1.40742 38.35 1.08573C38.35 0.764029 38.4465 0.506672 38.6396 0.313654C38.8487 0.104552 39.1141 8.52804e-07 39.4358 8.59818e-07ZM39.4358 10.2058C39.7575 10.2058 40.0148 10.3104 40.2078 10.5195C40.4169 10.7125 40.5215 10.9698 40.5215 11.2915C40.5215 11.6132 40.4169 11.8786 40.2078 12.0877C40.0148 12.2808 39.7575 12.3773 39.4358 12.3773C39.1141 12.3773 38.8487 12.2808 38.6396 12.0877C38.4465 11.8786 38.35 11.6132 38.35 11.2915C38.35 10.9698 38.4465 10.7125 38.6396 10.5195C38.8487 10.3104 39.1141 10.2058 39.4358 10.2058Z" fill="#ABBBC7"/>
<path d="M44.9143 9.79267e-07C45.236 9.86281e-07 45.4934 0.104552 45.6864 0.313654C45.8955 0.506672 46.0001 0.764029 46.0001 1.08573C46.0001 1.40742 45.8955 1.67282 45.6864 1.88192C45.4934 2.07494 45.236 2.17145 44.9143 2.17145C44.5926 2.17145 44.3272 2.07494 44.1181 1.88192C43.9251 1.67282 43.8286 1.40742 43.8286 1.08573C43.8286 0.764029 43.9251 0.506672 44.1181 0.313654C44.3272 0.104552 44.5926 9.72253e-07 44.9143 9.79267e-07ZM44.9143 10.2058C45.236 10.2058 45.4934 10.3104 45.6864 10.5195C45.8955 10.7125 46.0001 10.9698 46.0001 11.2915C46.0001 11.6132 45.8955 11.8786 45.6864 12.0877C45.4934 12.2808 45.236 12.3773 44.9143 12.3773C44.5926 12.3773 44.3272 12.2808 44.1181 12.0877C43.9251 11.8786 43.8286 11.6132 43.8286 11.2915C43.8286 10.9698 43.9251 10.7125 44.1181 10.5195C44.3272 10.3104 44.5926 10.2058 44.9143 10.2058Z" fill="#ABBBC7"/>
<path d="M1.08572 21.1113C1.40742 21.1113 1.66478 21.2159 1.8578 21.425C2.0669 21.618 2.17145 21.8753 2.17145 22.197C2.17145 22.5187 2.0669 22.7841 1.8578 22.9932C1.66478 23.1863 1.40742 23.2828 1.08572 23.2828C0.764028 23.2828 0.498629 23.1863 0.289526 22.9932C0.0965082 22.7841 -4.90976e-07 22.5187 -4.83962e-07 22.197C-4.76948e-07 21.8753 0.0965082 21.618 0.289526 21.425C0.498629 21.2159 0.764028 21.1113 1.08572 21.1113ZM1.08572 31.3171C1.40742 31.3171 1.66478 31.4217 1.8578 31.6308C2.0669 31.8238 2.17145 32.0812 2.17145 32.4029C2.17145 32.7246 2.0669 32.99 1.8578 33.1991C1.66478 33.3921 1.40742 33.4886 1.08572 33.4886C0.764028 33.4886 0.498628 33.3921 0.289526 33.1991C0.096508 32.99 -7.13493e-07 32.7246 -7.06479e-07 32.4029C-6.99465e-07 32.0812 0.096508 31.8238 0.289526 31.6308C0.498628 31.4217 0.764028 31.3171 1.08572 31.3171Z" fill="#ABBBC7"/>
<path d="M6.5643 21.1113C6.886 21.1113 7.14335 21.2159 7.33637 21.425C7.54547 21.618 7.65003 21.8753 7.65003 22.197C7.65003 22.5187 7.54547 22.7841 7.33637 22.9932C7.14335 23.1863 6.886 23.2828 6.5643 23.2828C6.2426 23.2828 5.9772 23.1863 5.7681 22.9932C5.57508 22.7841 5.47857 22.5187 5.47857 22.197C5.47857 21.8753 5.57508 21.618 5.7681 21.425C5.9772 21.2159 6.2426 21.1113 6.5643 21.1113ZM6.5643 31.3171C6.886 31.3171 7.14335 31.4217 7.33637 31.6308C7.54547 31.8238 7.65002 32.0812 7.65002 32.4029C7.65002 32.7246 7.54547 32.99 7.33637 33.1991C7.14335 33.3921 6.886 33.4886 6.5643 33.4886C6.2426 33.4886 5.9772 33.3921 5.7681 33.1991C5.57508 32.99 5.47857 32.7246 5.47857 32.4029C5.47857 32.0812 5.57508 31.8238 5.7681 31.6308C5.9772 31.4217 6.2426 31.3171 6.5643 31.3171Z" fill="#ABBBC7"/>
<path d="M12.0429 21.1113C12.3646 21.1113 12.6219 21.2159 12.8149 21.425C13.024 21.618 13.1286 21.8753 13.1286 22.197C13.1286 22.5187 13.024 22.7841 12.8149 22.9932C12.6219 23.1863 12.3646 23.2828 12.0429 23.2828C11.7212 23.2828 11.4558 23.1863 11.2467 22.9932C11.0537 22.7841 10.9572 22.5187 10.9572 22.197C10.9572 21.8753 11.0537 21.618 11.2467 21.425C11.4558 21.2159 11.7212 21.1113 12.0429 21.1113ZM12.0429 31.3171C12.3646 31.3171 12.6219 31.4217 12.8149 31.6308C13.024 31.8238 13.1286 32.0812 13.1286 32.4029C13.1286 32.7246 13.024 32.99 12.8149 33.1991C12.6219 33.3921 12.3646 33.4886 12.0429 33.4886C11.7212 33.4886 11.4558 33.3921 11.2467 33.1991C11.0537 32.99 10.9572 32.7246 10.9572 32.4029C10.9572 32.0812 11.0537 31.8238 11.2467 31.6308C11.4558 31.4217 11.7212 31.3171 12.0429 31.3171Z" fill="#ABBBC7"/>
<path d="M17.5215 21.1113C17.8431 21.1113 18.1005 21.2159 18.2935 21.425C18.5026 21.618 18.6072 21.8753 18.6072 22.197C18.6072 22.5187 18.5026 22.7841 18.2935 22.9932C18.1005 23.1863 17.8431 23.2828 17.5215 23.2828C17.1998 23.2828 16.9344 23.1863 16.7253 22.9932C16.5322 22.7841 16.4357 22.5187 16.4357 22.197C16.4357 21.8753 16.5322 21.618 16.7253 21.425C16.9344 21.2159 17.1998 21.1113 17.5215 21.1113ZM17.5215 31.3171C17.8431 31.3171 18.1005 31.4217 18.2935 31.6308C18.5026 31.8238 18.6072 32.0812 18.6072 32.4029C18.6072 32.7246 18.5026 32.99 18.2935 33.1991C18.1005 33.3921 17.8431 33.4886 17.5215 33.4886C17.1998 33.4886 16.9344 33.3921 16.7253 33.1991C16.5322 32.99 16.4357 32.7246 16.4357 32.4029C16.4357 32.0812 16.5322 31.8238 16.7253 31.6308C16.9344 31.4217 17.1998 31.3171 17.5215 31.3171Z" fill="#ABBBC7"/>
<path d="M23 21.1113C23.3217 21.1113 23.5791 21.2159 23.7721 21.425C23.9812 21.618 24.0858 21.8753 24.0858 22.197C24.0858 22.5187 23.9812 22.7841 23.7721 22.9932C23.5791 23.1863 23.3217 23.2828 23 23.2828C22.6783 23.2828 22.4129 23.1863 22.2038 22.9932C22.0108 22.7841 21.9143 22.5187 21.9143 22.197C21.9143 21.8753 22.0108 21.618 22.2038 21.425C22.4129 21.2159 22.6783 21.1113 23 21.1113ZM23 31.3171C23.3217 31.3171 23.5791 31.4217 23.7721 31.6308C23.9812 31.8238 24.0858 32.0812 24.0858 32.4029C24.0858 32.7246 23.9812 32.99 23.7721 33.1991C23.5791 33.3921 23.3217 33.4886 23 33.4886C22.6783 33.4886 22.4129 33.3921 22.2038 33.1991C22.0108 32.99 21.9143 32.7246 21.9143 32.4029C21.9143 32.0812 22.0108 31.8238 22.2038 31.6308C22.4129 31.4217 22.6783 31.3171 23 31.3171Z" fill="#ABBBC7"/>
<path d="M28.4786 21.1113C28.8003 21.1113 29.0577 21.2159 29.2507 21.425C29.4598 21.618 29.5643 21.8753 29.5643 22.197C29.5643 22.5187 29.4598 22.7841 29.2507 22.9932C29.0577 23.1863 28.8003 23.2828 28.4786 23.2828C28.1569 23.2828 27.8915 23.1863 27.6824 22.9932C27.4894 22.7841 27.3929 22.5187 27.3929 22.197C27.3929 21.8753 27.4894 21.618 27.6824 21.425C27.8915 21.2159 28.1569 21.1113 28.4786 21.1113ZM28.4786 31.3171C28.8003 31.3171 29.0577 31.4217 29.2507 31.6308C29.4598 31.8238 29.5643 32.0812 29.5643 32.4029C29.5643 32.7246 29.4598 32.99 29.2507 33.1991C29.0577 33.3921 28.8003 33.4886 28.4786 33.4886C28.1569 33.4886 27.8915 33.3921 27.6824 33.1991C27.4894 32.99 27.3929 32.7246 27.3929 32.4029C27.3929 32.0812 27.4894 31.8238 27.6824 31.6308C27.8915 31.4217 28.1569 31.3171 28.4786 31.3171Z" fill="#ABBBC7"/>
<path d="M33.9572 21.1113C34.2789 21.1113 34.5362 21.2159 34.7292 21.425C34.9383 21.618 35.0429 21.8753 35.0429 22.197C35.0429 22.5187 34.9383 22.7841 34.7292 22.9932C34.5362 23.1863 34.2789 23.2828 33.9572 23.2828C33.6355 23.2828 33.3701 23.1863 33.161 22.9932C32.968 22.7841 32.8715 22.5187 32.8715 22.197C32.8715 21.8753 32.968 21.618 33.161 21.425C33.3701 21.2159 33.6355 21.1113 33.9572 21.1113ZM33.9572 31.3171C34.2789 31.3171 34.5362 31.4217 34.7292 31.6308C34.9383 31.8238 35.0429 32.0812 35.0429 32.4029C35.0429 32.7246 34.9383 32.99 34.7292 33.1991C34.5362 33.3921 34.2789 33.4886 33.9572 33.4886C33.6355 33.4886 33.3701 33.3921 33.161 33.1991C32.968 32.99 32.8715 32.7246 32.8715 32.4029C32.8715 32.0812 32.968 31.8238 33.161 31.6308C33.3701 31.4217 33.6355 31.3171 33.9572 31.3171Z" fill="#ABBBC7"/>
<path d="M39.4358 21.1113C39.7575 21.1113 40.0148 21.2159 40.2078 21.425C40.4169 21.618 40.5215 21.8753 40.5215 22.197C40.5215 22.5187 40.4169 22.7841 40.2078 22.9932C40.0148 23.1863 39.7575 23.2828 39.4358 23.2828C39.1141 23.2828 38.8487 23.1863 38.6396 22.9932C38.4465 22.7841 38.35 22.5187 38.35 22.197C38.35 21.8753 38.4465 21.618 38.6396 21.425C38.8487 21.2159 39.1141 21.1113 39.4358 21.1113ZM39.4358 31.3171C39.7575 31.3171 40.0148 31.4217 40.2078 31.6308C40.4169 31.8238 40.5215 32.0812 40.5215 32.4029C40.5215 32.7246 40.4169 32.99 40.2078 33.1991C40.0148 33.3921 39.7575 33.4886 39.4358 33.4886C39.1141 33.4886 38.8487 33.3921 38.6396 33.1991C38.4465 32.99 38.35 32.7246 38.35 32.4029C38.35 32.0812 38.4465 31.8238 38.6396 31.6308C38.8487 31.4217 39.1141 31.3171 39.4358 31.3171Z" fill="#ABBBC7"/>
<path d="M44.9143 21.1113C45.236 21.1113 45.4934 21.2159 45.6864 21.425C45.8955 21.618 46.0001 21.8753 46.0001 22.197C46.0001 22.5187 45.8955 22.7841 45.6864 22.9932C45.4934 23.1863 45.236 23.2828 44.9143 23.2828C44.5926 23.2828 44.3272 23.1863 44.1181 22.9932C43.9251 22.7841 43.8286 22.5187 43.8286 22.197C43.8286 21.8753 43.9251 21.618 44.1181 21.425C44.3272 21.2159 44.5926 21.1113 44.9143 21.1113ZM44.9143 31.3171C45.236 31.3171 45.4934 31.4217 45.6864 31.6308C45.8955 31.8238 46.0001 32.0812 46.0001 32.4029C46.0001 32.7246 45.8955 32.99 45.6864 33.1991C45.4934 33.3921 45.236 33.4886 44.9143 33.4886C44.5926 33.4886 44.3272 33.3921 44.1181 33.1991C43.9251 32.99 43.8286 32.7246 43.8286 32.4029C43.8286 32.0812 43.9251 31.8238 44.1181 31.6308C44.3272 31.4217 44.5926 31.3171 44.9143 31.3171Z" fill="#ABBBC7"/>
<path d="M1.08572 42.2226C1.40742 42.2226 1.66478 42.3272 1.85779 42.5363C2.0669 42.7293 2.17145 42.9867 2.17145 43.3084C2.17145 43.6301 2.0669 43.8955 1.85779 44.1046C1.66478 44.2976 1.40742 44.3941 1.08572 44.3941C0.764028 44.3941 0.498628 44.2976 0.289526 44.1046C0.0965078 43.8955 -9.51266e-07 43.6301 -9.44252e-07 43.3084C-9.37238e-07 42.9867 0.0965078 42.7293 0.289526 42.5363C0.498628 42.3272 0.764028 42.2226 1.08572 42.2226ZM1.08572 52.4285C1.40742 52.4285 1.66478 52.533 1.85779 52.7421C2.0669 52.9351 2.17145 53.1925 2.17145 53.5142C2.17145 53.8359 2.0669 54.1013 1.85779 54.3104C1.66478 54.5034 1.40742 54.5999 1.08572 54.5999C0.764027 54.5999 0.498628 54.5034 0.289525 54.3104C0.0965075 54.1013 -1.17378e-06 53.8359 -1.16677e-06 53.5142C-1.15976e-06 53.1925 0.0965076 52.9351 0.289525 52.7421C0.498628 52.533 0.764027 52.4285 1.08572 52.4285Z" fill="#ABBBC7"/>
<path d="M6.5643 42.2226C6.886 42.2226 7.14335 42.3272 7.33637 42.5363C7.54547 42.7293 7.65002 42.9867 7.65002 43.3084C7.65002 43.6301 7.54547 43.8955 7.33637 44.1046C7.14335 44.2976 6.886 44.3941 6.5643 44.3941C6.2426 44.3941 5.9772 44.2976 5.7681 44.1046C5.57508 43.8955 5.47857 43.6301 5.47857 43.3084C5.47857 42.9867 5.57508 42.7293 5.7681 42.5363C5.9772 42.3272 6.2426 42.2226 6.5643 42.2226ZM6.5643 52.4285C6.886 52.4285 7.14335 52.533 7.33637 52.7421C7.54547 52.9351 7.65002 53.1925 7.65002 53.5142C7.65002 53.8359 7.54547 54.1013 7.33637 54.3104C7.14335 54.5034 6.886 54.5999 6.5643 54.5999C6.2426 54.5999 5.9772 54.5034 5.7681 54.3104C5.57508 54.1013 5.47857 53.8359 5.47857 53.5142C5.47857 53.1925 5.57508 52.9351 5.7681 52.7421C5.9772 52.533 6.2426 52.4285 6.5643 52.4285Z" fill="#ABBBC7"/>
<path d="M12.0429 42.2226C12.3646 42.2226 12.6219 42.3272 12.8149 42.5363C13.024 42.7293 13.1286 42.9867 13.1286 43.3084C13.1286 43.6301 13.024 43.8955 12.8149 44.1046C12.6219 44.2976 12.3646 44.3941 12.0429 44.3941C11.7212 44.3941 11.4558 44.2976 11.2467 44.1046C11.0537 43.8955 10.9572 43.6301 10.9572 43.3084C10.9572 42.9867 11.0537 42.7293 11.2467 42.5363C11.4558 42.3272 11.7212 42.2226 12.0429 42.2226ZM12.0429 52.4285C12.3646 52.4285 12.6219 52.533 12.8149 52.7421C13.024 52.9351 13.1286 53.1925 13.1286 53.5142C13.1286 53.8359 13.024 54.1013 12.8149 54.3104C12.6219 54.5034 12.3646 54.5999 12.0429 54.5999C11.7212 54.5999 11.4558 54.5034 11.2467 54.3104C11.0537 54.1013 10.9571 53.8359 10.9571 53.5142C10.9571 53.1925 11.0537 52.9351 11.2467 52.7421C11.4558 52.533 11.7212 52.4285 12.0429 52.4285Z" fill="#ABBBC7"/>
<path d="M17.5214 42.2226C17.8431 42.2226 18.1005 42.3272 18.2935 42.5363C18.5026 42.7293 18.6072 42.9867 18.6072 43.3084C18.6072 43.6301 18.5026 43.8955 18.2935 44.1046C18.1005 44.2976 17.8431 44.3941 17.5214 44.3941C17.1998 44.3941 16.9344 44.2976 16.7253 44.1046C16.5322 43.8955 16.4357 43.6301 16.4357 43.3084C16.4357 42.9867 16.5322 42.7293 16.7253 42.5363C16.9344 42.3272 17.1998 42.2226 17.5214 42.2226ZM17.5214 52.4285C17.8431 52.4285 18.1005 52.533 18.2935 52.7421C18.5026 52.9351 18.6072 53.1925 18.6072 53.5142C18.6072 53.8359 18.5026 54.1013 18.2935 54.3104C18.1005 54.5034 17.8431 54.5999 17.5214 54.5999C17.1998 54.5999 16.9344 54.5034 16.7253 54.3104C16.5322 54.1013 16.4357 53.8359 16.4357 53.5142C16.4357 53.1925 16.5322 52.9351 16.7253 52.7421C16.9344 52.533 17.1998 52.4285 17.5214 52.4285Z" fill="#ABBBC7"/>
<path d="M23 42.2226C23.3217 42.2226 23.5791 42.3272 23.7721 42.5363C23.9812 42.7293 24.0858 42.9867 24.0858 43.3084C24.0858 43.6301 23.9812 43.8955 23.7721 44.1046C23.5791 44.2976 23.3217 44.3941 23 44.3941C22.6783 44.3941 22.4129 44.2976 22.2038 44.1046C22.0108 43.8955 21.9143 43.6301 21.9143 43.3084C21.9143 42.9867 22.0108 42.7293 22.2038 42.5363C22.4129 42.3272 22.6783 42.2226 23 42.2226ZM23 52.4285C23.3217 52.4285 23.5791 52.533 23.7721 52.7421C23.9812 52.9351 24.0858 53.1925 24.0858 53.5142C24.0858 53.8359 23.9812 54.1013 23.7721 54.3104C23.5791 54.5034 23.3217 54.5999 23 54.5999C22.6783 54.5999 22.4129 54.5034 22.2038 54.3104C22.0108 54.1013 21.9143 53.8359 21.9143 53.5142C21.9143 53.1925 22.0108 52.9351 22.2038 52.7421C22.4129 52.533 22.6783 52.4285 23 52.4285Z" fill="#ABBBC7"/>
<path d="M28.4786 42.2226C28.8003 42.2226 29.0577 42.3272 29.2507 42.5363C29.4598 42.7293 29.5643 42.9867 29.5643 43.3084C29.5643 43.6301 29.4598 43.8955 29.2507 44.1046C29.0577 44.2976 28.8003 44.3941 28.4786 44.3941C28.1569 44.3941 27.8915 44.2976 27.6824 44.1046C27.4894 43.8955 27.3929 43.6301 27.3929 43.3084C27.3929 42.9867 27.4894 42.7293 27.6824 42.5363C27.8915 42.3272 28.1569 42.2226 28.4786 42.2226ZM28.4786 52.4285C28.8003 52.4285 29.0577 52.533 29.2507 52.7421C29.4598 52.9351 29.5643 53.1925 29.5643 53.5142C29.5643 53.8359 29.4598 54.1013 29.2507 54.3104C29.0577 54.5034 28.8003 54.5999 28.4786 54.5999C28.1569 54.5999 27.8915 54.5034 27.6824 54.3104C27.4894 54.1013 27.3929 53.8359 27.3929 53.5142C27.3929 53.1925 27.4894 52.9351 27.6824 52.7421C27.8915 52.533 28.1569 52.4285 28.4786 52.4285Z" fill="#ABBBC7"/>
<path d="M33.9572 42.2226C34.2789 42.2226 34.5362 42.3272 34.7292 42.5363C34.9383 42.7293 35.0429 42.9867 35.0429 43.3084C35.0429 43.6301 34.9383 43.8955 34.7292 44.1046C34.5362 44.2976 34.2789 44.3941 33.9572 44.3941C33.6355 44.3941 33.3701 44.2976 33.161 44.1046C32.968 43.8955 32.8715 43.6301 32.8715 43.3084C32.8715 42.9867 32.968 42.7293 33.161 42.5363C33.3701 42.3272 33.6355 42.2226 33.9572 42.2226ZM33.9572 52.4285C34.2789 52.4285 34.5362 52.533 34.7292 52.7421C34.9383 52.9351 35.0429 53.1925 35.0429 53.5142C35.0429 53.8359 34.9383 54.1013 34.7292 54.3104C34.5362 54.5034 34.2789 54.5999 33.9572 54.5999C33.6355 54.5999 33.3701 54.5034 33.161 54.3104C32.968 54.1013 32.8715 53.8359 32.8715 53.5142C32.8715 53.1925 32.968 52.9351 33.161 52.7421C33.3701 52.533 33.6355 52.4285 33.9572 52.4285Z" fill="#ABBBC7"/>
<path d="M39.4358 42.2226C39.7574 42.2226 40.0148 42.3272 40.2078 42.5363C40.4169 42.7293 40.5215 42.9867 40.5215 43.3084C40.5215 43.6301 40.4169 43.8955 40.2078 44.1046C40.0148 44.2976 39.7574 44.3941 39.4358 44.3941C39.1141 44.3941 38.8487 44.2976 38.6396 44.1046C38.4465 43.8955 38.35 43.6301 38.35 43.3084C38.35 42.9867 38.4465 42.7293 38.6396 42.5363C38.8487 42.3272 39.1141 42.2226 39.4358 42.2226ZM39.4358 52.4285C39.7574 52.4285 40.0148 52.533 40.2078 52.7421C40.4169 52.9351 40.5215 53.1925 40.5215 53.5142C40.5215 53.8359 40.4169 54.1013 40.2078 54.3104C40.0148 54.5034 39.7574 54.5999 39.4358 54.5999C39.1141 54.5999 38.8487 54.5034 38.6396 54.3104C38.4465 54.1013 38.35 53.8359 38.35 53.5142C38.35 53.1925 38.4465 52.9351 38.6396 52.7421C38.8487 52.533 39.1141 52.4285 39.4358 52.4285Z" fill="#ABBBC7"/>
<path d="M44.9143 42.2226C45.236 42.2226 45.4934 42.3272 45.6864 42.5363C45.8955 42.7293 46.0001 42.9867 46.0001 43.3084C46.0001 43.6301 45.8955 43.8955 45.6864 44.1046C45.4934 44.2976 45.236 44.3941 44.9143 44.3941C44.5926 44.3941 44.3272 44.2976 44.1181 44.1046C43.9251 43.8955 43.8286 43.6301 43.8286 43.3084C43.8286 42.9867 43.9251 42.7293 44.1181 42.5363C44.3272 42.3272 44.5926 42.2226 44.9143 42.2226ZM44.9143 52.4285C45.236 52.4285 45.4934 52.533 45.6864 52.7421C45.8955 52.9351 46.0001 53.1925 46.0001 53.5142C46.0001 53.8359 45.8955 54.1013 45.6864 54.3104C45.4934 54.5034 45.236 54.5999 44.9143 54.5999C44.5926 54.5999 44.3272 54.5034 44.1181 54.3104C43.9251 54.1013 43.8286 53.8359 43.8286 53.5142C43.8286 53.1925 43.9251 52.9351 44.1181 52.7421C44.3272 52.533 44.5926 52.4285 44.9143 52.4285Z" fill="#ABBBC7"/>
<path d="M1.08572 63.334C1.40742 63.334 1.66478 63.4385 1.85779 63.6476C2.0669 63.8406 2.17145 64.098 2.17145 64.4197C2.17145 64.7414 2.0669 65.0068 1.85779 65.2159C1.66478 65.4089 1.40742 65.5054 1.08572 65.5054C0.764027 65.5054 0.498628 65.4089 0.289525 65.2159C0.0965073 65.0068 -1.41156e-06 64.7414 -1.40454e-06 64.4197C-1.39753e-06 64.098 0.0965073 63.8406 0.289525 63.6476C0.498628 63.4385 0.764027 63.334 1.08572 63.334ZM1.08572 73.5398C1.40742 73.5398 1.66478 73.6443 1.85779 73.8534C2.0669 74.0464 2.17145 74.3038 2.17145 74.6255C2.17145 74.9472 2.0669 75.2126 1.85779 75.4217C1.66478 75.6147 1.40742 75.7112 1.08572 75.7112C0.764027 75.7112 0.498627 75.6147 0.289525 75.4217C0.0965071 75.2126 -1.63407e-06 74.9472 -1.62706e-06 74.6255C-1.62005e-06 74.3038 0.0965071 74.0464 0.289525 73.8534C0.498627 73.6443 0.764027 73.5398 1.08572 73.5398Z" fill="#ABBBC7"/>
<path d="M6.5643 63.334C6.886 63.334 7.14335 63.4385 7.33637 63.6476C7.54547 63.8406 7.65002 64.098 7.65002 64.4197C7.65002 64.7414 7.54547 65.0068 7.33637 65.2159C7.14335 65.4089 6.886 65.5054 6.5643 65.5054C6.2426 65.5054 5.9772 65.4089 5.7681 65.2159C5.57508 65.0068 5.47857 64.7414 5.47857 64.4197C5.47857 64.098 5.57508 63.8406 5.7681 63.6476C5.9772 63.4385 6.2426 63.334 6.5643 63.334ZM6.5643 73.5398C6.886 73.5398 7.14335 73.6443 7.33637 73.8534C7.54547 74.0464 7.65002 74.3038 7.65002 74.6255C7.65002 74.9472 7.54547 75.2126 7.33637 75.4217C7.14335 75.6147 6.886 75.7112 6.5643 75.7112C6.2426 75.7112 5.9772 75.6147 5.7681 75.4217C5.57508 75.2126 5.47857 74.9472 5.47857 74.6255C5.47857 74.3038 5.57508 74.0464 5.7681 73.8534C5.9772 73.6443 6.2426 73.5398 6.5643 73.5398Z" fill="#ABBBC7"/>
<path d="M12.0429 63.334C12.3646 63.334 12.6219 63.4385 12.8149 63.6476C13.024 63.8406 13.1286 64.098 13.1286 64.4197C13.1286 64.7414 13.024 65.0068 12.8149 65.2159C12.6219 65.4089 12.3646 65.5054 12.0429 65.5054C11.7212 65.5054 11.4558 65.4089 11.2467 65.2159C11.0537 65.0068 10.9571 64.7414 10.9571 64.4197C10.9571 64.098 11.0537 63.8406 11.2467 63.6476C11.4558 63.4385 11.7212 63.334 12.0429 63.334ZM12.0429 73.5398C12.3646 73.5398 12.6219 73.6443 12.8149 73.8534C13.024 74.0464 13.1286 74.3038 13.1286 74.6255C13.1286 74.9472 13.024 75.2126 12.8149 75.4217C12.6219 75.6147 12.3646 75.7112 12.0429 75.7112C11.7212 75.7112 11.4558 75.6147 11.2467 75.4217C11.0537 75.2126 10.9571 74.9472 10.9571 74.6255C10.9571 74.3038 11.0537 74.0464 11.2467 73.8534C11.4558 73.6443 11.7212 73.5398 12.0429 73.5398Z" fill="#ABBBC7"/>
<path d="M17.5214 63.334C17.8431 63.334 18.1005 63.4385 18.2935 63.6476C18.5026 63.8406 18.6072 64.098 18.6072 64.4197C18.6072 64.7414 18.5026 65.0068 18.2935 65.2159C18.1005 65.4089 17.8431 65.5054 17.5214 65.5054C17.1998 65.5054 16.9344 65.4089 16.7253 65.2159C16.5322 65.0068 16.4357 64.7414 16.4357 64.4197C16.4357 64.098 16.5322 63.8406 16.7253 63.6476C16.9344 63.4385 17.1998 63.334 17.5214 63.334ZM17.5214 73.5398C17.8431 73.5398 18.1005 73.6443 18.2935 73.8534C18.5026 74.0464 18.6072 74.3038 18.6072 74.6255C18.6072 74.9472 18.5026 75.2126 18.2935 75.4217C18.1005 75.6147 17.8431 75.7112 17.5214 75.7112C17.1998 75.7112 16.9344 75.6147 16.7253 75.4217C16.5322 75.2126 16.4357 74.9472 16.4357 74.6255C16.4357 74.3038 16.5322 74.0464 16.7253 73.8534C16.9344 73.6443 17.1998 73.5398 17.5214 73.5398Z" fill="#ABBBC7"/>
<path d="M23 63.334C23.3217 63.334 23.5791 63.4385 23.7721 63.6476C23.9812 63.8406 24.0858 64.098 24.0858 64.4197C24.0858 64.7414 23.9812 65.0068 23.7721 65.2159C23.5791 65.4089 23.3217 65.5054 23 65.5054C22.6783 65.5054 22.4129 65.4089 22.2038 65.2159C22.0108 65.0068 21.9143 64.7414 21.9143 64.4197C21.9143 64.098 22.0108 63.8406 22.2038 63.6476C22.4129 63.4385 22.6783 63.334 23 63.334ZM23 73.5398C23.3217 73.5398 23.5791 73.6443 23.7721 73.8534C23.9812 74.0464 24.0858 74.3038 24.0858 74.6255C24.0858 74.9472 23.9812 75.2126 23.7721 75.4217C23.5791 75.6147 23.3217 75.7112 23 75.7112C22.6783 75.7112 22.4129 75.6147 22.2038 75.4217C22.0108 75.2126 21.9143 74.9472 21.9143 74.6255C21.9143 74.3038 22.0108 74.0464 22.2038 73.8534C22.4129 73.6443 22.6783 73.5398 23 73.5398Z" fill="#ABBBC7"/>
<path d="M28.4786 63.334C28.8003 63.334 29.0577 63.4385 29.2507 63.6476C29.4598 63.8406 29.5643 64.098 29.5643 64.4197C29.5643 64.7414 29.4598 65.0068 29.2507 65.2159C29.0577 65.4089 28.8003 65.5054 28.4786 65.5054C28.1569 65.5054 27.8915 65.4089 27.6824 65.2159C27.4894 65.0068 27.3929 64.7414 27.3929 64.4197C27.3929 64.098 27.4894 63.8406 27.6824 63.6476C27.8915 63.4385 28.1569 63.334 28.4786 63.334ZM28.4786 73.5398C28.8003 73.5398 29.0577 73.6443 29.2507 73.8534C29.4598 74.0464 29.5643 74.3038 29.5643 74.6255C29.5643 74.9472 29.4598 75.2126 29.2507 75.4217C29.0577 75.6147 28.8003 75.7112 28.4786 75.7112C28.1569 75.7112 27.8915 75.6147 27.6824 75.4217C27.4894 75.2126 27.3929 74.9472 27.3929 74.6255C27.3929 74.3038 27.4894 74.0464 27.6824 73.8534C27.8915 73.6443 28.1569 73.5398 28.4786 73.5398Z" fill="#ABBBC7"/>
<path d="M33.9572 63.334C34.2789 63.334 34.5362 63.4385 34.7292 63.6476C34.9383 63.8406 35.0429 64.098 35.0429 64.4197C35.0429 64.7414 34.9383 65.0068 34.7292 65.2159C34.5362 65.4089 34.2789 65.5054 33.9572 65.5054C33.6355 65.5054 33.3701 65.4089 33.161 65.2159C32.968 65.0068 32.8715 64.7414 32.8715 64.4197C32.8715 64.098 32.968 63.8406 33.161 63.6476C33.3701 63.4385 33.6355 63.334 33.9572 63.334ZM33.9572 73.5398C34.2789 73.5398 34.5362 73.6443 34.7292 73.8534C34.9383 74.0464 35.0429 74.3038 35.0429 74.6255C35.0429 74.9472 34.9383 75.2126 34.7292 75.4217C34.5362 75.6147 34.2789 75.7112 33.9572 75.7112C33.6355 75.7112 33.3701 75.6147 33.161 75.4217C32.968 75.2126 32.8715 74.9472 32.8715 74.6255C32.8715 74.3038 32.968 74.0464 33.161 73.8534C33.3701 73.6443 33.6355 73.5398 33.9572 73.5398Z" fill="#ABBBC7"/>
<path d="M39.4358 63.334C39.7574 63.334 40.0148 63.4385 40.2078 63.6476C40.4169 63.8406 40.5215 64.098 40.5215 64.4197C40.5215 64.7414 40.4169 65.0068 40.2078 65.2159C40.0148 65.4089 39.7574 65.5054 39.4358 65.5054C39.1141 65.5054 38.8487 65.4089 38.6396 65.2159C38.4465 65.0068 38.35 64.7414 38.35 64.4197C38.35 64.098 38.4465 63.8406 38.6396 63.6476C38.8487 63.4385 39.1141 63.334 39.4358 63.334ZM39.4358 73.5398C39.7574 73.5398 40.0148 73.6443 40.2078 73.8534C40.4169 74.0464 40.5215 74.3038 40.5215 74.6255C40.5215 74.9472 40.4169 75.2126 40.2078 75.4217C40.0148 75.6147 39.7574 75.7112 39.4358 75.7112C39.1141 75.7112 38.8487 75.6147 38.6396 75.4217C38.4465 75.2126 38.35 74.9472 38.35 74.6255C38.35 74.3038 38.4465 74.0464 38.6396 73.8534C38.8487 73.6443 39.1141 73.5398 39.4358 73.5398Z" fill="#ABBBC7"/>
<path d="M44.9143 63.334C45.236 63.334 45.4934 63.4385 45.6864 63.6476C45.8955 63.8406 46.0001 64.098 46.0001 64.4197C46.0001 64.7414 45.8955 65.0068 45.6864 65.2159C45.4934 65.4089 45.236 65.5054 44.9143 65.5054C44.5926 65.5054 44.3272 65.4089 44.1181 65.2159C43.9251 65.0068 43.8286 64.7414 43.8286 64.4197C43.8286 64.098 43.9251 63.8406 44.1181 63.6476C44.3272 63.4385 44.5926 63.334 44.9143 63.334ZM44.9143 73.5398C45.236 73.5398 45.4934 73.6443 45.6864 73.8534C45.8955 74.0464 46.0001 74.3038 46.0001 74.6255C46.0001 74.9472 45.8955 75.2126 45.6864 75.4217C45.4934 75.6147 45.236 75.7112 44.9143 75.7112C44.5926 75.7112 44.3272 75.6147 44.1181 75.4217C43.9251 75.2126 43.8286 74.9472 43.8286 74.6255C43.8286 74.3038 43.9251 74.0464 44.1181 73.8534C44.3272 73.6443 44.5926 73.5398 44.9143 73.5398Z" fill="#ABBBC7"/>
</svg>
