<svg width="31" height="31" viewBox="0 0 31 31" fill="none" xmlns="http://www.w3.org/2000/svg">
<path d="M3.87506 19.5872C3.97744 19.3186 4.18015 19.1696 4.44672 19.0795C5.6219 18.6828 6.79465 18.279 7.96897 17.8797C8.48009 17.7059 8.7862 17.841 9.0009 18.3437C9.05375 18.4675 9.106 18.4927 9.21861 18.4213C9.31633 18.3593 9.39365 18.2862 9.45656 18.186C10.5536 16.4385 12.137 15.5845 14.1968 15.6798C15.3017 15.7309 16.284 16.1545 17.1291 16.873C17.2668 16.99 17.4034 17.0378 17.58 17.0351C18.0944 17.0275 18.609 17.0296 19.1235 17.0333C19.8697 17.0387 20.4748 17.3354 20.91 17.9432C21.0255 18.1045 21.1029 18.1231 21.2679 18.0106C22.068 17.465 22.8707 16.9228 23.6838 16.3969C24.8166 15.6643 26.2914 16.0697 26.9051 17.2666C27.0025 17.4567 27.0516 17.6632 27.1242 17.8617C27.1242 18.1341 27.1242 18.4066 27.1242 18.679C26.9713 19.365 26.5704 19.8643 25.9991 20.2634C24.6231 21.2243 23.2525 22.1935 21.8958 23.1815C20.541 24.168 19.0371 24.7068 17.3649 24.7621C15.5598 24.8217 13.7541 24.8645 11.9487 24.916C11.7903 24.9205 11.6323 24.9404 11.4738 24.9443C11.3422 24.9476 11.2868 25.0002 11.2872 25.1374C11.2885 25.513 11.0829 25.7383 10.7397 25.8555C10.468 25.9483 10.1966 26.0422 9.92511 26.1357C8.96796 26.4655 8.01081 26.7952 7.0536 27.125C6.90223 27.125 6.75087 27.125 6.59951 27.125C6.33856 26.9976 6.19477 26.785 6.10298 26.5115C5.63183 25.1078 5.15734 23.7051 4.66941 22.3072C4.40567 21.5515 4.17912 20.7827 3.875 20.0413C3.87506 19.8899 3.87506 19.7386 3.87506 19.5872ZM17.233 19.9394C17.233 19.939 17.233 19.9387 17.233 19.9383C17.8534 19.9383 18.4739 19.9408 19.0943 19.9375C19.5769 19.935 19.8942 19.6395 19.8955 19.2001C19.8969 18.7547 19.5886 18.4607 19.1061 18.4579C18.4554 18.4542 17.8048 18.4552 17.1541 18.4572C16.8831 18.4581 16.6533 18.3732 16.4624 18.1745C14.8134 16.4564 11.7825 16.7732 10.6033 19.0329C10.4988 19.2332 10.3571 19.3923 10.1571 19.5017C10.0179 19.5779 9.89151 19.6796 9.74832 19.746C9.55288 19.8365 9.54586 19.9545 9.61234 20.1433C9.97149 21.1633 10.3249 22.1854 10.6616 23.213C10.7405 23.4541 10.8459 23.543 11.1074 23.5338C13.1402 23.4619 15.1732 23.3951 17.2066 23.3476C18.5216 23.3168 19.7303 22.9668 20.8075 22.2117C22.3253 21.1479 23.8322 20.0686 25.3409 18.9921C25.7644 18.69 25.8554 18.2012 25.5779 17.7988C25.3162 17.4197 24.8114 17.3385 24.3908 17.6179C23.3951 18.2793 22.403 18.9459 21.408 19.6082C21.3091 19.674 21.2457 19.7538 21.2046 19.8676C20.8696 20.7959 20.1079 21.3495 19.1152 21.3593C17.8897 21.3715 16.6639 21.3623 15.4382 21.3626C15.3083 21.3626 15.1809 21.3442 15.06 21.2979C14.7439 21.1767 14.5698 20.8549 14.6288 20.5086C14.6839 20.1851 14.9656 19.9458 15.3264 19.9415C15.9619 19.934 16.5975 19.9394 17.233 19.9394ZM9.65732 24.6373C9.64673 24.601 9.63752 24.5643 9.62529 24.5286C9.06314 22.8838 8.49928 21.2396 7.94064 19.5937C7.88851 19.4402 7.81295 19.4211 7.67121 19.4707C7.00068 19.7052 6.32876 19.936 5.65441 20.1594C5.49112 20.2135 5.4646 20.2927 5.52212 20.4456C5.63649 20.7497 5.73711 21.0589 5.84228 21.3663C6.29231 22.6821 6.74179 23.998 7.19182 25.3138C7.23027 25.4261 7.24237 25.5569 7.42982 25.4913C8.12887 25.2468 8.83137 25.0121 9.53211 24.7722C9.5952 24.7507 9.66767 24.7307 9.65732 24.6373Z" fill="black"/>
<path d="M19.6319 3.875C20.1902 3.97684 20.7456 4.09169 21.262 4.33732C23.2641 5.28963 24.4363 6.85398 24.6865 9.06646C25.0204 12.0199 22.8983 14.9678 19.6178 15.3629C16.5726 15.7295 13.7641 13.6228 13.2577 10.6116C12.7088 7.34784 14.8911 4.38454 18.1837 3.90176C18.2131 3.89746 18.2411 3.88408 18.2697 3.875C18.7238 3.875 19.1779 3.875 19.6319 3.875ZM14.5921 9.61276C14.5865 12.0193 16.5227 13.9813 18.9101 13.9883C21.3337 13.9955 23.2757 12.0648 23.3068 9.66089C23.335 7.48298 21.6288 5.27473 18.9578 5.26505C16.3007 5.25542 14.5404 7.46245 14.5921 9.61276Z" fill="black"/>
<path d="M20.8253 10.9548C20.7846 11.6112 20.4954 12.1182 19.8828 12.4114C19.7454 12.4772 19.6557 12.5447 19.6143 12.7082C19.5324 13.0318 19.2289 13.2448 18.9272 13.2321C18.6091 13.2187 18.3358 13.0037 18.2658 12.6758C18.2346 12.5299 18.1457 12.485 18.0341 12.4301C17.4404 12.1386 17.1074 11.6644 17.0802 10.9991C17.0644 10.6126 17.3293 10.3074 17.6828 10.2659C18.0707 10.2203 18.3844 10.4525 18.4742 10.8504C18.5019 10.9734 18.5001 11.1358 18.6626 11.1519C18.8834 11.1737 19.1205 11.236 19.3224 11.0921C19.4481 11.0026 19.4102 10.8466 19.241 10.7201C18.7501 10.3532 18.2577 9.98801 17.7638 9.62505C17.4873 9.42192 17.2848 9.16406 17.1701 8.84093C16.8862 8.0412 17.2452 7.18988 18.0215 6.82589C18.141 6.76988 18.2363 6.72393 18.2672 6.56657C18.3284 6.25446 18.6096 6.0365 18.9142 6.02494C19.2333 6.01283 19.5268 6.21063 19.6128 6.53073C19.6547 6.68688 19.7302 6.76419 19.874 6.83121C20.4529 7.10112 20.7523 7.57809 20.8153 8.20316C20.8558 8.60493 20.5892 8.93163 20.1947 8.99532C19.8476 9.05133 19.4782 8.8011 19.4228 8.41833C19.3832 8.14485 19.2515 8.07462 19.0123 8.09666C18.9598 8.1015 18.9063 8.09496 18.8535 8.09793C18.7287 8.10507 18.5796 8.0699 18.5206 8.22641C18.4583 8.39151 18.5824 8.47379 18.6941 8.55607C18.822 8.65034 18.9491 8.74576 19.0768 8.84033C19.4296 9.10152 19.7839 9.36059 20.1348 9.6242C20.5742 9.95429 20.796 10.3996 20.8253 10.9548Z" fill="black"/>
</svg>
