<svg width="31" height="31" viewBox="0 0 31 31" fill="none" xmlns="http://www.w3.org/2000/svg">
<path d="M19.9621 18.179C19.9621 18.3821 19.8817 18.5767 19.7386 18.7203C19.5954 18.8638 19.4013 18.9445 19.1989 18.9445H13.0928C12.8904 18.9445 12.6962 18.8638 12.5531 18.7203C12.41 18.5767 12.3295 18.3821 12.3295 18.179C12.3295 17.976 12.41 17.7813 12.5531 17.6378C12.6962 17.4942 12.8904 17.4136 13.0928 17.4136H19.1989C19.4013 17.4136 19.5954 17.4942 19.7386 17.6378C19.8817 17.7813 19.9621 17.976 19.9621 18.179ZM19.1989 14.3519H13.0928C12.8904 14.3519 12.6962 14.4325 12.5531 14.576C12.41 14.7196 12.3295 14.9143 12.3295 15.1173C12.3295 15.3203 12.41 15.515 12.5531 15.6585C12.6962 15.8021 12.8904 15.8827 13.0928 15.8827H19.1989C19.4013 15.8827 19.5954 15.8021 19.7386 15.6585C19.8817 15.515 19.9621 15.3203 19.9621 15.1173C19.9621 14.9143 19.8817 14.7196 19.7386 14.576C19.5954 14.4325 19.4013 14.3519 19.1989 14.3519ZM24.5417 8.22836V24.3025C24.5417 24.7086 24.3808 25.0979 24.0946 25.385C23.8083 25.6721 23.42 25.8334 23.0152 25.8334H9.27652C8.87166 25.8334 8.48338 25.6721 8.19711 25.385C7.91083 25.0979 7.75 24.7086 7.75 24.3025V8.22836C7.75 7.82235 7.91083 7.43296 8.19711 7.14587C8.48338 6.85877 8.87166 6.69748 9.27652 6.69748H12.736C13.1648 6.21595 13.6903 5.83068 14.2779 5.56689C14.8655 5.30311 15.502 5.16675 16.1458 5.16675C16.7896 5.16675 17.4262 5.30311 18.0138 5.56689C18.6014 5.83068 19.1268 6.21595 19.5557 6.69748H23.0152C23.42 6.69748 23.8083 6.85877 24.0946 7.14587C24.3808 7.43296 24.5417 7.82235 24.5417 8.22836ZM13.0928 9.75923H19.1989C19.1989 8.94721 18.8772 8.16844 18.3047 7.59425C17.7321 7.02006 16.9555 6.69748 16.1458 6.69748C15.3361 6.69748 14.5596 7.02006 13.987 7.59425C13.4145 8.16844 13.0928 8.94721 13.0928 9.75923ZM23.0152 8.22836H20.463C20.6366 8.71998 20.7254 9.23769 20.7254 9.75923V10.5247C20.7254 10.7277 20.645 10.9224 20.5018 11.0659C20.3587 11.2095 20.1645 11.2901 19.9621 11.2901H12.3295C12.1271 11.2901 11.933 11.2095 11.7898 11.0659C11.6467 10.9224 11.5663 10.7277 11.5663 10.5247V9.75923C11.5663 9.23769 11.655 8.71998 11.8287 8.22836H9.27652V24.3025H23.0152V8.22836Z" fill="black"/>
</svg>
