<svg width="58" height="58" viewBox="0 0 58 58" fill="none" xmlns="http://www.w3.org/2000/svg">
<path d="M28.994 0C13.0473 0 0 13.0473 0 28.994C0 44.9406 13.0473 57.9879 28.994 57.9879C39.311 57.9879 48.4199 52.5274 53.5543 44.3487C53.6525 44.1933 53.6963 44.0096 53.6789 43.8266C53.6615 43.6436 53.5838 43.4715 53.458 43.3374C53.3322 43.2033 53.1654 43.1148 52.9839 43.0857C52.8023 43.0567 52.6163 43.0887 52.4549 43.1768C51.748 43.5918 51.0038 43.9396 50.232 44.2158C45.7863 45.738 43.3339 45.7984 40.3137 45.6655C36.9431 45.5205 32.8357 44.3608 29.9483 42.6453C27.061 40.9298 24.6932 38.4653 23.4126 36.327C22.1321 34.1887 21.3589 31.5068 21.7092 28.0758C22.0596 24.5724 25.261 21.7213 29.006 21.7213C33.0531 21.7213 36.3512 24.9348 36.3512 28.9819C36.3512 31.0356 35.3726 32.8115 34.1162 34.237C33.8384 34.4907 33.1981 35.4089 34.8169 36.6532C36.7378 38.1271 41.0506 38.8277 44.4695 38.6586C47.8884 38.4895 51.6092 37.1364 54.1583 34.4545C56.1879 32.3162 58 28.8852 58 25.1039C57.9879 9.99084 43.9742 0 28.994 0Z" fill="black"/>
</svg>
