<svg width="31" height="31" viewBox="0 0 31 31" fill="none" xmlns="http://www.w3.org/2000/svg">
<path d="M3.87506 19.587C3.97744 19.3184 4.18015 19.1693 4.44672 19.0793C5.6219 18.6826 6.79465 18.2788 7.96897 17.8795C8.48009 17.7057 8.7862 17.8408 9.0009 18.3435C9.05375 18.4673 9.106 18.4924 9.21861 18.4211C9.31633 18.3591 9.39365 18.2859 9.45656 18.1857C10.5536 16.4382 12.137 15.5843 14.1968 15.6795C15.3017 15.7306 16.284 16.1543 17.1291 16.8728C17.2668 16.9898 17.4034 17.0376 17.58 17.0349C18.0944 17.0273 18.609 17.0294 19.1235 17.0331C19.8697 17.0385 20.4748 17.3352 20.91 17.943C21.0255 18.1042 21.1029 18.1229 21.2679 18.0104C22.068 17.4648 22.8707 16.9226 23.6838 16.3967C24.8166 15.664 26.2914 16.0694 26.9051 17.2664C27.0025 17.4565 27.0516 17.663 27.1242 17.8614C27.1242 18.1339 27.1242 18.4063 27.1242 18.6788C26.9713 19.3648 26.5704 19.8641 25.9991 20.2631C24.6231 21.2241 23.2525 22.1933 21.8958 23.1812C20.541 24.1677 19.0371 24.7066 17.3649 24.7618C15.5598 24.8215 13.7541 24.8642 11.9487 24.9158C11.7903 24.9203 11.6323 24.9402 11.4738 24.9441C11.3422 24.9474 11.2868 25 11.2872 25.1372C11.2885 25.5127 11.0829 25.738 10.7397 25.8552C10.468 25.948 10.1966 26.0419 9.92511 26.1355C8.96796 26.4652 8.01081 26.795 7.0536 27.1248C6.90223 27.1248 6.75087 27.1248 6.59951 27.1248C6.33856 26.9974 6.19477 26.7847 6.10298 26.5112C5.63183 25.1076 5.15734 23.7049 4.66941 22.3069C4.40567 21.5513 4.17912 20.7825 3.875 20.0411C3.87506 19.8897 3.87506 19.7383 3.87506 19.587ZM17.233 19.9392C17.233 19.9388 17.233 19.9384 17.233 19.9381C17.8534 19.9381 18.4739 19.9406 19.0943 19.9373C19.5769 19.9347 19.8942 19.6392 19.8955 19.1998C19.8969 18.7544 19.5886 18.4605 19.1061 18.4577C18.4554 18.4539 17.8048 18.455 17.1541 18.457C16.8831 18.4578 16.6533 18.373 16.4624 18.1742C14.8134 16.4562 11.7825 16.773 10.6033 19.0327C10.4988 19.233 10.3571 19.392 10.1571 19.5015C10.0179 19.5776 9.89151 19.6794 9.74832 19.7457C9.55288 19.8363 9.54586 19.9542 9.61234 20.1431C9.97149 21.163 10.3249 22.1852 10.6616 23.2128C10.7405 23.4538 10.8459 23.5428 11.1074 23.5335C13.1402 23.4616 15.1732 23.3949 17.2066 23.3473C18.5216 23.3166 19.7303 22.9665 20.8075 22.2115C22.3253 21.1477 23.8322 20.0684 25.3409 18.9919C25.7644 18.6898 25.8554 18.2009 25.5779 17.7986C25.3162 17.4194 24.8114 17.3382 24.3908 17.6176C23.3951 18.279 22.403 18.9457 21.408 19.608C21.3091 19.6737 21.2457 19.7536 21.2046 19.8674C20.8696 20.7957 20.1079 21.3492 19.1152 21.3591C17.8897 21.3712 16.6639 21.362 15.4382 21.3623C15.3083 21.3624 15.1809 21.344 15.06 21.2977C14.7439 21.1765 14.5698 20.8547 14.6288 20.5084C14.6839 20.1849 14.9656 19.9455 15.3264 19.9413C15.9619 19.9338 16.5975 19.9392 17.233 19.9392ZM9.65732 24.6371C9.64673 24.6008 9.63752 24.564 9.62529 24.5283C9.06314 22.8836 8.49928 21.2394 7.94064 19.5934C7.88851 19.4399 7.81295 19.4208 7.67121 19.4704C7.00068 19.7049 6.32876 19.9358 5.65441 20.1592C5.49112 20.2132 5.4646 20.2925 5.52212 20.4454C5.63649 20.7494 5.73711 21.0586 5.84228 21.3661C6.29231 22.6818 6.74179 23.9978 7.19182 25.3135C7.23027 25.4258 7.24237 25.5566 7.42982 25.491C8.12887 25.2465 8.83137 25.0118 9.53211 24.772C9.5952 24.7505 9.66767 24.7305 9.65732 24.6371Z" fill="#5A78F6"/>
<path d="M19.6319 3.875C20.1902 3.97684 20.7456 4.09169 21.262 4.33732C23.2641 5.28963 24.4363 6.85398 24.6865 9.06646C25.0204 12.0199 22.8983 14.9678 19.6178 15.3629C16.5726 15.7295 13.7641 13.6228 13.2577 10.6116C12.7088 7.34784 14.8911 4.38454 18.1837 3.90176C18.2131 3.89746 18.2411 3.88408 18.2697 3.875C18.7238 3.875 19.1779 3.875 19.6319 3.875ZM14.5921 9.61276C14.5865 12.0193 16.5227 13.9813 18.9101 13.9883C21.3337 13.9955 23.2757 12.0648 23.3068 9.66089C23.335 7.48298 21.6288 5.27473 18.9578 5.26505C16.3007 5.25542 14.5404 7.46245 14.5921 9.61276Z" fill="#5A78F6"/>
<path d="M20.8253 10.9548C20.7846 11.6112 20.4954 12.1182 19.8828 12.4114C19.7454 12.4772 19.6557 12.5447 19.6143 12.7082C19.5324 13.0318 19.2289 13.2448 18.9272 13.2321C18.6091 13.2187 18.3358 13.0037 18.2658 12.6758C18.2346 12.5299 18.1457 12.485 18.0341 12.4301C17.4404 12.1386 17.1074 11.6644 17.0802 10.9991C17.0644 10.6126 17.3293 10.3074 17.6828 10.2659C18.0707 10.2203 18.3844 10.4525 18.4742 10.8504C18.5019 10.9734 18.5001 11.1358 18.6626 11.1519C18.8834 11.1737 19.1205 11.236 19.3224 11.0921C19.4481 11.0026 19.4102 10.8466 19.241 10.7201C18.7501 10.3532 18.2577 9.98801 17.7638 9.62505C17.4873 9.42192 17.2848 9.16406 17.1701 8.84093C16.8862 8.0412 17.2452 7.18988 18.0215 6.82589C18.141 6.76988 18.2363 6.72393 18.2672 6.56657C18.3284 6.25446 18.6096 6.0365 18.9142 6.02494C19.2333 6.01283 19.5268 6.21063 19.6128 6.53073C19.6547 6.68688 19.7302 6.76419 19.874 6.83121C20.4529 7.10112 20.7523 7.57809 20.8153 8.20316C20.8558 8.60493 20.5892 8.93163 20.1947 8.99532C19.8476 9.05133 19.4782 8.8011 19.4228 8.41833C19.3832 8.14485 19.2515 8.07462 19.0123 8.09666C18.9598 8.1015 18.9063 8.09496 18.8535 8.09793C18.7287 8.10507 18.5796 8.0699 18.5206 8.22641C18.4583 8.39151 18.5824 8.47379 18.6941 8.55607C18.822 8.65034 18.9491 8.74576 19.0768 8.84033C19.4296 9.10152 19.7839 9.36059 20.1348 9.6242C20.5742 9.95429 20.796 10.3996 20.8253 10.9548Z" fill="#5A78F6"/>
</svg>
