<svg width="23" height="24" viewBox="0 0 23 24" fill="none" xmlns="http://www.w3.org/2000/svg">
<path d="M11.2396 14C11.4248 14 11.6059 13.9414 11.7599 13.8315C11.9139 13.7216 12.034 13.5654 12.1049 13.3827C12.1758 13.2 12.1943 12.9989 12.1582 12.8049C12.122 12.6109 12.0328 12.4327 11.9018 12.2929C11.7709 12.153 11.604 12.0578 11.4223 12.0192C11.2406 11.9806 11.0523 12.0004 10.8811 12.0761C10.71 12.1518 10.5637 12.28 10.4608 12.4444C10.3579 12.6089 10.3029 12.8022 10.3029 13C10.3029 13.2652 10.4016 13.5196 10.5773 13.7071C10.7529 13.8946 10.9911 14 11.2396 14ZM15.9227 14C16.1079 14 16.289 13.9414 16.443 13.8315C16.5971 13.7216 16.7171 13.5654 16.788 13.3827C16.8589 13.2 16.8775 12.9989 16.8413 12.8049C16.8052 12.6109 16.716 12.4327 16.585 12.2929C16.454 12.153 16.2871 12.0578 16.1054 12.0192C15.9237 11.9806 15.7354 12.0004 15.5643 12.0761C15.3931 12.1518 15.2468 12.28 15.1439 12.4444C15.041 12.6089 14.9861 12.8022 14.9861 13C14.9861 13.2652 15.0847 13.5196 15.2604 13.7071C15.436 13.8946 15.6743 14 15.9227 14ZM11.2396 18C11.4248 18 11.6059 17.9414 11.7599 17.8315C11.9139 17.7216 12.034 17.5654 12.1049 17.3827C12.1758 17.2 12.1943 16.9989 12.1582 16.8049C12.122 16.6109 12.0328 16.4327 11.9018 16.2929C11.7709 16.153 11.604 16.0578 11.4223 16.0192C11.2406 15.9806 11.0523 16.0004 10.8811 16.0761C10.71 16.1518 10.5637 16.28 10.4608 16.4444C10.3579 16.6089 10.3029 16.8022 10.3029 17C10.3029 17.2652 10.4016 17.5196 10.5773 17.7071C10.7529 17.8946 10.9911 18 11.2396 18ZM15.9227 18C16.1079 18 16.289 17.9414 16.443 17.8315C16.5971 17.7216 16.7171 17.5654 16.788 17.3827C16.8589 17.2 16.8775 16.9989 16.8413 16.8049C16.8052 16.6109 16.716 16.4327 16.585 16.2929C16.454 16.153 16.2871 16.0578 16.1054 16.0192C15.9237 15.9806 15.7354 16.0004 15.5643 16.0761C15.3931 16.1518 15.2468 16.28 15.1439 16.4444C15.041 16.6089 14.9861 16.8022 14.9861 17C14.9861 17.2652 15.0847 17.5196 15.2604 17.7071C15.436 17.8946 15.6743 18 15.9227 18ZM6.55642 14C6.74167 14 6.92276 13.9414 7.07678 13.8315C7.23081 13.7216 7.35086 13.5654 7.42175 13.3827C7.49264 13.2 7.51119 12.9989 7.47505 12.8049C7.43891 12.6109 7.34971 12.4327 7.21872 12.2929C7.08773 12.153 6.92084 12.0578 6.73915 12.0192C6.55746 11.9806 6.36914 12.0004 6.19799 12.0761C6.02684 12.1518 5.88056 12.28 5.77765 12.4444C5.67473 12.6089 5.6198 12.8022 5.6198 13C5.6198 13.2652 5.71848 13.5196 5.89413 13.7071C6.06978 13.8946 6.30801 14 6.55642 14ZM17.7959 4H16.8593V3C16.8593 2.73478 16.7606 2.48043 16.585 2.29289C16.4093 2.10536 16.1711 2 15.9227 2C15.6743 2 15.436 2.10536 15.2604 2.29289C15.0847 2.48043 14.9861 2.73478 14.9861 3V4H7.49305V3C7.49305 2.73478 7.39437 2.48043 7.21872 2.29289C7.04307 2.10536 6.80483 2 6.55642 2C6.30801 2 6.06978 2.10536 5.89413 2.29289C5.71848 2.48043 5.6198 2.73478 5.6198 3V4H4.68317C3.93794 4 3.22324 4.31607 2.69629 4.87868C2.16933 5.44129 1.87329 6.20435 1.87329 7V19C1.87329 19.7956 2.16933 20.5587 2.69629 21.1213C3.22324 21.6839 3.93794 22 4.68317 22H17.7959C18.5412 22 19.2559 21.6839 19.7828 21.1213C20.3098 20.5587 20.6058 19.7956 20.6058 19V7C20.6058 6.20435 20.3098 5.44129 19.7828 4.87868C19.2559 4.31607 18.5412 4 17.7959 4ZM18.7326 19C18.7326 19.2652 18.6339 19.5196 18.4582 19.7071C18.2826 19.8946 18.0443 20 17.7959 20H4.68317C4.43476 20 4.19653 19.8946 4.02088 19.7071C3.84522 19.5196 3.74654 19.2652 3.74654 19V10H18.7326V19ZM18.7326 8H3.74654V7C3.74654 6.73478 3.84522 6.48043 4.02088 6.29289C4.19653 6.10536 4.43476 6 4.68317 6H17.7959C18.0443 6 18.2826 6.10536 18.4582 6.29289C18.6339 6.48043 18.7326 6.73478 18.7326 7V8ZM6.55642 18C6.74167 18 6.92276 17.9414 7.07678 17.8315C7.23081 17.7216 7.35086 17.5654 7.42175 17.3827C7.49264 17.2 7.51119 16.9989 7.47505 16.8049C7.43891 16.6109 7.34971 16.4327 7.21872 16.2929C7.08773 16.153 6.92084 16.0578 6.73915 16.0192C6.55746 15.9806 6.36914 16.0004 6.19799 16.0761C6.02684 16.1518 5.88056 16.28 5.77765 16.4444C5.67473 16.6089 5.6198 16.8022 5.6198 17C5.6198 17.2652 5.71848 17.5196 5.89413 17.7071C6.06978 17.8946 6.30801 18 6.55642 18Z" fill="#202127"/>
</svg>
