<svg width="31" height="31" viewBox="0 0 31 31" fill="none" xmlns="http://www.w3.org/2000/svg">
<path d="M13.2396 19.375H15.1771V16.4687H18.0833V14.5312H15.1771V11.625H13.2396V14.5312H10.3333V16.4687H13.2396V19.375ZM8.39581 23.25C7.863 23.25 7.40704 23.0604 7.02794 22.6813C6.64883 22.3022 6.45896 21.846 6.45831 21.3125V9.6875C6.45831 9.15469 6.64819 8.69873 7.02794 8.31962C7.40769 7.94052 7.86365 7.75065 8.39581 7.75H20.0208C20.5536 7.75 21.0099 7.93987 21.3897 8.31962C21.7694 8.69937 21.959 9.15533 21.9583 9.6875V14.0469L25.8333 10.1719V20.8281L21.9583 16.9531V21.3125C21.9583 21.8453 21.7688 22.3016 21.3897 22.6813C21.0106 23.0611 20.5543 23.2506 20.0208 23.25H8.39581ZM8.39581 21.3125H20.0208V9.6875H8.39581V21.3125Z" fill="black"/>
</svg>
