<svg width="31" height="31" viewBox="0 0 31 31" fill="none" xmlns="http://www.w3.org/2000/svg">
<path d="M25.2999 15.1202L17.1624 6.98267C16.8369 6.65717 16.3848 6.45825 15.8875 6.45825H9.55833C8.56375 6.45825 7.75 7.272 7.75 8.26659V14.5958C7.75 15.093 7.94892 15.5451 8.28346 15.8797L16.421 24.0172C16.7465 24.3427 17.1985 24.5416 17.6958 24.5416C18.1931 24.5416 18.6452 24.3427 18.9707 24.0081L25.2999 17.679C25.6344 17.3535 25.8333 16.9014 25.8333 16.4041C25.8333 15.9068 25.6254 15.4457 25.2999 15.1202ZM17.6958 22.7423L9.55833 14.5958V8.26659H15.8875V8.25754L24.025 16.395L17.6958 22.7423Z" fill="black"/>
<path d="M11.8187 11.8834C12.5677 11.8834 13.175 11.2762 13.175 10.5271C13.175 9.77811 12.5677 9.1709 11.8187 9.1709C11.0697 9.1709 10.4625 9.77811 10.4625 10.5271C10.4625 11.2762 11.0697 11.8834 11.8187 11.8834Z" fill="black"/>
</svg>
