<svg width="25" height="25" viewBox="0 0 25 25" fill="none" xmlns="http://www.w3.org/2000/svg">
<path d="M22.4278 21.3224L17.5382 16.4337C18.9554 14.7322 19.6621 12.5499 19.5113 10.3407C19.3604 8.13143 18.3637 6.06539 16.7284 4.57234C15.093 3.07929 12.9451 2.27418 10.7313 2.32449C8.51745 2.3748 6.40827 3.27666 4.84247 4.84247C3.27666 6.40827 2.3748 8.51745 2.32449 10.7313C2.27418 12.9451 3.07929 15.093 4.57234 16.7284C6.06539 18.3637 8.13143 19.3604 10.3407 19.5113C12.5499 19.6621 14.7322 18.9554 16.4337 17.5382L21.3224 22.4278C21.395 22.5004 21.4811 22.558 21.576 22.5973C21.6708 22.6366 21.7724 22.6568 21.8751 22.6568C21.9778 22.6568 22.0794 22.6366 22.1742 22.5973C22.2691 22.558 22.3552 22.5004 22.4278 22.4278C22.5004 22.3552 22.558 22.2691 22.5973 22.1742C22.6366 22.0794 22.6568 21.9778 22.6568 21.8751C22.6568 21.7724 22.6366 21.6708 22.5973 21.576C22.558 21.4811 22.5004 21.395 22.4278 21.3224ZM3.90635 10.9376C3.90635 9.54695 4.31873 8.18753 5.09133 7.03125C5.86393 5.87496 6.96206 4.97375 8.24686 4.44157C9.53165 3.90939 10.9454 3.77015 12.3093 4.04145C13.6733 4.31276 14.9261 4.98242 15.9094 5.96576C16.8928 6.94909 17.5624 8.20194 17.8337 9.56587C18.1051 10.9298 17.9658 12.3436 17.4336 13.6283C16.9015 14.9131 16.0002 16.0113 14.844 16.7839C13.6877 17.5565 12.3283 17.9689 10.9376 17.9689C9.07343 17.9668 7.28621 17.2253 5.96804 15.9072C4.64987 14.589 3.90842 12.8018 3.90635 10.9376Z" fill="black"/>
</svg>
