<svg width="31" height="31" viewBox="0 0 31 31" fill="none" xmlns="http://www.w3.org/2000/svg">
<path d="M3.87506 23.7203C4.21088 22.7341 4.80671 22.2557 5.70706 22.2515C6.10064 22.2497 6.49423 22.2512 6.95727 22.2512C6.01309 22.0456 5.29639 21.5997 4.78746 20.8505C4.27319 20.0933 4.10849 19.2553 4.2787 18.3606C4.56741 16.8428 5.9538 15.5986 7.7881 15.7108C9.28246 15.8021 10.6423 17.1098 10.7851 18.6437C10.953 20.4483 9.74907 21.9166 8.12846 22.2514C8.53483 22.2514 8.94125 22.2487 9.34762 22.2519C10.3525 22.2598 11.1469 23.0524 11.1564 24.0555C11.1588 24.3128 11.1615 24.5703 11.1553 24.8275C11.1452 25.2494 10.8309 25.5525 10.4128 25.5518C10.0012 25.551 9.68319 25.2396 9.67344 24.8219C9.6683 24.6026 9.67702 24.3828 9.66975 24.1635C9.66043 23.8825 9.52618 23.7404 9.24631 23.7392C8.08832 23.7342 6.93026 23.7343 5.77227 23.739C5.49095 23.7402 5.35652 23.8809 5.34659 24.161C5.33933 24.3651 5.34593 24.5697 5.34375 24.774C5.33969 25.1632 5.12885 25.4506 4.78812 25.5346C4.446 25.6189 4.1189 25.4685 3.92714 25.138C3.90818 25.1053 3.89232 25.0709 3.875 25.0372C3.87506 24.5983 3.87506 24.1593 3.87506 23.7203ZM5.71002 18.9877C5.7145 19.9665 6.54146 20.8023 7.49806 20.795C8.48814 20.7874 9.32085 19.9522 9.3048 18.9827C9.28858 18.003 8.46919 17.1959 7.49412 17.199C6.53989 17.2021 5.70566 18.0385 5.71002 18.9877Z" fill="#5A78F6"/>
<path d="M27.125 25.0361C26.9727 25.3682 26.7336 25.5687 26.3486 25.5502C25.9835 25.5326 25.6745 25.2312 25.659 24.8637C25.6491 24.6295 25.6612 24.3943 25.6533 24.16C25.6439 23.88 25.5085 23.7391 25.2275 23.7379C24.0695 23.7332 22.9115 23.7332 21.7535 23.7381C21.4732 23.7393 21.3393 23.8813 21.3302 24.1624C21.3229 24.3892 21.3332 24.6167 21.3255 24.8435C21.3118 25.2513 20.9975 25.5494 20.589 25.5507C20.1863 25.5519 19.8498 25.2475 19.8477 24.8491C19.8456 24.4569 19.7975 24.0609 19.8859 23.6725C20.0767 22.8334 20.795 22.2571 21.6525 22.2508C22.0611 22.2478 22.4699 22.2503 22.9455 22.2503C22.0309 22.0547 21.3298 21.6298 20.8187 20.9182C20.3048 20.2029 20.1131 19.3991 20.2332 18.5313C20.4638 16.8661 21.9392 15.6208 23.711 15.7056C25.2155 15.7776 26.5819 17.0287 26.7619 18.6049C26.9602 20.3409 25.833 21.8833 24.0488 22.25C24.4877 22.25 24.8677 22.2492 25.2477 22.2502C26.1595 22.2524 26.8124 22.7362 27.0879 23.6122C27.0992 23.6482 27.1126 23.6836 27.125 23.7192C27.125 24.1581 27.125 24.5971 27.125 25.0361ZM25.2884 18.9915C25.2866 18.0208 24.4705 17.208 23.4876 17.198C22.5409 17.1883 21.7021 18.0199 21.6936 18.9767C21.6849 19.9466 22.5082 20.788 23.4719 20.794C24.4521 20.8002 25.2902 19.9686 25.2884 18.9915Z" fill="#5A78F6"/>
<path d="M12.1218 11.7151C12.5456 11.7151 12.9695 11.7105 13.3932 11.7161C14.3392 11.7285 15.1399 12.5287 15.1547 13.4741C15.159 13.7464 15.1607 14.0191 15.1543 14.2913C15.1445 14.713 14.8296 15.0159 14.4114 15.015C13.9999 15.0141 13.6823 14.7025 13.6725 14.2847C13.6674 14.0653 13.6762 13.8456 13.6688 13.6264C13.6594 13.3456 13.5251 13.2036 13.2451 13.2024C12.0873 13.1975 10.9293 13.1975 9.77147 13.2022C9.49008 13.2034 9.35499 13.344 9.34573 13.624C9.33767 13.8659 9.3519 14.1088 9.33816 14.3503C9.31769 14.7108 9.01408 14.9969 8.65277 15.0143C8.2745 15.0325 7.90756 14.7834 7.8771 14.4288C7.83974 13.9938 7.80795 13.5502 7.90641 13.118C8.09412 12.2937 8.8182 11.7216 9.66435 11.7151C10.073 11.7121 10.4817 11.7146 10.9577 11.7146C10.0128 11.5097 9.29444 11.0628 8.78484 10.311C8.27638 9.56089 8.11192 8.73115 8.2742 7.84334C8.55171 6.32542 9.9392 5.07079 11.7668 5.17239C13.2672 5.25583 14.6424 6.56708 14.7844 8.10867C14.9508 9.91391 13.7462 11.3808 12.1218 11.7151ZM9.70922 8.45757C9.72278 9.44166 10.5533 10.2862 11.5038 10.2549C12.5734 10.2197 13.297 9.42828 13.2978 8.43923C13.2986 7.45272 12.4566 6.6501 11.4864 6.66215C10.5272 6.67402 9.6962 7.51351 9.70922 8.45757Z" fill="#5A78F6"/>
<path d="M18.9361 11.7153C17.1119 11.3278 16.0363 9.77533 16.2275 8.07231C16.4053 6.48918 17.7817 5.2363 19.2981 5.17C21.0161 5.09485 22.519 6.28379 22.7604 8.01478C22.979 9.58253 22.0392 11.2829 20.1 11.7153C20.5245 11.7153 20.9405 11.712 21.3563 11.716C22.3333 11.7254 23.1333 12.5203 23.1458 13.4924C23.1492 13.7573 23.1511 14.0223 23.1453 14.287C23.136 14.7107 22.8244 15.0148 22.407 15.0155C21.9949 15.0164 21.674 14.7057 21.6635 14.2901C21.6581 14.0784 21.6653 13.8663 21.6606 13.6545C21.6537 13.3443 21.5224 13.2032 21.2181 13.2021C20.0678 13.1981 18.9174 13.1979 17.7671 13.2026C17.4756 13.2038 17.3435 13.3463 17.3358 13.6423C17.33 13.8617 17.3387 14.0814 17.3321 14.3007C17.3193 14.7197 17.0007 15.0197 16.5803 15.0155C16.1801 15.0115 15.853 14.7024 15.8533 14.2991C15.8536 13.907 15.8036 13.5113 15.8945 13.1229C16.0874 12.2983 16.8064 11.7226 17.6503 11.7158C18.0589 11.7126 18.4677 11.7153 18.9361 11.7153ZM17.6999 8.4513C17.7042 9.42994 18.5311 10.2659 19.4878 10.2588C20.4777 10.2514 21.3105 9.41625 21.2946 8.4467C21.2786 7.46703 20.4593 6.65981 19.4841 6.66278C18.53 6.66569 17.6957 7.50203 17.6999 8.4513Z" fill="#5A78F6"/>
<path d="M14.8941 22.2521C13.2073 21.8972 12.0399 20.3999 12.2285 18.619C12.3972 17.0257 13.7924 15.7638 15.3368 15.7061C16.9979 15.644 18.5403 16.7985 18.767 18.5877C18.9811 20.278 17.902 21.865 16.0679 22.2525C16.5345 22.2525 16.9539 22.2486 17.3731 22.2533C18.3344 22.2641 19.1349 23.062 19.1485 24.0209C19.1524 24.2933 19.1549 24.5659 19.1476 24.8382C19.1362 25.2572 18.8161 25.5569 18.3956 25.5526C17.9955 25.5484 17.678 25.2392 17.6667 24.8355C17.6603 24.6086 17.6705 24.3812 17.662 24.1544C17.6519 23.8852 17.5187 23.7419 17.2519 23.7406C16.0864 23.7349 14.9208 23.7349 13.7553 23.7404C13.4782 23.7417 13.3472 23.887 13.3389 24.1714C13.3325 24.3907 13.3412 24.6105 13.3352 24.8298C13.3239 25.2513 13.0096 25.5538 12.591 25.5525C12.1798 25.5512 11.8543 25.2392 11.8555 24.8212C11.8565 24.4441 11.8083 24.0634 11.8917 23.6898C12.0823 22.836 12.7983 22.2584 13.6683 22.2526C14.0767 22.2498 14.4854 22.2521 14.8941 22.2521ZM15.5218 17.2004C14.5758 17.2197 13.7427 17.8916 13.7122 18.9536C13.6838 19.9432 14.4118 20.7572 15.4558 20.7859C16.4334 20.8128 17.2652 20.0973 17.2883 19.0185C17.3088 18.066 16.6045 17.2617 15.5218 17.2004Z" fill="#5A78F6"/>
<path d="M11.5047 16.1053C11.0844 16.1062 10.7589 15.7797 10.7605 15.3589C10.7621 14.9314 11.0803 14.6188 11.5106 14.622C11.9243 14.625 12.2409 14.9419 12.2438 15.3557C12.2467 15.7835 11.9304 16.1044 11.5047 16.1053Z" fill="#5A78F6"/>
</svg>
