<svg width="31" height="31" viewBox="0 0 31 31" fill="none" xmlns="http://www.w3.org/2000/svg">
<path d="M22.9921 6.45825H8.00798C6.44132 6.45825 5.16669 7.73264 5.16669 9.29954V18.4695C5.16669 20.0329 6.43577 21.3052 7.99788 21.3108V25.472L13.978 21.3108H22.9921C24.5587 21.3108 25.8334 20.0361 25.8334 18.4695V9.29954C25.8334 7.73264 24.5587 6.45825 22.9921 6.45825ZM24.6224 18.4695C24.6224 19.3684 23.8911 20.0998 22.9921 20.0998H13.5981L9.20882 23.1542V20.0998H8.00798C7.10898 20.0998 6.37762 19.3684 6.37762 18.4695V9.29954C6.37762 8.40042 7.10898 7.66919 8.00798 7.66919H22.9921C23.8911 7.66919 24.6224 8.40042 24.6224 9.29954V18.4695Z" fill="black"/>
<path d="M10.6979 10.7395H20.3019V11.9504H10.6979V10.7395Z" fill="black"/>
<path d="M10.6979 13.3237H20.3019V14.5347H10.6979V13.3237Z" fill="black"/>
<path d="M10.6979 15.9045H20.3019V17.1155H10.6979V15.9045Z" fill="black"/>
</svg>
