<svg width="31" height="31" viewBox="0 0 31 31" fill="none" xmlns="http://www.w3.org/2000/svg">
<path d="M3.87506 23.7204C4.21088 22.7342 4.80671 22.2558 5.70706 22.2516C6.10064 22.2498 6.49423 22.2513 6.95727 22.2513C6.01309 22.0458 5.29639 21.5999 4.78746 20.8506C4.27319 20.0934 4.10849 19.2554 4.2787 18.3608C4.56741 16.843 5.9538 15.5987 7.7881 15.7109C9.28246 15.8023 10.6423 17.1099 10.7851 18.6438C10.953 20.4485 9.74907 21.9167 8.12846 22.2515C8.53483 22.2515 8.94125 22.2489 9.34762 22.2521C10.3525 22.2599 11.1469 23.0525 11.1564 24.0556C11.1588 24.3129 11.1615 24.5704 11.1553 24.8276C11.1452 25.2495 10.8309 25.5526 10.4128 25.5519C10.0012 25.5512 9.68319 25.2397 9.67344 24.8221C9.6683 24.6027 9.67702 24.3829 9.66975 24.1636C9.66043 23.8826 9.52618 23.7405 9.24631 23.7393C8.08832 23.7344 6.93026 23.7344 5.77227 23.7392C5.49095 23.7403 5.35652 23.881 5.34659 24.1611C5.33933 24.3653 5.34593 24.5698 5.34375 24.7742C5.33969 25.1633 5.12885 25.4507 4.78812 25.5347C4.446 25.619 4.1189 25.4686 3.92714 25.1381C3.90818 25.1054 3.89232 25.071 3.875 25.0373C3.87506 24.5984 3.87506 24.1594 3.87506 23.7204ZM5.71002 18.9878C5.7145 19.9666 6.54146 20.8024 7.49806 20.7951C8.48814 20.7876 9.32085 19.9523 9.3048 18.9829C9.28858 18.0031 8.46919 17.196 7.49412 17.1991C6.53989 17.2022 5.70566 18.0386 5.71002 18.9878Z" fill="black"/>
<path d="M27.1249 25.0362C26.9726 25.3684 26.7335 25.5689 26.3486 25.5503C25.9834 25.5327 25.6744 25.2313 25.6589 24.8639C25.6491 24.6296 25.6611 24.3945 25.6532 24.1601C25.6438 23.8801 25.5085 23.7392 25.2274 23.7381C24.0694 23.7333 22.9114 23.7333 21.7534 23.7383C21.4732 23.7395 21.3392 23.8815 21.3301 24.1625C21.3228 24.3894 21.3331 24.6168 21.3255 24.8436C21.3117 25.2514 20.9974 25.5495 20.589 25.5508C20.1862 25.552 19.8498 25.2476 19.8477 24.8492C19.8455 24.4571 19.7975 24.0611 19.8858 23.6726C20.0767 22.8335 20.7949 22.2572 21.6524 22.2509C22.0611 22.2479 22.4698 22.2504 22.9454 22.2504C22.0308 22.0548 21.3297 21.6299 20.8186 20.9184C20.3048 20.203 20.1131 19.3992 20.2332 18.5314C20.4637 16.8662 21.9392 15.6209 23.7109 15.7057C25.2154 15.7777 26.5818 17.0289 26.7618 18.605C26.9601 20.341 25.833 21.8834 24.0487 22.2501C24.4876 22.2501 24.8676 22.2493 25.2477 22.2503C26.1594 22.2525 26.8124 22.7363 27.0878 23.6124C27.0992 23.6483 27.1125 23.6837 27.125 23.7193C27.1249 24.1582 27.1249 24.5972 27.1249 25.0362ZM25.2884 18.9916C25.2865 18.0209 24.4704 17.2082 23.4875 17.1981C22.5409 17.1884 21.7021 18.02 21.6935 18.9768C21.6849 19.9467 22.5081 20.7881 23.4718 20.7942C24.4521 20.8003 25.2902 19.9687 25.2884 18.9916Z" fill="black"/>
<path d="M12.1218 11.7152C12.5457 11.7152 12.9695 11.7106 13.3933 11.7162C14.3393 11.7286 15.1399 12.5288 15.1548 13.4742C15.1591 13.7465 15.1608 14.0192 15.1544 14.2914C15.1446 14.7131 14.8297 15.0161 14.4114 15.0151C13.9999 15.0142 13.6823 14.7026 13.6726 14.2848C13.6675 14.0655 13.6762 13.8457 13.6689 13.6265C13.6595 13.3457 13.5252 13.2037 13.2452 13.2025C12.0873 13.1976 10.9294 13.1976 9.77153 13.2024C9.49014 13.2035 9.35505 13.3442 9.34579 13.6241C9.33773 13.866 9.35196 14.1089 9.33822 14.3504C9.31775 14.7109 9.01415 14.9971 8.65283 15.0144C8.27457 15.0326 7.90762 14.7835 7.87716 14.4289C7.8398 13.9939 7.80801 13.5503 7.90647 13.1181C8.09418 12.2938 8.81826 11.7217 9.66441 11.7153C10.0731 11.7122 10.4817 11.7147 10.9578 11.7147C10.0129 11.5098 9.2945 11.0629 8.7849 10.3111C8.27644 9.56101 8.11198 8.73127 8.27426 7.84346C8.55177 6.32554 9.93926 5.07091 11.7669 5.17252C13.2673 5.25596 14.6424 6.56721 14.7845 8.1088C14.9509 9.91403 13.7463 11.3809 12.1218 11.7152ZM9.70928 8.4577C9.72284 9.44178 10.5533 10.2864 11.5039 10.2551C12.5734 10.2198 13.2971 9.4284 13.2979 8.43935C13.2987 7.45284 12.4567 6.65022 11.4865 6.66227C10.5273 6.67414 9.69626 7.51363 9.70928 8.4577Z" fill="black"/>
<path d="M18.9361 11.7154C17.1119 11.3279 16.0363 9.77545 16.2275 8.07243C16.4053 6.4893 17.7817 5.23642 19.2981 5.17012C21.0161 5.09497 22.519 6.28391 22.7604 8.0149C22.979 9.58265 22.0392 11.2831 20.1 11.7155C20.5245 11.7155 20.9405 11.7121 21.3563 11.7161C22.3333 11.7255 23.1333 12.5204 23.1458 13.4925C23.1492 13.7574 23.1511 14.0224 23.1453 14.2872C23.136 14.7108 22.8244 15.0149 22.407 15.0157C21.9949 15.0165 21.674 14.7058 21.6635 14.2903C21.6581 14.0785 21.6653 13.8664 21.6606 13.6546C21.6537 13.3444 21.5224 13.2033 21.2181 13.2023C20.0678 13.1983 18.9174 13.198 17.7671 13.2027C17.4756 13.2039 17.3435 13.3464 17.3358 13.6425C17.33 13.8618 17.3387 14.0815 17.3321 14.3008C17.3193 14.7199 17.0007 15.0198 16.5803 15.0156C16.1801 15.0116 15.853 14.7025 15.8533 14.2992C15.8536 13.9071 15.8036 13.5114 15.8945 13.123C16.0874 12.2984 16.8064 11.7227 17.6503 11.7159C18.0589 11.7127 18.4677 11.7154 18.9361 11.7154ZM17.6999 8.45142C17.7042 9.43006 18.5311 10.266 19.4878 10.2589C20.4777 10.2516 21.3105 9.41638 21.2946 8.44682C21.2786 7.46715 20.4593 6.65994 19.4841 6.6629C18.53 6.66581 17.6957 7.50215 17.6999 8.45142Z" fill="black"/>
<path d="M14.8941 22.2523C13.2073 21.8973 12.0399 20.4 12.2285 18.6192C12.3972 17.0259 13.7924 15.764 15.3368 15.7062C16.9979 15.6441 18.5403 16.7987 18.767 18.5878C18.9811 20.2782 17.902 21.8651 16.0679 22.2526C16.5345 22.2526 16.9539 22.2487 17.3731 22.2534C18.3344 22.2642 19.1349 23.0621 19.1485 24.021C19.1524 24.2934 19.1549 24.5661 19.1476 24.8383C19.1362 25.2573 18.8161 25.5571 18.3956 25.5527C17.9955 25.5485 17.678 25.2393 17.6667 24.8356C17.6603 24.6088 17.6705 24.3813 17.662 24.1546C17.6519 23.8853 17.5187 23.742 17.2519 23.7407C16.0864 23.7351 14.9208 23.7351 13.7553 23.7405C13.4782 23.7418 13.3472 23.8871 13.3389 24.1715C13.3325 24.3908 13.3412 24.6106 13.3352 24.8299C13.3239 25.2514 13.0096 25.5539 12.591 25.5526C12.1798 25.5514 11.8543 25.2393 11.8555 24.8214C11.8565 24.4442 11.8083 24.0635 11.8917 23.6899C12.0823 22.8361 12.7983 22.2586 13.6683 22.2527C14.0767 22.25 14.4854 22.2523 14.8941 22.2523ZM15.5218 17.2005C14.5758 17.2199 13.7427 17.8917 13.7122 18.9538C13.6838 19.9434 14.4118 20.7573 15.4558 20.786C16.4334 20.8129 17.2652 20.0974 17.2883 19.0186C17.3088 18.0661 16.6045 17.2618 15.5218 17.2005Z" fill="black"/>
<path d="M11.5047 16.1054C11.0844 16.1063 10.7589 15.7798 10.7605 15.3591C10.7621 14.9315 11.0803 14.6189 11.5106 14.6221C11.9243 14.6251 12.2409 14.942 12.2438 15.3558C12.2467 15.7837 11.9304 16.1045 11.5047 16.1054Z" fill="black"/>
</svg>
