<svg width="31" height="31" viewBox="0 0 31 31" fill="none" xmlns="http://www.w3.org/2000/svg">
<path d="M24.5444 15.4766V14.2707L26.0576 12.9467C26.3365 12.7008 26.5196 12.3643 26.5744 11.9965C26.6292 11.6287 26.5522 11.2534 26.3571 10.9369L24.4971 7.78441C24.3589 7.54503 24.1601 7.3462 23.9208 7.20786C23.6815 7.06953 23.41 6.99656 23.1336 6.99628C22.9623 6.99497 22.7919 7.02159 22.6292 7.07509L20.7141 7.72136C20.3838 7.50092 20.0389 7.30342 19.6816 7.13026L19.2797 5.14418C19.2076 4.78133 19.0102 4.45538 18.722 4.22341C18.4339 3.99143 18.0733 3.8682 17.7034 3.87529H14.015C13.6451 3.8682 13.2845 3.99143 12.9963 4.22341C12.7082 4.45538 12.5108 4.78133 12.4387 5.14418L12.0368 7.13026C11.6773 7.30417 11.3298 7.50163 10.9964 7.72136L9.12068 7.04357C8.95619 7.00071 8.78586 6.98474 8.61628 6.99628C8.33986 6.99656 8.06838 7.06953 7.82906 7.20786C7.58975 7.3462 7.39102 7.54503 7.25281 7.78441L5.39283 10.9369C5.20887 11.253 5.14051 11.6231 5.19946 11.984C5.25841 12.3449 5.441 12.6741 5.71596 12.9151L7.20553 14.2786V15.4844L5.71596 16.8085C5.43323 17.0512 5.24565 17.3863 5.18649 17.7542C5.12734 18.1221 5.20044 18.4991 5.39283 18.8182L7.25281 21.9707C7.39102 22.2101 7.58975 22.409 7.82906 22.5473C8.06838 22.6856 8.33986 22.7586 8.61628 22.7589C8.78758 22.7602 8.95794 22.7336 9.12068 22.6801L11.0358 22.0338C11.366 22.2542 11.711 22.4517 12.0683 22.6249L12.4702 24.611C12.5423 24.9738 12.7397 25.2998 13.0279 25.5317C13.316 25.7637 13.6766 25.8869 14.0465 25.8799H17.7665C18.1363 25.8869 18.4969 25.7637 18.7851 25.5317C19.0732 25.2998 19.2706 24.9738 19.3427 24.611L19.7447 22.6249C20.1041 22.451 20.4516 22.2535 20.785 22.0338L22.6923 22.6801C22.855 22.7336 23.0254 22.7602 23.1967 22.7589C23.4731 22.7586 23.7446 22.6856 23.9839 22.5473C24.2232 22.409 24.4219 22.2101 24.5601 21.9707L26.3571 18.8182C26.541 18.5022 26.6094 18.132 26.5504 17.7711C26.4915 17.4102 26.3089 17.0811 26.0339 16.84L24.5444 15.4766ZM23.1336 21.1826L20.4303 20.2684C19.7971 20.8038 19.074 21.2228 18.2945 21.5057L17.7349 24.3351H14.015L13.4554 21.5373C12.682 21.2464 11.9628 20.8281 11.3274 20.2999L8.61628 21.1826L6.75629 18.0301L8.9 16.1386C8.75428 15.3228 8.75428 14.4876 8.9 13.6717L6.75629 11.7251L8.61628 8.57254L11.3196 9.48677C11.9528 8.95131 12.6759 8.53237 13.4554 8.24941L14.015 5.42002H17.7349L18.2945 8.21788C19.0679 8.50879 19.7871 8.92701 20.4225 9.45524L23.1336 8.57254L24.9936 11.7251L22.8499 13.6166C22.9956 14.4324 22.9956 15.2676 22.8499 16.0834L24.9936 18.0301L23.1336 21.1826Z" fill="black"/>
<path d="M15.8748 19.6064C14.9395 19.6064 14.0252 19.329 13.2476 18.8094C12.47 18.2898 11.8639 17.5513 11.506 16.6872C11.148 15.8231 11.0544 14.8723 11.2369 13.955C11.4193 13.0377 11.8697 12.1952 12.531 11.5338C13.1924 10.8725 14.0349 10.4221 14.9522 10.2397C15.8695 10.0572 16.8203 10.1509 17.6844 10.5088C18.5485 10.8667 19.287 11.4728 19.8066 12.2504C20.3262 13.0281 20.6035 13.9423 20.6035 14.8776C20.6099 15.5003 20.4919 16.1181 20.2565 16.6947C20.0211 17.2712 19.673 17.795 19.2326 18.2354C18.7922 18.6758 18.2684 19.0239 17.6919 19.2593C17.1153 19.4947 16.4975 19.6127 15.8748 19.6064ZM15.8748 11.7251C15.4581 11.7154 15.0438 11.7903 14.657 11.9453C14.2701 12.1003 13.9187 12.3321 13.624 12.6268C13.3293 12.9215 13.0974 13.2729 12.9425 13.6598C12.7875 14.0466 12.7126 14.4609 12.7223 14.8776C12.7126 15.2942 12.7875 15.7085 12.9425 16.0954C13.0974 16.4823 13.3293 16.8337 13.624 17.1284C13.9187 17.4231 14.2701 17.6549 14.657 17.8099C15.0438 17.9649 15.4581 18.0398 15.8748 18.0301C16.2914 18.0398 16.7057 17.9649 17.0926 17.8099C17.4794 17.6549 17.8309 17.4231 18.1256 17.1284C18.4202 16.8337 18.6521 16.4823 18.8071 16.0954C18.9621 15.7085 19.037 15.2942 19.0273 14.8776C19.037 14.4609 18.9621 14.0466 18.8071 13.6598C18.6521 13.2729 18.4202 12.9215 18.1256 12.6268C17.8309 12.3321 17.4794 12.1003 17.0926 11.9453C16.7057 11.7903 16.2914 11.7154 15.8748 11.7251Z" fill="black"/>
</svg>
