<svg width="24" height="24" viewBox="0 0 24 24" fill="none" xmlns="http://www.w3.org/2000/svg">
<path d="M12 24C5.36471 24 0 18.6353 0 12C0 5.36471 5.36471 0 12 0C18.6353 0 24 5.36471 24 12C24 18.6353 18.5647 24 12 24ZM12 1.41176C6.14118 1.41176 1.41176 6.14118 1.41176 12C1.41176 17.8588 6.14118 22.5882 12 22.5882C17.8588 22.5882 22.5882 17.8588 22.5882 12C22.5882 6.14118 17.7882 1.41176 12 1.41176Z" fill="black"/>
<path d="M5.08211 20.6823L3.81152 20.1176C4.16446 19.2705 5.29388 18.7764 6.49388 18.2117C7.69388 17.647 9.17623 17.0117 9.17623 16.2353V15.1764C8.7527 14.8235 8.04682 14.047 7.90564 12.9176C7.5527 12.5647 6.98799 11.9294 6.98799 11.0823C6.98799 10.5882 7.19976 10.1647 7.34094 9.88231C7.19976 9.3176 7.05858 8.25878 7.05858 7.41172C7.05858 4.65878 8.96446 2.82349 11.9998 2.82349C12.8468 2.82349 13.9056 3.03525 14.4703 3.67055C15.8115 3.9529 16.9409 5.50584 16.9409 7.41172C16.9409 8.61172 16.7292 9.59996 16.588 10.0941C16.7292 10.3058 16.8703 10.6588 16.8703 11.0823C16.8703 12 16.3762 12.6353 15.9527 12.9176C15.8115 14.047 15.1762 14.7529 14.7527 15.1058V16.2353C14.7527 16.8705 16.0233 17.3647 17.1527 17.7882C18.4939 18.2823 19.9056 18.847 20.3998 19.9764L19.0586 20.4705C18.8468 19.9058 17.7174 19.4823 16.6586 19.1294C15.1056 18.5647 13.3409 17.9294 13.3409 16.3058V14.4705L13.6939 14.2588C13.6939 14.2588 14.5409 13.6941 14.5409 12.5647V12.0705L14.9645 11.8588C15.0351 11.8588 15.388 11.647 15.388 11.0823C15.388 10.9411 15.2468 10.7294 15.1762 10.6588L14.8939 10.3764L15.0351 10.0235C15.0351 10.0235 15.388 8.89407 15.388 7.48231C15.388 6.14113 14.6115 5.1529 13.9762 5.1529H13.5527L13.3409 4.79996C13.3409 4.5176 12.8468 4.23525 11.9998 4.23525C9.81152 4.23525 8.47035 5.43525 8.47035 7.41172C8.47035 8.32937 8.82329 9.88231 8.82329 9.88231L8.89388 10.2353L8.61152 10.5882C8.54093 10.5882 8.39976 10.8 8.39976 11.0823C8.39976 11.4353 8.82329 11.8588 9.03505 12L9.31741 12.2117V12.5647C9.31741 13.6235 10.2351 14.1882 10.2351 14.2588L10.588 14.4705V16.3058C10.588 18 8.7527 18.847 7.05858 19.5529C6.28211 19.8353 5.22329 20.3294 5.08211 20.6823Z" fill="black"/>
</svg>
