<svg width="21" height="21" viewBox="0 0 21 21" fill="none" xmlns="http://www.w3.org/2000/svg">
<path d="M17.9857 2.26559H3.01404C1.77374 2.26559 0.768284 3.27104 0.768284 4.51134V17.9859C0.768284 19.2261 1.77374 20.2316 3.01404 20.2316H17.9857C19.226 20.2316 20.2315 19.2261 20.2315 17.9859V4.51134C20.2315 3.27104 19.226 2.26559 17.9857 2.26559Z" stroke="white" stroke-width="1.5" stroke-linejoin="round"/>
<path d="M12.3714 10.4998C12.9915 10.4998 13.4943 9.99707 13.4943 9.37692C13.4943 8.75677 12.9915 8.25405 12.3714 8.25405C11.7513 8.25405 11.2485 8.75677 11.2485 9.37692C11.2485 9.99707 11.7513 10.4998 12.3714 10.4998Z" fill="white"/>
<path d="M16.1143 10.4998C16.7344 10.4998 17.2372 9.99707 17.2372 9.37692C17.2372 8.75677 16.7344 8.25405 16.1143 8.25405C15.4941 8.25405 14.9914 8.75677 14.9914 9.37692C14.9914 9.99707 15.4941 10.4998 16.1143 10.4998Z" fill="white"/>
<path d="M12.3714 14.2429C12.9915 14.2429 13.4943 13.7402 13.4943 13.1201C13.4943 12.4999 12.9915 11.9972 12.3714 11.9972C11.7513 11.9972 11.2485 12.4999 11.2485 13.1201C11.2485 13.7402 11.7513 14.2429 12.3714 14.2429Z" fill="white"/>
<path d="M16.1143 14.2429C16.7344 14.2429 17.2372 13.7402 17.2372 13.1201C17.2372 12.4999 16.7344 11.9972 16.1143 11.9972C15.4941 11.9972 14.9914 12.4999 14.9914 13.1201C14.9914 13.7402 15.4941 14.2429 16.1143 14.2429Z" fill="white"/>
<path d="M4.88539 14.2429C5.50554 14.2429 6.00827 13.7402 6.00827 13.1201C6.00827 12.4999 5.50554 11.9972 4.88539 11.9972C4.26524 11.9972 3.76251 12.4999 3.76251 13.1201C3.76251 13.7402 4.26524 14.2429 4.88539 14.2429Z" fill="white"/>
<path d="M8.62852 14.2429C9.24867 14.2429 9.7514 13.7402 9.7514 13.1201C9.7514 12.4999 9.24867 11.9972 8.62852 11.9972C8.00837 11.9972 7.50564 12.4999 7.50564 13.1201C7.50564 13.7402 8.00837 14.2429 8.62852 14.2429Z" fill="white"/>
<path d="M4.88539 17.9856C5.50554 17.9856 6.00827 17.4828 6.00827 16.8627C6.00827 16.2425 5.50554 15.7398 4.88539 15.7398C4.26524 15.7398 3.76251 16.2425 3.76251 16.8627C3.76251 17.4828 4.26524 17.9856 4.88539 17.9856Z" fill="white"/>
<path d="M8.62852 17.9856C9.24867 17.9856 9.7514 17.4828 9.7514 16.8627C9.7514 16.2425 9.24867 15.7398 8.62852 15.7398C8.00837 15.7398 7.50564 16.2425 7.50564 16.8627C7.50564 17.4828 8.00837 17.9856 8.62852 17.9856Z" fill="white"/>
<path d="M12.3714 17.9856C12.9915 17.9856 13.4943 17.4828 13.4943 16.8627C13.4943 16.2425 12.9915 15.7398 12.3714 15.7398C11.7513 15.7398 11.2485 16.2425 11.2485 16.8627C11.2485 17.4828 11.7513 17.9856 12.3714 17.9856Z" fill="white"/>
<path d="M4.51116 0.768284V2.26545M16.4885 0.768284V2.26545" stroke="white" stroke-width="1.5" stroke-linecap="round" stroke-linejoin="round"/>
<path d="M20.2315 6.00822H0.768284" stroke="white" stroke-width="1.5" stroke-linejoin="round"/>
</svg>
