<svg width="17" height="17" viewBox="0 0 17 17" fill="none" xmlns="http://www.w3.org/2000/svg">
<path d="M16.2273 16.2273L12.4985 12.4985M12.4985 12.4985C13.1363 11.8607 13.6423 11.1034 13.9874 10.2701C14.3326 9.43672 14.5103 8.54353 14.5103 7.64151C14.5103 6.73949 14.3326 5.8463 13.9874 5.01294C13.6423 4.17958 13.1363 3.42237 12.4985 2.78455C11.8607 2.14672 11.1034 1.64077 10.2701 1.29558C9.43672 0.950394 8.54353 0.772727 7.64151 0.772727C6.73949 0.772727 5.8463 0.950394 5.01294 1.29558C4.17958 1.64077 3.42237 2.14672 2.78455 2.78455C1.4964 4.07269 0.772727 5.8198 0.772727 7.64151C0.772727 9.46323 1.4964 11.2103 2.78455 12.4985C4.07269 13.7866 5.8198 14.5103 7.64151 14.5103C9.46323 14.5103 11.2103 13.7866 12.4985 12.4985Z" stroke="black" stroke-opacity="0.5" stroke-width="1.5" stroke-linecap="round" stroke-linejoin="round"/>
</svg>
