<svg width="21" height="21" viewBox="0 0 21 21" fill="none" xmlns="http://www.w3.org/2000/svg">
<path d="M17.9857 2.26559H3.01404C1.77374 2.26559 0.768284 3.27104 0.768284 4.51134V17.9859C0.768284 19.2261 1.77374 20.2316 3.01404 20.2316H17.9857C19.226 20.2316 20.2315 19.2261 20.2315 17.9859V4.51134C20.2315 3.27104 19.226 2.26559 17.9857 2.26559Z" stroke="black" stroke-width="1.5" stroke-linejoin="round"/>
<path d="M12.3715 10.4998C12.9917 10.4998 13.4944 9.99707 13.4944 9.37692C13.4944 8.75677 12.9917 8.25405 12.3715 8.25405C11.7514 8.25405 11.2487 8.75677 11.2487 9.37692C11.2487 9.99707 11.7514 10.4998 12.3715 10.4998Z" fill="black"/>
<path d="M16.1144 10.4998C16.7346 10.4998 17.2373 9.99707 17.2373 9.37692C17.2373 8.75677 16.7346 8.25405 16.1144 8.25405C15.4943 8.25405 14.9915 8.75677 14.9915 9.37692C14.9915 9.99707 15.4943 10.4998 16.1144 10.4998Z" fill="black"/>
<path d="M12.3715 14.2429C12.9917 14.2429 13.4944 13.7402 13.4944 13.1201C13.4944 12.4999 12.9917 11.9972 12.3715 11.9972C11.7514 11.9972 11.2487 12.4999 11.2487 13.1201C11.2487 13.7402 11.7514 14.2429 12.3715 14.2429Z" fill="black"/>
<path d="M16.1144 14.2429C16.7346 14.2429 17.2373 13.7402 17.2373 13.1201C17.2373 12.4999 16.7346 11.9972 16.1144 11.9972C15.4943 11.9972 14.9915 12.4999 14.9915 13.1201C14.9915 13.7402 15.4943 14.2429 16.1144 14.2429Z" fill="black"/>
<path d="M4.88526 14.2429C5.50541 14.2429 6.00814 13.7402 6.00814 13.1201C6.00814 12.4999 5.50541 11.9972 4.88526 11.9972C4.26512 11.9972 3.76239 12.4999 3.76239 13.1201C3.76239 13.7402 4.26512 14.2429 4.88526 14.2429Z" fill="black"/>
<path d="M8.62865 14.2429C9.24879 14.2429 9.75152 13.7402 9.75152 13.1201C9.75152 12.4999 9.24879 11.9972 8.62865 11.9972C8.0085 11.9972 7.50577 12.4999 7.50577 13.1201C7.50577 13.7402 8.0085 14.2429 8.62865 14.2429Z" fill="black"/>
<path d="M4.88526 17.9856C5.50541 17.9856 6.00814 17.4828 6.00814 16.8627C6.00814 16.2425 5.50541 15.7398 4.88526 15.7398C4.26512 15.7398 3.76239 16.2425 3.76239 16.8627C3.76239 17.4828 4.26512 17.9856 4.88526 17.9856Z" fill="black"/>
<path d="M8.62865 17.9856C9.24879 17.9856 9.75152 17.4828 9.75152 16.8627C9.75152 16.2425 9.24879 15.7398 8.62865 15.7398C8.0085 15.7398 7.50577 16.2425 7.50577 16.8627C7.50577 17.4828 8.0085 17.9856 8.62865 17.9856Z" fill="black"/>
<path d="M12.3715 17.9856C12.9917 17.9856 13.4944 17.4828 13.4944 16.8627C13.4944 16.2425 12.9917 15.7398 12.3715 15.7398C11.7514 15.7398 11.2487 16.2425 11.2487 16.8627C11.2487 17.4828 11.7514 17.9856 12.3715 17.9856Z" fill="black"/>
<path d="M4.51116 0.768284V2.26545M16.4885 0.768284V2.26545" stroke="black" stroke-width="1.5" stroke-linecap="round" stroke-linejoin="round"/>
<path d="M20.2315 6.00822H0.768284" stroke="black" stroke-width="1.5" stroke-linejoin="round"/>
</svg>
