<svg width="14" height="14" viewBox="0 0 14 14" fill="none" xmlns="http://www.w3.org/2000/svg">
<path d="M13.6899 0.320712C13.5916 0.222271 13.4749 0.144172 13.3465 0.0908847C13.218 0.0375977 13.0803 0.010169 12.9412 0.010169C12.8022 0.010169 12.6645 0.0375977 12.536 0.0908847C12.4075 0.144172 12.2908 0.222271 12.1926 0.320712L6.99998 5.50272L1.80735 0.310092C1.70904 0.211781 1.59233 0.133796 1.46388 0.0805902C1.33543 0.0273844 1.19776 1.03588e-09 1.05872 0C0.919689 -1.03588e-09 0.782017 0.0273844 0.653567 0.0805902C0.525117 0.133796 0.408404 0.211781 0.310092 0.310092C0.211781 0.408404 0.133796 0.525117 0.0805902 0.653567C0.0273844 0.782017 -1.03588e-09 0.919689 0 1.05872C1.03588e-09 1.19776 0.0273844 1.33543 0.0805902 1.46388C0.133796 1.59233 0.211781 1.70904 0.310092 1.80735L5.50272 6.99998L0.310092 12.1926C0.211781 12.2909 0.133796 12.4076 0.0805902 12.5361C0.0273844 12.6645 0 12.8022 0 12.9412C0 13.0803 0.0273844 13.2179 0.0805902 13.3464C0.133796 13.4748 0.211781 13.5916 0.310092 13.6899C0.408404 13.7882 0.525117 13.8662 0.653567 13.9194C0.782017 13.9726 0.919689 14 1.05872 14C1.19776 14 1.33543 13.9726 1.46388 13.9194C1.59233 13.8662 1.70904 13.7882 1.80735 13.6899L6.99998 8.49724L12.1926 13.6899C12.2909 13.7882 12.4076 13.8662 12.5361 13.9194C12.6645 13.9726 12.8022 14 12.9412 14C13.0803 14 13.2179 13.9726 13.3464 13.9194C13.4748 13.8662 13.5916 13.7882 13.6899 13.6899C13.7882 13.5916 13.8662 13.4748 13.9194 13.3464C13.9726 13.2179 14 13.0803 14 12.9412C14 12.8022 13.9726 12.6645 13.9194 12.5361C13.8662 12.4076 13.7882 12.2909 13.6899 12.1926L8.49724 6.99998L13.6899 1.80735C14.0934 1.40384 14.0934 0.724228 13.6899 0.320712Z" fill="black" fill-opacity="0.7"/>
</svg>
