<svg width="19" height="19" viewBox="0 0 19 19" fill="none" xmlns="http://www.w3.org/2000/svg">
<path d="M13.067 0.589955C13.4449 0.212207 13.9573 0 14.4916 0C15.0259 0 15.5383 0.212207 15.9162 0.589955L18.4097 3.08347C18.5969 3.27059 18.7454 3.49276 18.8467 3.73728C18.948 3.9818 19.0002 4.24388 19.0002 4.50856C19.0002 4.77324 18.948 5.03532 18.8467 5.27984C18.7454 5.52436 18.5969 5.74653 18.4097 5.93364L6.42774 17.9156L0 18.9997L1.08506 12.5719L13.067 0.589955ZM12.8363 3.66983L15.3299 6.16335L16.9851 4.50805L14.4916 2.01554L12.8363 3.66983ZM13.9043 7.58894L11.4118 5.09542L2.96502 13.5422L2.45826 16.5414L5.45753 16.0357L13.9043 7.58894Z" fill="#111111" fill-opacity="0.7"/>
</svg>
