<svg width="15" height="15" viewBox="0 0 15 15" fill="none" xmlns="http://www.w3.org/2000/svg">
<path d="M7.48255 14.9979C5.75256 14.9979 4.02257 15.0026 2.2879 14.9979C1.12988 14.9932 0.220351 14.2337 0.0234416 13.0991C0 12.9679 0 12.8319 0 12.696C0 9.23129 0 5.77131 0 2.30665C0 1.13926 0.754818 0.229727 1.88939 0.0281298C2.02535 0.00468824 2.17069 0 2.30665 0C5.75725 0 9.20785 0 12.6584 0C13.8352 0 14.7401 0.759507 14.9417 1.89877C14.9651 2.03004 14.9651 2.166 14.9651 2.30196C14.9651 5.76663 14.9698 9.2266 14.9651 12.6913C14.9651 13.8633 14.215 14.7635 13.0757 14.9698C12.921 14.9979 12.7616 14.9979 12.6022 14.9979C10.8956 14.9979 9.1891 14.9979 7.48255 14.9979ZM4.6133 6.75117C4.58986 6.75586 4.51485 6.76055 4.44452 6.78399C3.90068 6.96215 3.75065 7.62789 4.16791 8.04983C4.73988 8.63587 5.32592 9.21254 5.90259 9.7892C6.34798 10.2346 6.74648 10.2393 7.18718 9.79389C8.36395 8.61243 9.54541 7.43098 10.7222 6.24952C10.7737 6.19795 10.83 6.14169 10.8769 6.08074C11.1301 5.75725 11.0785 5.28373 10.7597 5.02587C10.4503 4.77739 10.033 4.81021 9.72825 5.11495C8.70151 6.14169 7.67946 7.16843 6.65741 8.19986C6.57302 8.28425 6.53082 8.29363 6.44174 8.20455C6.04792 7.79667 5.64473 7.39816 5.24622 6.99496C5.08213 6.84025 4.89929 6.7418 4.6133 6.75117Z" fill="#5A78F6"/>
</svg>
