<svg width="31" height="31" viewBox="0 0 31 31" fill="none" xmlns="http://www.w3.org/2000/svg">
<path d="M19.9621 18.1788C19.9621 18.3818 19.8817 18.5765 19.7386 18.72C19.5954 18.8636 19.4013 18.9442 19.1989 18.9442H13.0928C12.8904 18.9442 12.6962 18.8636 12.5531 18.72C12.41 18.5765 12.3295 18.3818 12.3295 18.1788C12.3295 17.9758 12.41 17.7811 12.5531 17.6376C12.6962 17.494 12.8904 17.4134 13.0928 17.4134H19.1989C19.4013 17.4134 19.5954 17.494 19.7386 17.6376C19.8817 17.7811 19.9621 17.9758 19.9621 18.1788ZM19.1989 14.3516H13.0928C12.8904 14.3516 12.6962 14.4323 12.5531 14.5758C12.41 14.7194 12.3295 14.914 12.3295 15.1171C12.3295 15.3201 12.41 15.5147 12.5531 15.6583C12.6962 15.8018 12.8904 15.8825 13.0928 15.8825H19.1989C19.4013 15.8825 19.5954 15.8018 19.7386 15.6583C19.8817 15.5147 19.9621 15.3201 19.9621 15.1171C19.9621 14.914 19.8817 14.7194 19.7386 14.5758C19.5954 14.4323 19.4013 14.3516 19.1989 14.3516ZM24.5417 8.22811V24.3023C24.5417 24.7083 24.3808 25.0977 24.0946 25.3848C23.8083 25.6719 23.42 25.8332 23.0152 25.8332H9.27652C8.87166 25.8332 8.48338 25.6719 8.19711 25.3848C7.91083 25.0977 7.75 24.7083 7.75 24.3023V8.22811C7.75 7.8221 7.91083 7.43272 8.19711 7.14562C8.48338 6.85853 8.87166 6.69724 9.27652 6.69724H12.736C13.1648 6.21571 13.6903 5.83044 14.2779 5.56665C14.8655 5.30286 15.502 5.1665 16.1458 5.1665C16.7896 5.1665 17.4262 5.30286 18.0138 5.56665C18.6014 5.83044 19.1268 6.21571 19.5557 6.69724H23.0152C23.42 6.69724 23.8083 6.85853 24.0946 7.14562C24.3808 7.43272 24.5417 7.8221 24.5417 8.22811ZM13.0928 9.75899H19.1989C19.1989 8.94696 18.8772 8.16819 18.3047 7.59401C17.7321 7.01982 16.9555 6.69724 16.1458 6.69724C15.3361 6.69724 14.5596 7.01982 13.987 7.59401C13.4145 8.16819 13.0928 8.94696 13.0928 9.75899ZM23.0152 8.22811H20.463C20.6366 8.71973 20.7254 9.23745 20.7254 9.75899V10.5244C20.7254 10.7274 20.645 10.9221 20.5018 11.0657C20.3587 11.2092 20.1645 11.2899 19.9621 11.2899H12.3295C12.1271 11.2899 11.933 11.2092 11.7898 11.0657C11.6467 10.9221 11.5663 10.7274 11.5663 10.5244V9.75899C11.5663 9.23745 11.655 8.71973 11.8287 8.22811H9.27652V24.3023H23.0152V8.22811Z" fill="#5A78F6"/>
</svg>
