<svg width="31" height="31" viewBox="0 0 31 31" fill="none" xmlns="http://www.w3.org/2000/svg">
<path d="M19.4878 14.765C19.8579 14.0559 20.0261 13.2793 20.0261 12.5026V12.0299L19.9588 10.5441C19.5887 8.21416 17.5362 6.45825 15.1809 6.45825C12.4891 6.45825 10.302 8.65313 10.302 11.3545V12.5364C10.302 13.4819 10.5712 14.3936 11.0759 15.1702C9.52811 16.4872 8.65328 18.3781 8.61963 20.4042V20.4717C8.65328 24.7602 12.4554 24.7602 15.5174 24.7602C18.5793 24.7602 22.3814 24.7602 22.4151 20.4717V20.4042C22.4487 18.1418 21.3384 16.082 19.4878 14.765ZM18.2428 12.5364C18.2428 14.2248 16.8633 15.6092 15.1809 15.6092C13.4985 15.6092 12.119 14.2248 12.119 12.5364V12.0974L12.2199 10.6454C12.5564 9.26095 13.7677 8.28169 15.2145 8.28169C16.6614 8.28169 17.8727 9.26095 18.2092 10.6454L18.3101 12.0974V12.5364H18.2428ZM12.3208 16.4872C13.162 17.095 14.1378 17.3989 15.1809 17.3989C16.3585 17.3989 17.5026 16.9599 18.3774 16.1833C19.7906 17.1288 20.6318 18.7158 20.6654 20.4042C20.6654 22.5653 19.4541 22.903 15.551 22.903C11.6815 22.903 10.4702 22.5653 10.4366 20.4042C10.4366 18.9184 11.1432 17.4664 12.3208 16.4872Z" fill="#5A78F6"/>
<path d="M24.6687 14.1221C24.9716 13.548 25.1398 12.8727 25.1398 12.2311V11.8259L25.0725 10.5427C24.736 8.58423 22.9527 7.0647 20.9675 7.0647C20.5637 7.0647 20.16 7.13223 19.7898 7.23353L19.4534 7.33484L20.4628 8.78684L20.631 8.75307C21.3376 8.58423 21.9096 8.8206 22.2798 9.02321C22.8518 9.39465 23.2892 10.0025 23.4238 10.6103L23.4911 11.0493C23.5247 11.3194 23.5247 11.6233 23.5247 11.8934V12.1973C23.5247 13.4805 22.6499 14.5273 21.3713 14.7637L20.9002 14.8312L22.1452 16.1819L22.3134 16.1144C22.8181 15.9455 23.2892 15.6754 23.6593 15.3377C24.8033 16.1144 25.5436 17.4651 25.5436 18.8495C25.5436 20.0651 25.0725 20.5717 23.7602 20.7743L23.592 20.808L23.2555 22.4626L23.592 22.4289C25.1061 22.26 27.125 21.7198 27.125 18.8833V18.8495C27.125 16.9585 26.2165 15.2026 24.6687 14.1221Z" fill="#5A78F6"/>
<path d="M7.27339 20.8424C5.96114 20.6398 5.49008 20.1333 5.49008 18.9176C5.49008 17.5332 6.19667 16.1825 7.37434 15.4058C7.77811 15.7435 8.21552 16.0136 8.72023 16.1825L8.88847 16.25L10.1334 14.8993L9.66236 14.8318C8.38376 14.5954 7.50893 13.5486 7.50893 12.2655V11.9616C7.50893 11.6914 7.50893 11.3875 7.54257 11.1174L7.57622 10.7122C7.8454 9.59783 8.92212 8.51728 10.0661 8.75365L10.2344 8.78742L11.2438 7.33542L10.9073 7.23411C10.5708 7.13281 10.4699 7.13281 10.1334 7.13281H10.0661C8.04729 7.13281 6.29762 8.61858 5.96114 10.6446L5.89385 11.8265V12.1979C5.89385 12.8395 6.06208 13.5149 6.36491 14.0889C4.81713 15.2032 3.875 16.9591 3.875 18.8839V18.9176C3.90865 21.7541 5.89385 22.2944 7.40798 22.4632L7.74446 22.497L7.40798 20.8424H7.27339Z" fill="#5A78F6"/>
</svg>
