<svg width="22" height="22" viewBox="0 0 22 22" fill="none" xmlns="http://www.w3.org/2000/svg">
<path d="M10.4755 2.04907H3.10567C2.54721 2.04907 2.01163 2.27092 1.61674 2.66581C1.22185 3.0607 1 3.59628 1 4.15474V18.8944C1 19.4529 1.22185 19.9885 1.61674 20.3834C2.01163 20.7782 2.54721 21.0001 3.10567 21.0001H17.8454C18.4038 21.0001 18.9394 20.7782 19.3343 20.3834C19.7292 19.9885 19.951 19.4529 19.951 18.8944V11.5246" stroke="black" stroke-width="2" stroke-linecap="round" stroke-linejoin="round"/>
<path d="M17.1873 1.65415C17.6062 1.2353 18.1742 1 18.7666 1C19.3589 1 19.927 1.2353 20.3458 1.65415C20.7647 2.07299 21 2.64106 21 3.2334C21 3.82573 20.7647 4.39381 20.3458 4.81265L10.4755 14.683L6.26416 15.7358L7.31699 11.5245L17.1873 1.65415Z" stroke="black" stroke-width="2" stroke-linecap="round" stroke-linejoin="round"/>
</svg>
